<mxfile host="app.diagrams.net" modified="2024-07-22T12:09:20.829Z" agent="Mozilla/5.0 (Windows NT 10.0; Win64; x64) AppleWebKit/537.36 (KHTML, like Gecko) Chrome/126.0.0.0 Safari/537.36" etag="299-AkCBzV2vb9fouJ2-" version="24.7.1" type="device" pages="12">
  <diagram id="8CAegeUztcWQG8TpCRoP" name="Page-1">
    <mxGraphModel dx="1050" dy="603" grid="1" gridSize="10" guides="1" tooltips="1" connect="1" arrows="1" fold="1" page="1" pageScale="1" pageWidth="827" pageHeight="1169" math="0" shadow="0">
      <root>
        <mxCell id="0" />
        <mxCell id="1" parent="0" />
        <mxCell id="bDjt0Ajl7aM1j9IQusde-6" style="edgeStyle=orthogonalEdgeStyle;rounded=0;orthogonalLoop=1;jettySize=auto;html=1;exitX=0.5;exitY=1;exitDx=0;exitDy=0;entryX=0.5;entryY=0;entryDx=0;entryDy=0;" parent="1" source="bDjt0Ajl7aM1j9IQusde-1" target="bDjt0Ajl7aM1j9IQusde-5" edge="1">
          <mxGeometry relative="1" as="geometry" />
        </mxCell>
        <mxCell id="bDjt0Ajl7aM1j9IQusde-1" value="Start" style="ellipse;whiteSpace=wrap;html=1;" parent="1" vertex="1">
          <mxGeometry x="160" y="60" width="120" height="80" as="geometry" />
        </mxCell>
        <mxCell id="bDjt0Ajl7aM1j9IQusde-8" style="edgeStyle=orthogonalEdgeStyle;rounded=0;orthogonalLoop=1;jettySize=auto;html=1;exitX=0.5;exitY=1;exitDx=0;exitDy=0;entryX=0.5;entryY=0;entryDx=0;entryDy=0;" parent="1" source="bDjt0Ajl7aM1j9IQusde-5" target="bDjt0Ajl7aM1j9IQusde-7" edge="1">
          <mxGeometry relative="1" as="geometry" />
        </mxCell>
        <mxCell id="bDjt0Ajl7aM1j9IQusde-5" value="Old parking states (Export to Old series)" style="rounded=0;whiteSpace=wrap;html=1;" parent="1" vertex="1">
          <mxGeometry x="160" y="160" width="120" height="60" as="geometry" />
        </mxCell>
        <mxCell id="bDjt0Ajl7aM1j9IQusde-18" style="edgeStyle=orthogonalEdgeStyle;rounded=0;orthogonalLoop=1;jettySize=auto;html=1;exitX=0.5;exitY=1;exitDx=0;exitDy=0;entryX=0.5;entryY=0;entryDx=0;entryDy=0;" parent="1" source="bDjt0Ajl7aM1j9IQusde-7" target="bDjt0Ajl7aM1j9IQusde-15" edge="1">
          <mxGeometry relative="1" as="geometry" />
        </mxCell>
        <mxCell id="bDjt0Ajl7aM1j9IQusde-7" value="Evaluate and save&lt;br&gt;every parking&amp;nbsp;&lt;br&gt;spot&#39;s state&lt;br&gt;&lt;b&gt;Is it full?&lt;/b&gt;" style="shape=parallelogram;perimeter=parallelogramPerimeter;whiteSpace=wrap;html=1;fixedSize=1;" parent="1" vertex="1">
          <mxGeometry x="150" y="250" width="140" height="60" as="geometry" />
        </mxCell>
        <mxCell id="bDjt0Ajl7aM1j9IQusde-20" style="edgeStyle=orthogonalEdgeStyle;rounded=0;orthogonalLoop=1;jettySize=auto;html=1;exitX=0.5;exitY=1;exitDx=0;exitDy=0;entryX=0.5;entryY=0;entryDx=0;entryDy=0;" parent="1" source="bDjt0Ajl7aM1j9IQusde-15" target="bDjt0Ajl7aM1j9IQusde-19" edge="1">
          <mxGeometry relative="1" as="geometry" />
        </mxCell>
        <mxCell id="bDjt0Ajl7aM1j9IQusde-15" value="Change ID if there&amp;nbsp;&lt;br&gt;is a change in the&lt;br&gt;parking spot" style="rounded=0;whiteSpace=wrap;html=1;" parent="1" vertex="1">
          <mxGeometry x="160" y="340" width="120" height="60" as="geometry" />
        </mxCell>
        <mxCell id="bDjt0Ajl7aM1j9IQusde-22" value="" style="edgeStyle=orthogonalEdgeStyle;rounded=0;orthogonalLoop=1;jettySize=auto;html=1;" parent="1" source="bDjt0Ajl7aM1j9IQusde-19" target="bDjt0Ajl7aM1j9IQusde-21" edge="1">
          <mxGeometry relative="1" as="geometry" />
        </mxCell>
        <mxCell id="bDjt0Ajl7aM1j9IQusde-19" value="Send IDs&lt;br&gt;-serial-&amp;gt; nodeMCU&lt;br&gt;-wifi-&amp;gt; Blynk" style="shape=parallelogram;perimeter=parallelogramPerimeter;whiteSpace=wrap;html=1;fixedSize=1;" parent="1" vertex="1">
          <mxGeometry x="150" y="430" width="140" height="60" as="geometry" />
        </mxCell>
        <mxCell id="bDjt0Ajl7aM1j9IQusde-23" style="edgeStyle=orthogonalEdgeStyle;rounded=0;orthogonalLoop=1;jettySize=auto;html=1;entryX=0;entryY=0.5;entryDx=0;entryDy=0;" parent="1" source="bDjt0Ajl7aM1j9IQusde-21" target="bDjt0Ajl7aM1j9IQusde-5" edge="1">
          <mxGeometry relative="1" as="geometry">
            <Array as="points">
              <mxPoint x="130" y="550" />
              <mxPoint x="130" y="190" />
            </Array>
          </mxGeometry>
        </mxCell>
        <mxCell id="bDjt0Ajl7aM1j9IQusde-21" value="Control Devices" style="shape=parallelogram;perimeter=parallelogramPerimeter;whiteSpace=wrap;html=1;fixedSize=1;" parent="1" vertex="1">
          <mxGeometry x="150" y="520" width="140" height="60" as="geometry" />
        </mxCell>
      </root>
    </mxGraphModel>
  </diagram>
  <diagram id="kIi7vNXvqxEFEtGO19Qy" name="Page-2">
    <mxGraphModel dx="1050" dy="603" grid="1" gridSize="10" guides="1" tooltips="1" connect="1" arrows="1" fold="1" page="1" pageScale="1" pageWidth="827" pageHeight="1169" math="0" shadow="0">
      <root>
        <mxCell id="0" />
        <mxCell id="1" parent="0" />
        <mxCell id="L1DXj_jK1R3Mg5COaO_T-10" style="edgeStyle=orthogonalEdgeStyle;rounded=0;orthogonalLoop=1;jettySize=auto;html=1;exitX=0.5;exitY=1;exitDx=0;exitDy=0;entryX=0.5;entryY=0;entryDx=0;entryDy=0;" parent="1" source="L1DXj_jK1R3Mg5COaO_T-1" target="L1DXj_jK1R3Mg5COaO_T-2" edge="1">
          <mxGeometry relative="1" as="geometry" />
        </mxCell>
        <mxCell id="L1DXj_jK1R3Mg5COaO_T-1" value="Start" style="ellipse;whiteSpace=wrap;html=1;" parent="1" vertex="1">
          <mxGeometry x="110" y="90" width="120" height="80" as="geometry" />
        </mxCell>
        <mxCell id="L1DXj_jK1R3Mg5COaO_T-11" style="edgeStyle=orthogonalEdgeStyle;rounded=0;orthogonalLoop=1;jettySize=auto;html=1;exitX=0.5;exitY=1;exitDx=0;exitDy=0;entryX=0.5;entryY=0;entryDx=0;entryDy=0;" parent="1" source="L1DXj_jK1R3Mg5COaO_T-2" target="L1DXj_jK1R3Mg5COaO_T-3" edge="1">
          <mxGeometry relative="1" as="geometry" />
        </mxCell>
        <mxCell id="L1DXj_jK1R3Mg5COaO_T-2" value="Send 0 for 2us&amp;nbsp;&lt;br&gt;to the sensor" style="shape=parallelogram;perimeter=parallelogramPerimeter;whiteSpace=wrap;html=1;fixedSize=1;" parent="1" vertex="1">
          <mxGeometry x="110" y="200" width="120" height="60" as="geometry" />
        </mxCell>
        <mxCell id="L1DXj_jK1R3Mg5COaO_T-12" style="edgeStyle=orthogonalEdgeStyle;rounded=0;orthogonalLoop=1;jettySize=auto;html=1;exitX=0.5;exitY=1;exitDx=0;exitDy=0;entryX=0.5;entryY=0;entryDx=0;entryDy=0;" parent="1" source="L1DXj_jK1R3Mg5COaO_T-3" target="L1DXj_jK1R3Mg5COaO_T-9" edge="1">
          <mxGeometry relative="1" as="geometry" />
        </mxCell>
        <mxCell id="L1DXj_jK1R3Mg5COaO_T-3" value="Send 1 for 10us&amp;nbsp;&lt;br&gt;to the sensor" style="shape=parallelogram;perimeter=parallelogramPerimeter;whiteSpace=wrap;html=1;fixedSize=1;" parent="1" vertex="1">
          <mxGeometry x="110" y="290" width="120" height="60" as="geometry" />
        </mxCell>
        <mxCell id="L1DXj_jK1R3Mg5COaO_T-14" style="edgeStyle=orthogonalEdgeStyle;rounded=0;orthogonalLoop=1;jettySize=auto;html=1;exitX=0.5;exitY=1;exitDx=0;exitDy=0;" parent="1" source="L1DXj_jK1R3Mg5COaO_T-6" target="L1DXj_jK1R3Mg5COaO_T-7" edge="1">
          <mxGeometry relative="1" as="geometry" />
        </mxCell>
        <mxCell id="L1DXj_jK1R3Mg5COaO_T-6" value="return: distance=&lt;br&gt;time*(0.034/2)" style="rounded=0;whiteSpace=wrap;html=1;" parent="1" vertex="1">
          <mxGeometry x="110" y="470" width="120" height="60" as="geometry" />
        </mxCell>
        <mxCell id="L1DXj_jK1R3Mg5COaO_T-7" value="End" style="ellipse;whiteSpace=wrap;html=1;" parent="1" vertex="1">
          <mxGeometry x="110" y="560" width="120" height="80" as="geometry" />
        </mxCell>
        <mxCell id="L1DXj_jK1R3Mg5COaO_T-13" style="edgeStyle=orthogonalEdgeStyle;rounded=0;orthogonalLoop=1;jettySize=auto;html=1;exitX=0.5;exitY=1;exitDx=0;exitDy=0;entryX=0.5;entryY=0;entryDx=0;entryDy=0;" parent="1" source="L1DXj_jK1R3Mg5COaO_T-9" target="L1DXj_jK1R3Mg5COaO_T-6" edge="1">
          <mxGeometry relative="1" as="geometry" />
        </mxCell>
        <mxCell id="L1DXj_jK1R3Mg5COaO_T-9" value="Get the time that&amp;nbsp;&lt;br&gt;sensor receiver takes&lt;br&gt;to get the back signal" style="rounded=0;whiteSpace=wrap;html=1;" parent="1" vertex="1">
          <mxGeometry x="110" y="380" width="120" height="60" as="geometry" />
        </mxCell>
      </root>
    </mxGraphModel>
  </diagram>
  <diagram id="1yjhsFAf-mQS4AmtcXnf" name="Page-3">
    <mxGraphModel dx="1050" dy="603" grid="1" gridSize="10" guides="1" tooltips="1" connect="1" arrows="1" fold="1" page="1" pageScale="1" pageWidth="827" pageHeight="1169" math="0" shadow="0">
      <root>
        <mxCell id="0" />
        <mxCell id="1" parent="0" />
        <mxCell id="1CqDfRjaewzk59zj_bH5-11" style="edgeStyle=orthogonalEdgeStyle;rounded=0;orthogonalLoop=1;jettySize=auto;html=1;exitX=0.5;exitY=1;exitDx=0;exitDy=0;entryX=0.5;entryY=0;entryDx=0;entryDy=0;" parent="1" source="1CqDfRjaewzk59zj_bH5-1" target="1CqDfRjaewzk59zj_bH5-2" edge="1">
          <mxGeometry relative="1" as="geometry" />
        </mxCell>
        <mxCell id="1CqDfRjaewzk59zj_bH5-1" value="Start" style="ellipse;whiteSpace=wrap;html=1;" parent="1" vertex="1">
          <mxGeometry x="140" y="110" width="120" height="80" as="geometry" />
        </mxCell>
        <mxCell id="1CqDfRjaewzk59zj_bH5-12" style="edgeStyle=orthogonalEdgeStyle;rounded=0;orthogonalLoop=1;jettySize=auto;html=1;exitX=0.5;exitY=1;exitDx=0;exitDy=0;entryX=0.5;entryY=0;entryDx=0;entryDy=0;" parent="1" source="1CqDfRjaewzk59zj_bH5-2" target="1CqDfRjaewzk59zj_bH5-3" edge="1">
          <mxGeometry relative="1" as="geometry" />
        </mxCell>
        <mxCell id="1CqDfRjaewzk59zj_bH5-2" value="get distance&lt;br&gt;from the sensor" style="shape=parallelogram;perimeter=parallelogramPerimeter;whiteSpace=wrap;html=1;fixedSize=1;" parent="1" vertex="1">
          <mxGeometry x="140" y="220" width="120" height="60" as="geometry" />
        </mxCell>
        <mxCell id="1CqDfRjaewzk59zj_bH5-6" style="edgeStyle=orthogonalEdgeStyle;rounded=0;orthogonalLoop=1;jettySize=auto;html=1;exitX=1;exitY=0.5;exitDx=0;exitDy=0;entryX=0.5;entryY=0;entryDx=0;entryDy=0;" parent="1" source="1CqDfRjaewzk59zj_bH5-3" edge="1">
          <mxGeometry relative="1" as="geometry">
            <mxPoint x="280" y="440" as="targetPoint" />
          </mxGeometry>
        </mxCell>
        <mxCell id="1CqDfRjaewzk59zj_bH5-17" value="No" style="edgeLabel;html=1;align=center;verticalAlign=middle;resizable=0;points=[];" parent="1CqDfRjaewzk59zj_bH5-6" vertex="1" connectable="0">
          <mxGeometry x="0.0105" y="1" relative="1" as="geometry">
            <mxPoint as="offset" />
          </mxGeometry>
        </mxCell>
        <mxCell id="1CqDfRjaewzk59zj_bH5-8" style="edgeStyle=orthogonalEdgeStyle;rounded=0;orthogonalLoop=1;jettySize=auto;html=1;exitX=0;exitY=0.5;exitDx=0;exitDy=0;entryX=0.5;entryY=0;entryDx=0;entryDy=0;" parent="1" source="1CqDfRjaewzk59zj_bH5-3" edge="1">
          <mxGeometry relative="1" as="geometry">
            <mxPoint x="120" y="440" as="targetPoint" />
          </mxGeometry>
        </mxCell>
        <mxCell id="1CqDfRjaewzk59zj_bH5-16" value="Yes" style="edgeLabel;html=1;align=center;verticalAlign=middle;resizable=0;points=[];" parent="1CqDfRjaewzk59zj_bH5-8" vertex="1" connectable="0">
          <mxGeometry x="-0.0316" y="2" relative="1" as="geometry">
            <mxPoint as="offset" />
          </mxGeometry>
        </mxCell>
        <mxCell id="1CqDfRjaewzk59zj_bH5-3" value="distance &amp;lt; 9 cm&lt;br&gt;there is a car" style="rhombus;whiteSpace=wrap;html=1;" parent="1" vertex="1">
          <mxGeometry x="145" y="310" width="110" height="120" as="geometry" />
        </mxCell>
        <mxCell id="1CqDfRjaewzk59zj_bH5-18" style="edgeStyle=orthogonalEdgeStyle;rounded=0;orthogonalLoop=1;jettySize=auto;html=1;exitX=0.5;exitY=1;exitDx=0;exitDy=0;entryX=0.5;entryY=0;entryDx=0;entryDy=0;" parent="1" source="1CqDfRjaewzk59zj_bH5-9" target="1CqDfRjaewzk59zj_bH5-10" edge="1">
          <mxGeometry relative="1" as="geometry" />
        </mxCell>
        <mxCell id="1CqDfRjaewzk59zj_bH5-9" value="return (Red LED)&lt;br&gt;&lt;b&gt;Is it full?&lt;/b&gt;" style="rounded=0;whiteSpace=wrap;html=1;" parent="1" vertex="1">
          <mxGeometry x="140" y="540" width="120" height="60" as="geometry" />
        </mxCell>
        <mxCell id="1CqDfRjaewzk59zj_bH5-10" value="End" style="ellipse;whiteSpace=wrap;html=1;" parent="1" vertex="1">
          <mxGeometry x="140" y="630" width="120" height="80" as="geometry" />
        </mxCell>
        <mxCell id="lSmN109Bolp245GgEgDB-4" style="edgeStyle=orthogonalEdgeStyle;rounded=0;orthogonalLoop=1;jettySize=auto;html=1;exitX=0.5;exitY=1;exitDx=0;exitDy=0;entryX=0.5;entryY=0;entryDx=0;entryDy=0;" parent="1" source="lSmN109Bolp245GgEgDB-1" target="1CqDfRjaewzk59zj_bH5-9" edge="1">
          <mxGeometry relative="1" as="geometry" />
        </mxCell>
        <mxCell id="lSmN109Bolp245GgEgDB-1" value="turn off red&lt;br&gt;turn on green" style="shape=parallelogram;perimeter=parallelogramPerimeter;whiteSpace=wrap;html=1;fixedSize=1;" parent="1" vertex="1">
          <mxGeometry x="60" y="440" width="120" height="60" as="geometry" />
        </mxCell>
        <mxCell id="lSmN109Bolp245GgEgDB-3" style="edgeStyle=orthogonalEdgeStyle;rounded=0;orthogonalLoop=1;jettySize=auto;html=1;exitX=0.5;exitY=1;exitDx=0;exitDy=0;entryX=0.5;entryY=0;entryDx=0;entryDy=0;" parent="1" source="lSmN109Bolp245GgEgDB-2" target="1CqDfRjaewzk59zj_bH5-9" edge="1">
          <mxGeometry relative="1" as="geometry" />
        </mxCell>
        <mxCell id="lSmN109Bolp245GgEgDB-2" value="turn off green&lt;br&gt;turn on red" style="shape=parallelogram;perimeter=parallelogramPerimeter;whiteSpace=wrap;html=1;fixedSize=1;" parent="1" vertex="1">
          <mxGeometry x="220" y="440" width="120" height="60" as="geometry" />
        </mxCell>
      </root>
    </mxGraphModel>
  </diagram>
  <diagram id="4RuHRkQgVG88ffaLd5EH" name="Page-4">
    <mxGraphModel dx="1425" dy="743" grid="1" gridSize="10" guides="1" tooltips="1" connect="1" arrows="1" fold="1" page="1" pageScale="1" pageWidth="827" pageHeight="1169" math="0" shadow="0">
      <root>
        <mxCell id="0" />
        <mxCell id="1" parent="0" />
        <mxCell id="B3RYew7dhGnHmv6jL0Wq-7" style="edgeStyle=orthogonalEdgeStyle;rounded=0;orthogonalLoop=1;jettySize=auto;html=1;exitX=0.5;exitY=1;exitDx=0;exitDy=0;entryX=0.5;entryY=0;entryDx=0;entryDy=0;" parent="1" source="F9rgtshn7nNmzeOBNcDu-1" target="F9rgtshn7nNmzeOBNcDu-2" edge="1">
          <mxGeometry relative="1" as="geometry" />
        </mxCell>
        <mxCell id="F9rgtshn7nNmzeOBNcDu-1" value="Başla" style="ellipse;whiteSpace=wrap;html=1;" parent="1" vertex="1">
          <mxGeometry x="160" y="90" width="120" height="80" as="geometry" />
        </mxCell>
        <mxCell id="F9rgtshn7nNmzeOBNcDu-2" value="Park dolu?" style="rhombus;whiteSpace=wrap;html=1;" parent="1" vertex="1">
          <mxGeometry x="165" y="200" width="110" height="100" as="geometry" />
        </mxCell>
        <mxCell id="B3RYew7dhGnHmv6jL0Wq-1" style="edgeStyle=orthogonalEdgeStyle;rounded=0;orthogonalLoop=1;jettySize=auto;html=1;exitX=1;exitY=0.5;exitDx=0;exitDy=0;" parent="1" source="F9rgtshn7nNmzeOBNcDu-2" edge="1">
          <mxGeometry relative="1" as="geometry">
            <mxPoint x="275" y="270" as="sourcePoint" />
            <mxPoint x="300" y="320" as="targetPoint" />
          </mxGeometry>
        </mxCell>
        <mxCell id="B3RYew7dhGnHmv6jL0Wq-2" value="Hayır" style="edgeLabel;html=1;align=center;verticalAlign=middle;resizable=0;points=[];" parent="B3RYew7dhGnHmv6jL0Wq-1" vertex="1" connectable="0">
          <mxGeometry x="0.0105" y="1" relative="1" as="geometry">
            <mxPoint as="offset" />
          </mxGeometry>
        </mxCell>
        <mxCell id="B3RYew7dhGnHmv6jL0Wq-3" style="edgeStyle=orthogonalEdgeStyle;rounded=0;orthogonalLoop=1;jettySize=auto;html=1;" parent="1" source="F9rgtshn7nNmzeOBNcDu-2" edge="1">
          <mxGeometry relative="1" as="geometry">
            <mxPoint x="165" y="270" as="sourcePoint" />
            <mxPoint x="140" y="320" as="targetPoint" />
          </mxGeometry>
        </mxCell>
        <mxCell id="B3RYew7dhGnHmv6jL0Wq-4" value="Evet" style="edgeLabel;html=1;align=center;verticalAlign=middle;resizable=0;points=[];" parent="B3RYew7dhGnHmv6jL0Wq-3" vertex="1" connectable="0">
          <mxGeometry x="-0.0316" y="2" relative="1" as="geometry">
            <mxPoint as="offset" />
          </mxGeometry>
        </mxCell>
        <mxCell id="B3RYew7dhGnHmv6jL0Wq-10" style="edgeStyle=orthogonalEdgeStyle;rounded=0;orthogonalLoop=1;jettySize=auto;html=1;exitX=0.5;exitY=1;exitDx=0;exitDy=0;entryX=0.5;entryY=0;entryDx=0;entryDy=0;" parent="1" source="B3RYew7dhGnHmv6jL0Wq-5" target="B3RYew7dhGnHmv6jL0Wq-8" edge="1">
          <mxGeometry relative="1" as="geometry" />
        </mxCell>
        <mxCell id="B3RYew7dhGnHmv6jL0Wq-5" value="&lt;span&gt;Yeşil ledi kapat&lt;/span&gt;&lt;br&gt;&lt;span&gt;Kırmızııyı aç&lt;/span&gt;" style="shape=parallelogram;perimeter=parallelogramPerimeter;whiteSpace=wrap;html=1;fixedSize=1;" parent="1" vertex="1">
          <mxGeometry x="80" y="320" width="120" height="60" as="geometry" />
        </mxCell>
        <mxCell id="B3RYew7dhGnHmv6jL0Wq-13" style="edgeStyle=orthogonalEdgeStyle;rounded=0;orthogonalLoop=1;jettySize=auto;html=1;exitX=0.5;exitY=1;exitDx=0;exitDy=0;entryX=0.5;entryY=0;entryDx=0;entryDy=0;" parent="1" source="B3RYew7dhGnHmv6jL0Wq-6" target="B3RYew7dhGnHmv6jL0Wq-11" edge="1">
          <mxGeometry relative="1" as="geometry" />
        </mxCell>
        <mxCell id="B3RYew7dhGnHmv6jL0Wq-6" value="&lt;span&gt;Yeşil ledi aç&lt;/span&gt;&lt;br&gt;&lt;span&gt;Kırmızııyı kapat&lt;/span&gt;" style="shape=parallelogram;perimeter=parallelogramPerimeter;whiteSpace=wrap;html=1;fixedSize=1;" parent="1" vertex="1">
          <mxGeometry x="240" y="320" width="120" height="60" as="geometry" />
        </mxCell>
        <mxCell id="B3RYew7dhGnHmv6jL0Wq-19" style="edgeStyle=orthogonalEdgeStyle;rounded=0;orthogonalLoop=1;jettySize=auto;html=1;exitX=0.5;exitY=1;exitDx=0;exitDy=0;entryX=0.5;entryY=0;entryDx=0;entryDy=0;" parent="1" source="B3RYew7dhGnHmv6jL0Wq-8" target="B3RYew7dhGnHmv6jL0Wq-16" edge="1">
          <mxGeometry relative="1" as="geometry">
            <Array as="points">
              <mxPoint x="130" y="580" />
              <mxPoint x="220" y="580" />
            </Array>
          </mxGeometry>
        </mxCell>
        <mxCell id="B3RYew7dhGnHmv6jL0Wq-8" value="LCD&#39;e &lt;b&gt;dolu&amp;nbsp;&lt;/b&gt;&lt;br&gt;yaz" style="shape=parallelogram;perimeter=parallelogramPerimeter;whiteSpace=wrap;html=1;fixedSize=1;" parent="1" vertex="1">
          <mxGeometry x="70" y="410" width="120" height="60" as="geometry" />
        </mxCell>
        <mxCell id="B3RYew7dhGnHmv6jL0Wq-15" value="" style="edgeStyle=orthogonalEdgeStyle;rounded=0;orthogonalLoop=1;jettySize=auto;html=1;" parent="1" source="B3RYew7dhGnHmv6jL0Wq-11" target="B3RYew7dhGnHmv6jL0Wq-14" edge="1">
          <mxGeometry relative="1" as="geometry" />
        </mxCell>
        <mxCell id="B3RYew7dhGnHmv6jL0Wq-11" value="LCD&#39;e &lt;b&gt;Boşları&lt;/b&gt;&lt;br&gt;yaz" style="shape=parallelogram;perimeter=parallelogramPerimeter;whiteSpace=wrap;html=1;fixedSize=1;" parent="1" vertex="1">
          <mxGeometry x="240" y="410" width="120" height="60" as="geometry" />
        </mxCell>
        <mxCell id="B3RYew7dhGnHmv6jL0Wq-17" style="edgeStyle=orthogonalEdgeStyle;rounded=0;orthogonalLoop=1;jettySize=auto;html=1;exitX=0.5;exitY=1;exitDx=0;exitDy=0;entryX=0.5;entryY=0;entryDx=0;entryDy=0;" parent="1" source="B3RYew7dhGnHmv6jL0Wq-14" target="B3RYew7dhGnHmv6jL0Wq-16" edge="1">
          <mxGeometry relative="1" as="geometry">
            <Array as="points">
              <mxPoint x="300" y="580" />
              <mxPoint x="220" y="580" />
            </Array>
          </mxGeometry>
        </mxCell>
        <mxCell id="B3RYew7dhGnHmv6jL0Wq-14" value="Girişte araba var ise&lt;br&gt;fonksiyonu" style="whiteSpace=wrap;html=1;" parent="1" vertex="1">
          <mxGeometry x="240" y="500" width="120" height="60" as="geometry" />
        </mxCell>
        <mxCell id="B3RYew7dhGnHmv6jL0Wq-16" value="Bitir" style="ellipse;whiteSpace=wrap;html=1;" parent="1" vertex="1">
          <mxGeometry x="160" y="610" width="120" height="80" as="geometry" />
        </mxCell>
      </root>
    </mxGraphModel>
  </diagram>
  <diagram id="TBQBQc4VbvEBsUnZ-itz" name="Page-5">
    <mxGraphModel dx="1425" dy="743" grid="1" gridSize="10" guides="1" tooltips="1" connect="1" arrows="1" fold="1" page="1" pageScale="1" pageWidth="827" pageHeight="1169" math="0" shadow="0">
      <root>
        <mxCell id="0" />
        <mxCell id="1" parent="0" />
        <mxCell id="FaA14M1W8ghQA3k7jYmn-3" style="edgeStyle=orthogonalEdgeStyle;rounded=0;orthogonalLoop=1;jettySize=auto;html=1;exitX=0.5;exitY=1;exitDx=0;exitDy=0;entryX=0.5;entryY=0;entryDx=0;entryDy=0;" parent="1" source="FaA14M1W8ghQA3k7jYmn-1" target="FaA14M1W8ghQA3k7jYmn-2" edge="1">
          <mxGeometry relative="1" as="geometry" />
        </mxCell>
        <mxCell id="FaA14M1W8ghQA3k7jYmn-1" value="Başla" style="ellipse;whiteSpace=wrap;html=1;" parent="1" vertex="1">
          <mxGeometry x="170" y="110" width="120" height="80" as="geometry" />
        </mxCell>
        <mxCell id="FaA14M1W8ghQA3k7jYmn-6" style="edgeStyle=orthogonalEdgeStyle;rounded=0;orthogonalLoop=1;jettySize=auto;html=1;exitX=1;exitY=0.5;exitDx=0;exitDy=0;entryX=0.5;entryY=0;entryDx=0;entryDy=0;" parent="1" source="FaA14M1W8ghQA3k7jYmn-2" target="FaA14M1W8ghQA3k7jYmn-5" edge="1">
          <mxGeometry relative="1" as="geometry" />
        </mxCell>
        <mxCell id="FaA14M1W8ghQA3k7jYmn-8" value="Hayır" style="edgeLabel;html=1;align=center;verticalAlign=middle;resizable=0;points=[];" parent="FaA14M1W8ghQA3k7jYmn-6" vertex="1" connectable="0">
          <mxGeometry x="-0.2435" y="-1" relative="1" as="geometry">
            <mxPoint x="-52" y="-1" as="offset" />
          </mxGeometry>
        </mxCell>
        <mxCell id="FaA14M1W8ghQA3k7jYmn-7" style="edgeStyle=orthogonalEdgeStyle;rounded=0;orthogonalLoop=1;jettySize=auto;html=1;exitX=0.5;exitY=1;exitDx=0;exitDy=0;" parent="1" source="FaA14M1W8ghQA3k7jYmn-2" target="FaA14M1W8ghQA3k7jYmn-4" edge="1">
          <mxGeometry relative="1" as="geometry" />
        </mxCell>
        <mxCell id="FaA14M1W8ghQA3k7jYmn-10" value="Evet" style="edgeLabel;html=1;align=center;verticalAlign=middle;resizable=0;points=[];" parent="FaA14M1W8ghQA3k7jYmn-7" vertex="1" connectable="0">
          <mxGeometry x="-0.7455" relative="1" as="geometry">
            <mxPoint y="11" as="offset" />
          </mxGeometry>
        </mxCell>
        <mxCell id="FaA14M1W8ghQA3k7jYmn-2" value="Araba var mı&lt;br&gt;6 cm" style="rhombus;whiteSpace=wrap;html=1;" parent="1" vertex="1">
          <mxGeometry x="175" y="220" width="110" height="110" as="geometry" />
        </mxCell>
        <mxCell id="FaA14M1W8ghQA3k7jYmn-12" value="" style="edgeStyle=orthogonalEdgeStyle;rounded=0;orthogonalLoop=1;jettySize=auto;html=1;" parent="1" source="FaA14M1W8ghQA3k7jYmn-4" target="FaA14M1W8ghQA3k7jYmn-11" edge="1">
          <mxGeometry relative="1" as="geometry" />
        </mxCell>
        <mxCell id="FaA14M1W8ghQA3k7jYmn-4" value="LCD ile Kullanıcı&lt;br&gt;dan ID iste" style="shape=parallelogram;perimeter=parallelogramPerimeter;whiteSpace=wrap;html=1;fixedSize=1;" parent="1" vertex="1">
          <mxGeometry x="165" y="400" width="130" height="60" as="geometry" />
        </mxCell>
        <mxCell id="FaA14M1W8ghQA3k7jYmn-51" style="edgeStyle=orthogonalEdgeStyle;rounded=0;orthogonalLoop=1;jettySize=auto;html=1;exitX=1;exitY=0.5;exitDx=0;exitDy=0;entryX=1;entryY=0.5;entryDx=0;entryDy=0;" parent="1" source="FaA14M1W8ghQA3k7jYmn-5" target="FaA14M1W8ghQA3k7jYmn-33" edge="1">
          <mxGeometry relative="1" as="geometry">
            <mxPoint x="460" y="1160" as="targetPoint" />
          </mxGeometry>
        </mxCell>
        <mxCell id="FaA14M1W8ghQA3k7jYmn-5" value="Kapı kapalı kalsın" style="rounded=0;whiteSpace=wrap;html=1;" parent="1" vertex="1">
          <mxGeometry x="330" y="400" width="120" height="60" as="geometry" />
        </mxCell>
        <mxCell id="FaA14M1W8ghQA3k7jYmn-43" style="edgeStyle=orthogonalEdgeStyle;rounded=0;orthogonalLoop=1;jettySize=auto;html=1;exitX=0.5;exitY=1;exitDx=0;exitDy=0;entryX=0.5;entryY=0;entryDx=0;entryDy=0;" parent="1" source="FaA14M1W8ghQA3k7jYmn-11" target="FaA14M1W8ghQA3k7jYmn-36" edge="1">
          <mxGeometry relative="1" as="geometry" />
        </mxCell>
        <mxCell id="FaA14M1W8ghQA3k7jYmn-11" value="Nodemcu (Blynk)&amp;nbsp;&lt;br&gt;den ID al" style="shape=parallelogram;perimeter=parallelogramPerimeter;whiteSpace=wrap;html=1;fixedSize=1;" parent="1" vertex="1">
          <mxGeometry x="165" y="490" width="130" height="60" as="geometry" />
        </mxCell>
        <mxCell id="FaA14M1W8ghQA3k7jYmn-18" style="edgeStyle=orthogonalEdgeStyle;rounded=0;orthogonalLoop=1;jettySize=auto;html=1;exitX=0.5;exitY=1;exitDx=0;exitDy=0;entryX=0.5;entryY=0;entryDx=0;entryDy=0;" parent="1" source="FaA14M1W8ghQA3k7jYmn-13" target="FaA14M1W8ghQA3k7jYmn-15" edge="1">
          <mxGeometry relative="1" as="geometry" />
        </mxCell>
        <mxCell id="FaA14M1W8ghQA3k7jYmn-13" value="Arabaya özel ID&lt;br&gt;Tanımla" style="whiteSpace=wrap;html=1;" parent="1" vertex="1">
          <mxGeometry x="170" y="710" width="120" height="60" as="geometry" />
        </mxCell>
        <mxCell id="FaA14M1W8ghQA3k7jYmn-19" style="edgeStyle=orthogonalEdgeStyle;rounded=0;orthogonalLoop=1;jettySize=auto;html=1;exitX=0.5;exitY=1;exitDx=0;exitDy=0;entryX=0.5;entryY=0;entryDx=0;entryDy=0;" parent="1" source="FaA14M1W8ghQA3k7jYmn-15" target="FaA14M1W8ghQA3k7jYmn-20" edge="1">
          <mxGeometry relative="1" as="geometry">
            <mxPoint x="230" y="890" as="targetPoint" />
          </mxGeometry>
        </mxCell>
        <mxCell id="FaA14M1W8ghQA3k7jYmn-15" value="Kapıyı aç" style="shape=parallelogram;perimeter=parallelogramPerimeter;whiteSpace=wrap;html=1;fixedSize=1;" parent="1" vertex="1">
          <mxGeometry x="170" y="800" width="120" height="60" as="geometry" />
        </mxCell>
        <mxCell id="FaA14M1W8ghQA3k7jYmn-25" style="edgeStyle=orthogonalEdgeStyle;rounded=0;orthogonalLoop=1;jettySize=auto;html=1;exitX=0.5;exitY=1;exitDx=0;exitDy=0;entryX=0.5;entryY=0;entryDx=0;entryDy=0;" parent="1" source="FaA14M1W8ghQA3k7jYmn-20" target="FaA14M1W8ghQA3k7jYmn-24" edge="1">
          <mxGeometry relative="1" as="geometry" />
        </mxCell>
        <mxCell id="FaA14M1W8ghQA3k7jYmn-28" value="Evet" style="edgeLabel;html=1;align=center;verticalAlign=middle;resizable=0;points=[];" parent="FaA14M1W8ghQA3k7jYmn-25" vertex="1" connectable="0">
          <mxGeometry x="-0.2727" y="3" relative="1" as="geometry">
            <mxPoint as="offset" />
          </mxGeometry>
        </mxCell>
        <mxCell id="FaA14M1W8ghQA3k7jYmn-30" style="edgeStyle=orthogonalEdgeStyle;rounded=0;orthogonalLoop=1;jettySize=auto;html=1;exitX=1;exitY=0.5;exitDx=0;exitDy=0;entryX=0.5;entryY=0;entryDx=0;entryDy=0;" parent="1" source="FaA14M1W8ghQA3k7jYmn-20" target="FaA14M1W8ghQA3k7jYmn-29" edge="1">
          <mxGeometry relative="1" as="geometry" />
        </mxCell>
        <mxCell id="FaA14M1W8ghQA3k7jYmn-31" value="Hayır" style="edgeLabel;html=1;align=center;verticalAlign=middle;resizable=0;points=[];" parent="FaA14M1W8ghQA3k7jYmn-30" vertex="1" connectable="0">
          <mxGeometry x="-0.6" y="-1" relative="1" as="geometry">
            <mxPoint as="offset" />
          </mxGeometry>
        </mxCell>
        <mxCell id="FaA14M1W8ghQA3k7jYmn-20" value="Araba&lt;br&gt;Girişte?" style="rhombus;whiteSpace=wrap;html=1;" parent="1" vertex="1">
          <mxGeometry x="180" y="900" width="100" height="100" as="geometry" />
        </mxCell>
        <mxCell id="FaA14M1W8ghQA3k7jYmn-26" style="edgeStyle=orthogonalEdgeStyle;rounded=0;orthogonalLoop=1;jettySize=auto;html=1;exitX=0;exitY=0.5;exitDx=0;exitDy=0;entryX=0;entryY=0.5;entryDx=0;entryDy=0;" parent="1" source="FaA14M1W8ghQA3k7jYmn-24" target="FaA14M1W8ghQA3k7jYmn-20" edge="1">
          <mxGeometry relative="1" as="geometry">
            <Array as="points">
              <mxPoint x="150" y="1090" />
              <mxPoint x="150" y="950" />
            </Array>
          </mxGeometry>
        </mxCell>
        <mxCell id="FaA14M1W8ghQA3k7jYmn-24" value="Sesnörden&lt;br&gt;Mesafe al" style="shape=parallelogram;perimeter=parallelogramPerimeter;whiteSpace=wrap;html=1;fixedSize=1;" parent="1" vertex="1">
          <mxGeometry x="170" y="1050" width="120" height="60" as="geometry" />
        </mxCell>
        <mxCell id="FaA14M1W8ghQA3k7jYmn-34" value="" style="edgeStyle=orthogonalEdgeStyle;rounded=0;orthogonalLoop=1;jettySize=auto;html=1;" parent="1" source="FaA14M1W8ghQA3k7jYmn-29" target="FaA14M1W8ghQA3k7jYmn-33" edge="1">
          <mxGeometry relative="1" as="geometry" />
        </mxCell>
        <mxCell id="FaA14M1W8ghQA3k7jYmn-29" value="Kapıyı kapat" style="shape=parallelogram;perimeter=parallelogramPerimeter;whiteSpace=wrap;html=1;fixedSize=1;" parent="1" vertex="1">
          <mxGeometry x="300" y="1050" width="120" height="60" as="geometry" />
        </mxCell>
        <mxCell id="FaA14M1W8ghQA3k7jYmn-33" value="Bitir" style="ellipse;whiteSpace=wrap;html=1;" parent="1" vertex="1">
          <mxGeometry x="300" y="1150" width="120" height="60" as="geometry" />
        </mxCell>
        <mxCell id="FaA14M1W8ghQA3k7jYmn-40" style="edgeStyle=orthogonalEdgeStyle;rounded=0;orthogonalLoop=1;jettySize=auto;html=1;exitX=0.5;exitY=1;exitDx=0;exitDy=0;entryX=0.5;entryY=0;entryDx=0;entryDy=0;" parent="1" source="FaA14M1W8ghQA3k7jYmn-36" target="FaA14M1W8ghQA3k7jYmn-13" edge="1">
          <mxGeometry relative="1" as="geometry" />
        </mxCell>
        <mxCell id="FaA14M1W8ghQA3k7jYmn-42" value="Evet" style="edgeLabel;html=1;align=center;verticalAlign=middle;resizable=0;points=[];" parent="FaA14M1W8ghQA3k7jYmn-40" vertex="1" connectable="0">
          <mxGeometry x="-0.7025" y="2" relative="1" as="geometry">
            <mxPoint x="-2" y="8" as="offset" />
          </mxGeometry>
        </mxCell>
        <mxCell id="FaA14M1W8ghQA3k7jYmn-47" style="edgeStyle=orthogonalEdgeStyle;rounded=0;orthogonalLoop=1;jettySize=auto;html=1;exitX=1;exitY=0.5;exitDx=0;exitDy=0;entryX=1;entryY=0;entryDx=0;entryDy=0;" parent="1" source="FaA14M1W8ghQA3k7jYmn-36" target="FaA14M1W8ghQA3k7jYmn-33" edge="1">
          <mxGeometry relative="1" as="geometry">
            <Array as="points">
              <mxPoint x="430" y="625" />
              <mxPoint x="430" y="1159" />
            </Array>
          </mxGeometry>
        </mxCell>
        <mxCell id="FaA14M1W8ghQA3k7jYmn-50" value="Hayır" style="edgeLabel;html=1;align=center;verticalAlign=middle;resizable=0;points=[];" parent="FaA14M1W8ghQA3k7jYmn-47" vertex="1" connectable="0">
          <mxGeometry x="-0.9584" relative="1" as="geometry">
            <mxPoint x="10" as="offset" />
          </mxGeometry>
        </mxCell>
        <mxCell id="FaA14M1W8ghQA3k7jYmn-36" value="Araba&lt;br&gt;Girişte?" style="rhombus;whiteSpace=wrap;html=1;" parent="1" vertex="1">
          <mxGeometry x="190" y="585" width="80" height="80" as="geometry" />
        </mxCell>
      </root>
    </mxGraphModel>
  </diagram>
  <diagram id="ChWZbUehwiHb5E8sGRl6" name="Page-6">
    <mxGraphModel dx="1425" dy="743" grid="1" gridSize="10" guides="1" tooltips="1" connect="1" arrows="1" fold="1" page="1" pageScale="1" pageWidth="827" pageHeight="1169" math="0" shadow="0">
      <root>
        <mxCell id="0" />
        <mxCell id="1" parent="0" />
        <mxCell id="gMTCrShTArwpu7MjgFDP-3" style="edgeStyle=orthogonalEdgeStyle;rounded=0;orthogonalLoop=1;jettySize=auto;html=1;exitX=0.5;exitY=1;exitDx=0;exitDy=0;entryX=0.5;entryY=0;entryDx=0;entryDy=0;" parent="1" source="gMTCrShTArwpu7MjgFDP-1" target="gMTCrShTArwpu7MjgFDP-2" edge="1">
          <mxGeometry relative="1" as="geometry" />
        </mxCell>
        <mxCell id="gMTCrShTArwpu7MjgFDP-1" value="Başla" style="ellipse;whiteSpace=wrap;html=1;" parent="1" vertex="1">
          <mxGeometry x="160" y="90" width="120" height="80" as="geometry" />
        </mxCell>
        <mxCell id="gMTCrShTArwpu7MjgFDP-7" style="edgeStyle=orthogonalEdgeStyle;rounded=0;orthogonalLoop=1;jettySize=auto;html=1;exitX=0.5;exitY=1;exitDx=0;exitDy=0;entryX=0.5;entryY=0;entryDx=0;entryDy=0;" parent="1" source="gMTCrShTArwpu7MjgFDP-2" target="gMTCrShTArwpu7MjgFDP-6" edge="1">
          <mxGeometry relative="1" as="geometry" />
        </mxCell>
        <mxCell id="gMTCrShTArwpu7MjgFDP-8" value="Hayır" style="edgeLabel;html=1;align=center;verticalAlign=middle;resizable=0;points=[];" parent="gMTCrShTArwpu7MjgFDP-7" vertex="1" connectable="0">
          <mxGeometry x="0.2727" y="2" relative="1" as="geometry">
            <mxPoint x="-2" y="-12" as="offset" />
          </mxGeometry>
        </mxCell>
        <mxCell id="tciKtmmJiC3vYnW84tUn-12" style="edgeStyle=orthogonalEdgeStyle;rounded=0;orthogonalLoop=1;jettySize=auto;html=1;exitX=1;exitY=0.5;exitDx=0;exitDy=0;entryX=1;entryY=1;entryDx=0;entryDy=0;" parent="1" source="gMTCrShTArwpu7MjgFDP-2" target="tciKtmmJiC3vYnW84tUn-6" edge="1">
          <mxGeometry relative="1" as="geometry">
            <Array as="points">
              <mxPoint x="330" y="250" />
              <mxPoint x="330" y="871" />
            </Array>
          </mxGeometry>
        </mxCell>
        <mxCell id="tciKtmmJiC3vYnW84tUn-13" value="Evet" style="edgeLabel;html=1;align=center;verticalAlign=middle;resizable=0;points=[];" parent="tciKtmmJiC3vYnW84tUn-12" vertex="1" connectable="0">
          <mxGeometry x="-0.7445" relative="1" as="geometry">
            <mxPoint as="offset" />
          </mxGeometry>
        </mxCell>
        <mxCell id="gMTCrShTArwpu7MjgFDP-2" value="20 defa&lt;br&gt;kontrol edildi&lt;br&gt;mi?" style="rhombus;whiteSpace=wrap;html=1;" parent="1" vertex="1">
          <mxGeometry x="170" y="200" width="100" height="100" as="geometry" />
        </mxCell>
        <mxCell id="gMTCrShTArwpu7MjgFDP-10" value="" style="edgeStyle=orthogonalEdgeStyle;rounded=0;orthogonalLoop=1;jettySize=auto;html=1;" parent="1" source="gMTCrShTArwpu7MjgFDP-6" target="gMTCrShTArwpu7MjgFDP-9" edge="1">
          <mxGeometry relative="1" as="geometry" />
        </mxCell>
        <mxCell id="gMTCrShTArwpu7MjgFDP-6" value="Nodemcu (Blynk)&lt;br&gt;den ID al" style="shape=parallelogram;perimeter=parallelogramPerimeter;whiteSpace=wrap;html=1;fixedSize=1;" parent="1" vertex="1">
          <mxGeometry x="160" y="350" width="130" height="60" as="geometry" />
        </mxCell>
        <mxCell id="tciKtmmJiC3vYnW84tUn-2" style="edgeStyle=orthogonalEdgeStyle;rounded=0;orthogonalLoop=1;jettySize=auto;html=1;exitX=0.5;exitY=1;exitDx=0;exitDy=0;entryX=0.5;entryY=0;entryDx=0;entryDy=0;" parent="1" source="gMTCrShTArwpu7MjgFDP-9" target="tciKtmmJiC3vYnW84tUn-1" edge="1">
          <mxGeometry relative="1" as="geometry" />
        </mxCell>
        <mxCell id="gMTCrShTArwpu7MjgFDP-9" value="Haberleşme&#39;de hata&lt;br&gt;yok ise ID değişkene at" style="whiteSpace=wrap;html=1;" parent="1" vertex="1">
          <mxGeometry x="162.5" y="440" width="125" height="60" as="geometry" />
        </mxCell>
        <mxCell id="tciKtmmJiC3vYnW84tUn-4" style="edgeStyle=orthogonalEdgeStyle;rounded=0;orthogonalLoop=1;jettySize=auto;html=1;exitX=0.5;exitY=1;exitDx=0;exitDy=0;" parent="1" source="tciKtmmJiC3vYnW84tUn-1" target="tciKtmmJiC3vYnW84tUn-3" edge="1">
          <mxGeometry relative="1" as="geometry" />
        </mxCell>
        <mxCell id="tciKtmmJiC3vYnW84tUn-5" value="Evet" style="edgeLabel;html=1;align=center;verticalAlign=middle;resizable=0;points=[];" parent="tciKtmmJiC3vYnW84tUn-4" vertex="1" connectable="0">
          <mxGeometry x="0.3" relative="1" as="geometry">
            <mxPoint y="-13" as="offset" />
          </mxGeometry>
        </mxCell>
        <mxCell id="tciKtmmJiC3vYnW84tUn-9" style="edgeStyle=orthogonalEdgeStyle;rounded=0;orthogonalLoop=1;jettySize=auto;html=1;exitX=1;exitY=0.5;exitDx=0;exitDy=0;entryX=1;entryY=0.5;entryDx=0;entryDy=0;" parent="1" source="tciKtmmJiC3vYnW84tUn-1" target="tciKtmmJiC3vYnW84tUn-6" edge="1">
          <mxGeometry relative="1" as="geometry" />
        </mxCell>
        <mxCell id="tciKtmmJiC3vYnW84tUn-10" value="Hayır" style="edgeLabel;html=1;align=center;verticalAlign=middle;resizable=0;points=[];" parent="tciKtmmJiC3vYnW84tUn-9" vertex="1" connectable="0">
          <mxGeometry x="-0.5812" y="-1" relative="1" as="geometry">
            <mxPoint as="offset" />
          </mxGeometry>
        </mxCell>
        <mxCell id="tciKtmmJiC3vYnW84tUn-1" value="Araba&lt;br&gt;Girişte?" style="rhombus;whiteSpace=wrap;html=1;" parent="1" vertex="1">
          <mxGeometry x="175" y="530" width="100" height="100" as="geometry" />
        </mxCell>
        <mxCell id="tciKtmmJiC3vYnW84tUn-7" value="" style="edgeStyle=orthogonalEdgeStyle;rounded=0;orthogonalLoop=1;jettySize=auto;html=1;" parent="1" source="tciKtmmJiC3vYnW84tUn-3" target="tciKtmmJiC3vYnW84tUn-6" edge="1">
          <mxGeometry relative="1" as="geometry" />
        </mxCell>
        <mxCell id="tciKtmmJiC3vYnW84tUn-8" value="Evet" style="edgeLabel;html=1;align=center;verticalAlign=middle;resizable=0;points=[];" parent="tciKtmmJiC3vYnW84tUn-7" vertex="1" connectable="0">
          <mxGeometry x="0.6875" relative="1" as="geometry">
            <mxPoint y="-14" as="offset" />
          </mxGeometry>
        </mxCell>
        <mxCell id="tciKtmmJiC3vYnW84tUn-14" style="edgeStyle=orthogonalEdgeStyle;rounded=0;orthogonalLoop=1;jettySize=auto;html=1;exitX=0;exitY=0.5;exitDx=0;exitDy=0;entryX=0;entryY=0.5;entryDx=0;entryDy=0;" parent="1" source="tciKtmmJiC3vYnW84tUn-3" target="gMTCrShTArwpu7MjgFDP-2" edge="1">
          <mxGeometry relative="1" as="geometry">
            <Array as="points">
              <mxPoint x="120" y="730" />
              <mxPoint x="120" y="250" />
            </Array>
          </mxGeometry>
        </mxCell>
        <mxCell id="tciKtmmJiC3vYnW84tUn-15" value="Hayır" style="edgeLabel;html=1;align=center;verticalAlign=middle;resizable=0;points=[];" parent="tciKtmmJiC3vYnW84tUn-14" vertex="1" connectable="0">
          <mxGeometry x="-0.9487" y="2" relative="1" as="geometry">
            <mxPoint x="-10" y="-2" as="offset" />
          </mxGeometry>
        </mxCell>
        <mxCell id="tciKtmmJiC3vYnW84tUn-3" value="Yeni ID &lt;br&gt;alındı mı?" style="rhombus;whiteSpace=wrap;html=1;" parent="1" vertex="1">
          <mxGeometry x="175" y="680" width="100" height="100" as="geometry" />
        </mxCell>
        <mxCell id="tciKtmmJiC3vYnW84tUn-6" value="Bitir" style="ellipse;whiteSpace=wrap;html=1;" parent="1" vertex="1">
          <mxGeometry x="165" y="820" width="120" height="60" as="geometry" />
        </mxCell>
      </root>
    </mxGraphModel>
  </diagram>
  <diagram id="w2sY3eszs_kRZKKXx7wk" name="Page-7">
    <mxGraphModel dx="1425" dy="743" grid="1" gridSize="10" guides="1" tooltips="1" connect="1" arrows="1" fold="1" page="1" pageScale="1" pageWidth="827" pageHeight="1169" math="0" shadow="0">
      <root>
        <mxCell id="0" />
        <mxCell id="1" parent="0" />
        <mxCell id="7wXLEB-MubZWmeBJrGwB-3" style="edgeStyle=orthogonalEdgeStyle;rounded=0;orthogonalLoop=1;jettySize=auto;html=1;exitX=0.5;exitY=1;exitDx=0;exitDy=0;entryX=0.5;entryY=0;entryDx=0;entryDy=0;" parent="1" source="7wXLEB-MubZWmeBJrGwB-1" target="7wXLEB-MubZWmeBJrGwB-2" edge="1">
          <mxGeometry relative="1" as="geometry" />
        </mxCell>
        <mxCell id="7wXLEB-MubZWmeBJrGwB-1" value="Başla" style="ellipse;whiteSpace=wrap;html=1;" parent="1" vertex="1">
          <mxGeometry x="170" y="110" width="120" height="80" as="geometry" />
        </mxCell>
        <mxCell id="7wXLEB-MubZWmeBJrGwB-7" style="edgeStyle=orthogonalEdgeStyle;rounded=0;orthogonalLoop=1;jettySize=auto;html=1;exitX=1;exitY=0.5;exitDx=0;exitDy=0;entryX=0.5;entryY=0;entryDx=0;entryDy=0;" parent="1" source="7wXLEB-MubZWmeBJrGwB-2" target="7wXLEB-MubZWmeBJrGwB-6" edge="1">
          <mxGeometry relative="1" as="geometry" />
        </mxCell>
        <mxCell id="7wXLEB-MubZWmeBJrGwB-9" value="Hayır" style="edgeLabel;html=1;align=center;verticalAlign=middle;resizable=0;points=[];" parent="7wXLEB-MubZWmeBJrGwB-7" vertex="1" connectable="0">
          <mxGeometry x="-0.7143" y="-3" relative="1" as="geometry">
            <mxPoint x="13" y="-3" as="offset" />
          </mxGeometry>
        </mxCell>
        <mxCell id="Va05AuJkkzmyfTSDhu2I-2" value="" style="edgeStyle=orthogonalEdgeStyle;rounded=0;orthogonalLoop=1;jettySize=auto;html=1;" parent="1" source="7wXLEB-MubZWmeBJrGwB-2" target="Va05AuJkkzmyfTSDhu2I-1" edge="1">
          <mxGeometry relative="1" as="geometry" />
        </mxCell>
        <mxCell id="7wXLEB-MubZWmeBJrGwB-2" value="Kullanıcıden&lt;br&gt;ID geldi mi" style="rhombus;whiteSpace=wrap;html=1;" parent="1" vertex="1">
          <mxGeometry x="170" y="220" width="120" height="110" as="geometry" />
        </mxCell>
        <mxCell id="Va05AuJkkzmyfTSDhu2I-3" style="edgeStyle=orthogonalEdgeStyle;rounded=0;orthogonalLoop=1;jettySize=auto;html=1;exitX=0.5;exitY=1;exitDx=0;exitDy=0;entryX=1;entryY=0.5;entryDx=0;entryDy=0;" parent="1" source="7wXLEB-MubZWmeBJrGwB-6" target="Va05AuJkkzmyfTSDhu2I-1" edge="1">
          <mxGeometry relative="1" as="geometry" />
        </mxCell>
        <mxCell id="7wXLEB-MubZWmeBJrGwB-6" value="Kullanılmayan bir ID&lt;br&gt;ver" style="rounded=0;whiteSpace=wrap;html=1;" parent="1" vertex="1">
          <mxGeometry x="294" y="330" width="120" height="60" as="geometry" />
        </mxCell>
        <mxCell id="Va05AuJkkzmyfTSDhu2I-5" value="" style="edgeStyle=orthogonalEdgeStyle;rounded=0;orthogonalLoop=1;jettySize=auto;html=1;" parent="1" source="Va05AuJkkzmyfTSDhu2I-1" target="Va05AuJkkzmyfTSDhu2I-4" edge="1">
          <mxGeometry relative="1" as="geometry" />
        </mxCell>
        <mxCell id="Va05AuJkkzmyfTSDhu2I-1" value="Return (ID)" style="whiteSpace=wrap;html=1;" parent="1" vertex="1">
          <mxGeometry x="170" y="435" width="120" height="60" as="geometry" />
        </mxCell>
        <mxCell id="Va05AuJkkzmyfTSDhu2I-4" value="Bitir" style="ellipse;whiteSpace=wrap;html=1;" parent="1" vertex="1">
          <mxGeometry x="170" y="525" width="120" height="60" as="geometry" />
        </mxCell>
      </root>
    </mxGraphModel>
  </diagram>
  <diagram id="z9YcciPo5-u3YfZfW33m" name="Page-8">
    <mxGraphModel dx="1425" dy="743" grid="1" gridSize="10" guides="1" tooltips="1" connect="1" arrows="1" fold="1" page="1" pageScale="1" pageWidth="827" pageHeight="1169" math="0" shadow="0">
      <root>
        <mxCell id="0" />
        <mxCell id="1" parent="0" />
        <mxCell id="qcfdKksb2utytvruX9pm-3" style="edgeStyle=orthogonalEdgeStyle;rounded=0;orthogonalLoop=1;jettySize=auto;html=1;entryX=0.5;entryY=0;entryDx=0;entryDy=0;" parent="1" source="qcfdKksb2utytvruX9pm-1" target="qcfdKksb2utytvruX9pm-2" edge="1">
          <mxGeometry relative="1" as="geometry" />
        </mxCell>
        <mxCell id="qcfdKksb2utytvruX9pm-1" value="Başla" style="ellipse;whiteSpace=wrap;html=1;" parent="1" vertex="1">
          <mxGeometry x="150" y="130" width="120" height="80" as="geometry" />
        </mxCell>
        <mxCell id="qcfdKksb2utytvruX9pm-5" style="edgeStyle=orthogonalEdgeStyle;rounded=0;orthogonalLoop=1;jettySize=auto;html=1;exitX=0.5;exitY=1;exitDx=0;exitDy=0;entryX=0.5;entryY=0;entryDx=0;entryDy=0;" parent="1" source="qcfdKksb2utytvruX9pm-2" target="qcfdKksb2utytvruX9pm-4" edge="1">
          <mxGeometry relative="1" as="geometry" />
        </mxCell>
        <mxCell id="qcfdKksb2utytvruX9pm-6" value="Evet" style="edgeLabel;html=1;align=center;verticalAlign=middle;resizable=0;points=[];" parent="qcfdKksb2utytvruX9pm-5" vertex="1" connectable="0">
          <mxGeometry x="0.2824" relative="1" as="geometry">
            <mxPoint y="-12" as="offset" />
          </mxGeometry>
        </mxCell>
        <mxCell id="qcfdKksb2utytvruX9pm-10" style="edgeStyle=orthogonalEdgeStyle;rounded=0;orthogonalLoop=1;jettySize=auto;html=1;exitX=1;exitY=0.5;exitDx=0;exitDy=0;entryX=0.5;entryY=0;entryDx=0;entryDy=0;" parent="1" source="qcfdKksb2utytvruX9pm-2" target="qcfdKksb2utytvruX9pm-9" edge="1">
          <mxGeometry relative="1" as="geometry" />
        </mxCell>
        <mxCell id="qcfdKksb2utytvruX9pm-20" value="Hayır" style="edgeLabel;html=1;align=center;verticalAlign=middle;resizable=0;points=[];" parent="qcfdKksb2utytvruX9pm-10" vertex="1" connectable="0">
          <mxGeometry x="-0.6309" relative="1" as="geometry">
            <mxPoint x="1" as="offset" />
          </mxGeometry>
        </mxCell>
        <mxCell id="qcfdKksb2utytvruX9pm-2" value="Kapı&lt;br&gt;hala kapalı?&lt;br&gt;&amp;lt;=90?" style="rhombus;whiteSpace=wrap;html=1;" parent="1" vertex="1">
          <mxGeometry x="157.5" y="240" width="105" height="100" as="geometry" />
        </mxCell>
        <mxCell id="qcfdKksb2utytvruX9pm-7" style="edgeStyle=orthogonalEdgeStyle;rounded=0;orthogonalLoop=1;jettySize=auto;html=1;exitX=0;exitY=0.5;exitDx=0;exitDy=0;entryX=0;entryY=0.5;entryDx=0;entryDy=0;" parent="1" source="qcfdKksb2utytvruX9pm-4" target="qcfdKksb2utytvruX9pm-2" edge="1">
          <mxGeometry relative="1" as="geometry">
            <Array as="points">
              <mxPoint x="130" y="420" />
              <mxPoint x="130" y="290" />
            </Array>
          </mxGeometry>
        </mxCell>
        <mxCell id="qcfdKksb2utytvruX9pm-4" value="Servo&#39;yu bir +&lt;br&gt;derece hareket&lt;br&gt;ettir" style="shape=parallelogram;perimeter=parallelogramPerimeter;whiteSpace=wrap;html=1;fixedSize=1;" parent="1" vertex="1">
          <mxGeometry x="150" y="390" width="120" height="60" as="geometry" />
        </mxCell>
        <mxCell id="qcfdKksb2utytvruX9pm-9" value="Bitir" style="ellipse;whiteSpace=wrap;html=1;" parent="1" vertex="1">
          <mxGeometry x="294" y="380" width="120" height="80" as="geometry" />
        </mxCell>
        <mxCell id="qcfdKksb2utytvruX9pm-21" style="edgeStyle=orthogonalEdgeStyle;rounded=0;orthogonalLoop=1;jettySize=auto;html=1;entryX=0.5;entryY=0;entryDx=0;entryDy=0;" parent="1" source="qcfdKksb2utytvruX9pm-22" target="qcfdKksb2utytvruX9pm-27" edge="1">
          <mxGeometry relative="1" as="geometry" />
        </mxCell>
        <mxCell id="qcfdKksb2utytvruX9pm-22" value="Başla" style="ellipse;whiteSpace=wrap;html=1;" parent="1" vertex="1">
          <mxGeometry x="150" y="480" width="120" height="80" as="geometry" />
        </mxCell>
        <mxCell id="qcfdKksb2utytvruX9pm-23" style="edgeStyle=orthogonalEdgeStyle;rounded=0;orthogonalLoop=1;jettySize=auto;html=1;exitX=0.5;exitY=1;exitDx=0;exitDy=0;entryX=0.5;entryY=0;entryDx=0;entryDy=0;" parent="1" source="qcfdKksb2utytvruX9pm-27" target="qcfdKksb2utytvruX9pm-29" edge="1">
          <mxGeometry relative="1" as="geometry" />
        </mxCell>
        <mxCell id="qcfdKksb2utytvruX9pm-24" value="Evet" style="edgeLabel;html=1;align=center;verticalAlign=middle;resizable=0;points=[];" parent="qcfdKksb2utytvruX9pm-23" vertex="1" connectable="0">
          <mxGeometry x="0.2824" relative="1" as="geometry">
            <mxPoint y="-12" as="offset" />
          </mxGeometry>
        </mxCell>
        <mxCell id="qcfdKksb2utytvruX9pm-25" style="edgeStyle=orthogonalEdgeStyle;rounded=0;orthogonalLoop=1;jettySize=auto;html=1;exitX=1;exitY=0.5;exitDx=0;exitDy=0;entryX=0.5;entryY=0;entryDx=0;entryDy=0;" parent="1" source="qcfdKksb2utytvruX9pm-27" target="qcfdKksb2utytvruX9pm-30" edge="1">
          <mxGeometry relative="1" as="geometry" />
        </mxCell>
        <mxCell id="qcfdKksb2utytvruX9pm-26" value="Hayır" style="edgeLabel;html=1;align=center;verticalAlign=middle;resizable=0;points=[];" parent="qcfdKksb2utytvruX9pm-25" vertex="1" connectable="0">
          <mxGeometry x="-0.6309" relative="1" as="geometry">
            <mxPoint x="1" as="offset" />
          </mxGeometry>
        </mxCell>
        <mxCell id="qcfdKksb2utytvruX9pm-27" value="Kapı&lt;br&gt;hala açık?&lt;br&gt;&amp;gt;=0?" style="rhombus;whiteSpace=wrap;html=1;" parent="1" vertex="1">
          <mxGeometry x="157.5" y="590" width="105" height="100" as="geometry" />
        </mxCell>
        <mxCell id="qcfdKksb2utytvruX9pm-28" style="edgeStyle=orthogonalEdgeStyle;rounded=0;orthogonalLoop=1;jettySize=auto;html=1;exitX=0;exitY=0.5;exitDx=0;exitDy=0;entryX=0;entryY=0.5;entryDx=0;entryDy=0;" parent="1" source="qcfdKksb2utytvruX9pm-29" target="qcfdKksb2utytvruX9pm-27" edge="1">
          <mxGeometry relative="1" as="geometry">
            <Array as="points">
              <mxPoint x="130" y="770" />
              <mxPoint x="130" y="640" />
            </Array>
          </mxGeometry>
        </mxCell>
        <mxCell id="qcfdKksb2utytvruX9pm-29" value="Servo&#39;yu bir -&lt;br&gt;derece hareket&lt;br&gt;ettir" style="shape=parallelogram;perimeter=parallelogramPerimeter;whiteSpace=wrap;html=1;fixedSize=1;" parent="1" vertex="1">
          <mxGeometry x="150" y="740" width="120" height="60" as="geometry" />
        </mxCell>
        <mxCell id="qcfdKksb2utytvruX9pm-30" value="Bitir" style="ellipse;whiteSpace=wrap;html=1;" parent="1" vertex="1">
          <mxGeometry x="294" y="730" width="120" height="80" as="geometry" />
        </mxCell>
      </root>
    </mxGraphModel>
  </diagram>
  <diagram id="977kUFTPRDkvLWNmHmy7" name="Page-9">
    <mxGraphModel dx="1050" dy="603" grid="1" gridSize="10" guides="1" tooltips="1" connect="1" arrows="1" fold="1" page="1" pageScale="1" pageWidth="827" pageHeight="1169" math="0" shadow="0">
      <root>
        <mxCell id="0" />
        <mxCell id="1" parent="0" />
        <mxCell id="hqXrmsuOSyO4xWd2_vaP-16" style="edgeStyle=orthogonalEdgeStyle;rounded=0;orthogonalLoop=1;jettySize=auto;html=1;entryX=0.5;entryY=0;entryDx=0;entryDy=0;" parent="1" source="hqXrmsuOSyO4xWd2_vaP-1" target="hqXrmsuOSyO4xWd2_vaP-2" edge="1">
          <mxGeometry relative="1" as="geometry" />
        </mxCell>
        <mxCell id="hqXrmsuOSyO4xWd2_vaP-1" value="Başla" style="ellipse;whiteSpace=wrap;html=1;" parent="1" vertex="1">
          <mxGeometry x="160" y="110" width="120" height="80" as="geometry" />
        </mxCell>
        <mxCell id="hqXrmsuOSyO4xWd2_vaP-4" value="" style="edgeStyle=orthogonalEdgeStyle;rounded=0;orthogonalLoop=1;jettySize=auto;html=1;" parent="1" source="hqXrmsuOSyO4xWd2_vaP-2" target="hqXrmsuOSyO4xWd2_vaP-3" edge="1">
          <mxGeometry relative="1" as="geometry" />
        </mxCell>
        <mxCell id="hqXrmsuOSyO4xWd2_vaP-18" value="Evet" style="edgeLabel;html=1;align=center;verticalAlign=middle;resizable=0;points=[];" parent="hqXrmsuOSyO4xWd2_vaP-4" vertex="1" connectable="0">
          <mxGeometry x="0.713" y="3" relative="1" as="geometry">
            <mxPoint x="-3" y="-21" as="offset" />
          </mxGeometry>
        </mxCell>
        <mxCell id="hqXrmsuOSyO4xWd2_vaP-19" style="edgeStyle=orthogonalEdgeStyle;rounded=0;orthogonalLoop=1;jettySize=auto;html=1;exitX=1;exitY=0.5;exitDx=0;exitDy=0;entryX=1;entryY=0.5;entryDx=0;entryDy=0;" parent="1" source="hqXrmsuOSyO4xWd2_vaP-2" target="hqXrmsuOSyO4xWd2_vaP-8" edge="1">
          <mxGeometry relative="1" as="geometry">
            <mxPoint x="285" y="700" as="targetPoint" />
            <Array as="points">
              <mxPoint x="440" y="280" />
              <mxPoint x="440" y="710" />
            </Array>
          </mxGeometry>
        </mxCell>
        <mxCell id="hqXrmsuOSyO4xWd2_vaP-20" value="Hayır" style="edgeLabel;html=1;align=center;verticalAlign=middle;resizable=0;points=[];" parent="hqXrmsuOSyO4xWd2_vaP-19" vertex="1" connectable="0">
          <mxGeometry x="-0.9041" y="2" relative="1" as="geometry">
            <mxPoint as="offset" />
          </mxGeometry>
        </mxCell>
        <mxCell id="hqXrmsuOSyO4xWd2_vaP-2" value="Park noktasında&lt;br&gt;değişim var mı" style="rhombus;whiteSpace=wrap;html=1;" parent="1" vertex="1">
          <mxGeometry x="155" y="220" width="130" height="120" as="geometry" />
        </mxCell>
        <mxCell id="hqXrmsuOSyO4xWd2_vaP-6" value="" style="edgeStyle=orthogonalEdgeStyle;rounded=0;orthogonalLoop=1;jettySize=auto;html=1;" parent="1" source="hqXrmsuOSyO4xWd2_vaP-3" target="hqXrmsuOSyO4xWd2_vaP-5" edge="1">
          <mxGeometry relative="1" as="geometry" />
        </mxCell>
        <mxCell id="hqXrmsuOSyO4xWd2_vaP-7" value="Dolu" style="edgeLabel;html=1;align=center;verticalAlign=middle;resizable=0;points=[];" parent="hqXrmsuOSyO4xWd2_vaP-6" vertex="1" connectable="0">
          <mxGeometry x="-0.65" y="2" relative="1" as="geometry">
            <mxPoint x="-2" y="11" as="offset" />
          </mxGeometry>
        </mxCell>
        <mxCell id="hqXrmsuOSyO4xWd2_vaP-13" style="edgeStyle=orthogonalEdgeStyle;rounded=0;orthogonalLoop=1;jettySize=auto;html=1;exitX=1;exitY=0.5;exitDx=0;exitDy=0;entryX=0.5;entryY=0;entryDx=0;entryDy=0;" parent="1" source="hqXrmsuOSyO4xWd2_vaP-3" target="hqXrmsuOSyO4xWd2_vaP-12" edge="1">
          <mxGeometry relative="1" as="geometry" />
        </mxCell>
        <mxCell id="hqXrmsuOSyO4xWd2_vaP-14" value="Boş" style="edgeLabel;html=1;align=center;verticalAlign=middle;resizable=0;points=[];" parent="hqXrmsuOSyO4xWd2_vaP-13" vertex="1" connectable="0">
          <mxGeometry x="-0.7128" y="-1" relative="1" as="geometry">
            <mxPoint as="offset" />
          </mxGeometry>
        </mxCell>
        <mxCell id="hqXrmsuOSyO4xWd2_vaP-3" value="Boş mu oldu?&amp;nbsp;&lt;br&gt;dolu mu?" style="rhombus;whiteSpace=wrap;html=1;" parent="1" vertex="1">
          <mxGeometry x="155" y="400" width="130" height="120" as="geometry" />
        </mxCell>
        <mxCell id="hqXrmsuOSyO4xWd2_vaP-9" value="" style="edgeStyle=orthogonalEdgeStyle;rounded=0;orthogonalLoop=1;jettySize=auto;html=1;" parent="1" source="hqXrmsuOSyO4xWd2_vaP-5" target="hqXrmsuOSyO4xWd2_vaP-8" edge="1">
          <mxGeometry relative="1" as="geometry" />
        </mxCell>
        <mxCell id="hqXrmsuOSyO4xWd2_vaP-5" value="tanımlanan ID &lt;br&gt;ile ilişkilendir" style="whiteSpace=wrap;html=1;" parent="1" vertex="1">
          <mxGeometry x="160" y="570" width="120" height="60" as="geometry" />
        </mxCell>
        <mxCell id="hqXrmsuOSyO4xWd2_vaP-8" value="Bitir" style="ellipse;whiteSpace=wrap;html=1;" parent="1" vertex="1">
          <mxGeometry x="160" y="680" width="120" height="60" as="geometry" />
        </mxCell>
        <mxCell id="hqXrmsuOSyO4xWd2_vaP-15" style="edgeStyle=orthogonalEdgeStyle;rounded=0;orthogonalLoop=1;jettySize=auto;html=1;entryX=1;entryY=0;entryDx=0;entryDy=0;" parent="1" source="hqXrmsuOSyO4xWd2_vaP-12" target="hqXrmsuOSyO4xWd2_vaP-8" edge="1">
          <mxGeometry relative="1" as="geometry">
            <Array as="points">
              <mxPoint x="370" y="670" />
              <mxPoint x="262" y="670" />
            </Array>
          </mxGeometry>
        </mxCell>
        <mxCell id="hqXrmsuOSyO4xWd2_vaP-12" value="ID si sil" style="rounded=0;whiteSpace=wrap;html=1;" parent="1" vertex="1">
          <mxGeometry x="310" y="570" width="120" height="60" as="geometry" />
        </mxCell>
      </root>
    </mxGraphModel>
  </diagram>
  <diagram id="nE0snvdgenrz_EbZIPnk" name="Page-10">
    <mxGraphModel dx="1425" dy="743" grid="1" gridSize="10" guides="1" tooltips="1" connect="1" arrows="1" fold="1" page="1" pageScale="1" pageWidth="827" pageHeight="1169" math="0" shadow="0">
      <root>
        <mxCell id="0" />
        <mxCell id="1" parent="0" />
        <mxCell id="TRQ2lHx5_NqboGQzGH3s-3" style="edgeStyle=orthogonalEdgeStyle;rounded=0;orthogonalLoop=1;jettySize=auto;html=1;exitX=0.5;exitY=1;exitDx=0;exitDy=0;entryX=0.5;entryY=0;entryDx=0;entryDy=0;" parent="1" source="TRQ2lHx5_NqboGQzGH3s-1" target="TRQ2lHx5_NqboGQzGH3s-2" edge="1">
          <mxGeometry relative="1" as="geometry" />
        </mxCell>
        <mxCell id="TRQ2lHx5_NqboGQzGH3s-1" value="Başla" style="ellipse;whiteSpace=wrap;html=1;" parent="1" vertex="1">
          <mxGeometry x="240" y="100" width="120" height="80" as="geometry" />
        </mxCell>
        <mxCell id="TRQ2lHx5_NqboGQzGH3s-5" style="edgeStyle=orthogonalEdgeStyle;rounded=0;orthogonalLoop=1;jettySize=auto;html=1;exitX=0.5;exitY=1;exitDx=0;exitDy=0;entryX=0.5;entryY=0;entryDx=0;entryDy=0;" parent="1" source="TRQ2lHx5_NqboGQzGH3s-2" target="TRQ2lHx5_NqboGQzGH3s-4" edge="1">
          <mxGeometry relative="1" as="geometry" />
        </mxCell>
        <mxCell id="TRQ2lHx5_NqboGQzGH3s-2" value="Arduino&#39;dan&amp;nbsp;&lt;br&gt;IDleri Al" style="shape=parallelogram;perimeter=parallelogramPerimeter;whiteSpace=wrap;html=1;fixedSize=1;" parent="1" vertex="1">
          <mxGeometry x="240" y="210" width="120" height="60" as="geometry" />
        </mxCell>
        <mxCell id="TRQ2lHx5_NqboGQzGH3s-9" style="edgeStyle=orthogonalEdgeStyle;rounded=0;orthogonalLoop=1;jettySize=auto;html=1;exitX=0.5;exitY=1;exitDx=0;exitDy=0;entryX=0.5;entryY=0;entryDx=0;entryDy=0;" parent="1" source="TRQ2lHx5_NqboGQzGH3s-4" target="TRQ2lHx5_NqboGQzGH3s-8" edge="1">
          <mxGeometry relative="1" as="geometry" />
        </mxCell>
        <mxCell id="TRQ2lHx5_NqboGQzGH3s-4" value="hata yok ise IDleri kaydet" style="rounded=0;whiteSpace=wrap;html=1;" parent="1" vertex="1">
          <mxGeometry x="240" y="300" width="120" height="60" as="geometry" />
        </mxCell>
        <mxCell id="TRQ2lHx5_NqboGQzGH3s-10" style="edgeStyle=orthogonalEdgeStyle;rounded=0;orthogonalLoop=1;jettySize=auto;html=1;exitX=0;exitY=0.5;exitDx=0;exitDy=0;entryX=0;entryY=0.25;entryDx=0;entryDy=0;" parent="1" source="TRQ2lHx5_NqboGQzGH3s-8" target="TRQ2lHx5_NqboGQzGH3s-2" edge="1">
          <mxGeometry relative="1" as="geometry">
            <Array as="points">
              <mxPoint x="210" y="420" />
              <mxPoint x="210" y="229" />
            </Array>
          </mxGeometry>
        </mxCell>
        <mxCell id="TRQ2lHx5_NqboGQzGH3s-8" value="Hata yok ise&lt;br&gt;Blynke IDleri&lt;br&gt;gönder" style="shape=parallelogram;perimeter=parallelogramPerimeter;whiteSpace=wrap;html=1;fixedSize=1;" parent="1" vertex="1">
          <mxGeometry x="240" y="390" width="120" height="60" as="geometry" />
        </mxCell>
        <mxCell id="TRQ2lHx5_NqboGQzGH3s-15" style="edgeStyle=orthogonalEdgeStyle;rounded=0;orthogonalLoop=1;jettySize=auto;html=1;exitX=0.5;exitY=1;exitDx=0;exitDy=0;entryX=0.5;entryY=0;entryDx=0;entryDy=0;" parent="1" source="TRQ2lHx5_NqboGQzGH3s-11" target="TRQ2lHx5_NqboGQzGH3s-14" edge="1">
          <mxGeometry relative="1" as="geometry" />
        </mxCell>
        <mxCell id="TRQ2lHx5_NqboGQzGH3s-11" value="Başla" style="ellipse;whiteSpace=wrap;html=1;" parent="1" vertex="1">
          <mxGeometry x="240" y="490" width="120" height="80" as="geometry" />
        </mxCell>
        <mxCell id="TRQ2lHx5_NqboGQzGH3s-17" value="" style="edgeStyle=orthogonalEdgeStyle;rounded=0;orthogonalLoop=1;jettySize=auto;html=1;" parent="1" source="TRQ2lHx5_NqboGQzGH3s-14" target="TRQ2lHx5_NqboGQzGH3s-16" edge="1">
          <mxGeometry relative="1" as="geometry" />
        </mxCell>
        <mxCell id="TRQ2lHx5_NqboGQzGH3s-14" value="Blynk&#39;ten bir&amp;nbsp;&lt;br&gt;ID gelene&lt;br&gt;kadar bekle" style="shape=parallelogram;perimeter=parallelogramPerimeter;whiteSpace=wrap;html=1;fixedSize=1;" parent="1" vertex="1">
          <mxGeometry x="240" y="600" width="120" height="60" as="geometry" />
        </mxCell>
        <mxCell id="TRQ2lHx5_NqboGQzGH3s-19" style="edgeStyle=orthogonalEdgeStyle;rounded=0;orthogonalLoop=1;jettySize=auto;html=1;exitX=0.5;exitY=1;exitDx=0;exitDy=0;entryX=0.5;entryY=0;entryDx=0;entryDy=0;" parent="1" source="TRQ2lHx5_NqboGQzGH3s-16" target="TRQ2lHx5_NqboGQzGH3s-18" edge="1">
          <mxGeometry relative="1" as="geometry" />
        </mxCell>
        <mxCell id="TRQ2lHx5_NqboGQzGH3s-22" style="edgeStyle=orthogonalEdgeStyle;rounded=0;orthogonalLoop=1;jettySize=auto;html=1;exitX=1;exitY=0.5;exitDx=0;exitDy=0;entryX=0.5;entryY=0;entryDx=0;entryDy=0;" parent="1" source="TRQ2lHx5_NqboGQzGH3s-16" target="TRQ2lHx5_NqboGQzGH3s-20" edge="1">
          <mxGeometry relative="1" as="geometry" />
        </mxCell>
        <mxCell id="TRQ2lHx5_NqboGQzGH3s-16" value="Yeni ID mi" style="rhombus;whiteSpace=wrap;html=1;" parent="1" vertex="1">
          <mxGeometry x="260" y="690" width="80" height="80" as="geometry" />
        </mxCell>
        <mxCell id="TRQ2lHx5_NqboGQzGH3s-27" style="edgeStyle=orthogonalEdgeStyle;rounded=0;orthogonalLoop=1;jettySize=auto;html=1;exitX=0;exitY=0.5;exitDx=0;exitDy=0;entryX=0;entryY=0.5;entryDx=0;entryDy=0;" parent="1" source="TRQ2lHx5_NqboGQzGH3s-18" target="TRQ2lHx5_NqboGQzGH3s-14" edge="1">
          <mxGeometry relative="1" as="geometry">
            <Array as="points">
              <mxPoint x="200" y="830" />
              <mxPoint x="200" y="630" />
            </Array>
          </mxGeometry>
        </mxCell>
        <mxCell id="TRQ2lHx5_NqboGQzGH3s-18" value="Arduinon&#39;e &lt;br&gt;gönder" style="shape=parallelogram;perimeter=parallelogramPerimeter;whiteSpace=wrap;html=1;fixedSize=1;" parent="1" vertex="1">
          <mxGeometry x="240" y="800" width="120" height="60" as="geometry" />
        </mxCell>
        <mxCell id="TRQ2lHx5_NqboGQzGH3s-28" style="edgeStyle=orthogonalEdgeStyle;rounded=0;orthogonalLoop=1;jettySize=auto;html=1;exitX=0.75;exitY=0;exitDx=0;exitDy=0;entryX=1;entryY=0.5;entryDx=0;entryDy=0;" parent="1" source="TRQ2lHx5_NqboGQzGH3s-20" target="TRQ2lHx5_NqboGQzGH3s-14" edge="1">
          <mxGeometry relative="1" as="geometry">
            <Array as="points">
              <mxPoint x="460" y="630" />
            </Array>
          </mxGeometry>
        </mxCell>
        <mxCell id="TRQ2lHx5_NqboGQzGH3s-20" value="Hangi parkta olduğunu&lt;br&gt;kullanıcıyı yaz&lt;br&gt;Blynk" style="shape=parallelogram;perimeter=parallelogramPerimeter;whiteSpace=wrap;html=1;fixedSize=1;" parent="1" vertex="1">
          <mxGeometry x="370" y="800" width="120" height="60" as="geometry" />
        </mxCell>
      </root>
    </mxGraphModel>
  </diagram>
  <diagram id="cNATKOAd5EiwtieiVUCZ" name="Page-11">
    <mxGraphModel dx="1050" dy="603" grid="1" gridSize="10" guides="1" tooltips="1" connect="1" arrows="1" fold="1" page="1" pageScale="1" pageWidth="827" pageHeight="1169" math="0" shadow="0">
      <root>
        <mxCell id="0" />
        <mxCell id="1" parent="0" />
        <mxCell id="-sE3qYrtUwZZlPVzAe-D-6" value="" style="edgeStyle=orthogonalEdgeStyle;rounded=0;orthogonalLoop=1;jettySize=auto;html=1;" parent="1" source="-sE3qYrtUwZZlPVzAe-D-1" target="-sE3qYrtUwZZlPVzAe-D-5" edge="1">
          <mxGeometry relative="1" as="geometry" />
        </mxCell>
        <mxCell id="-sE3qYrtUwZZlPVzAe-D-12" style="edgeStyle=orthogonalEdgeStyle;rounded=0;orthogonalLoop=1;jettySize=auto;html=1;exitX=0.5;exitY=0;exitDx=0;exitDy=0;entryX=0.5;entryY=1;entryDx=0;entryDy=0;" parent="1" source="-sE3qYrtUwZZlPVzAe-D-1" target="-sE3qYrtUwZZlPVzAe-D-11" edge="1">
          <mxGeometry relative="1" as="geometry" />
        </mxCell>
        <mxCell id="-sE3qYrtUwZZlPVzAe-D-1" value="Control Unit" style="whiteSpace=wrap;html=1;aspect=fixed;fillColor=#f5f5f5;fontColor=#333333;strokeColor=#666666;" parent="1" vertex="1">
          <mxGeometry x="410" y="180" width="100" height="100" as="geometry" />
        </mxCell>
        <mxCell id="-sE3qYrtUwZZlPVzAe-D-4" style="edgeStyle=orthogonalEdgeStyle;rounded=0;orthogonalLoop=1;jettySize=auto;html=1;exitX=1;exitY=0.5;exitDx=0;exitDy=0;entryX=0;entryY=0.5;entryDx=0;entryDy=0;" parent="1" source="-sE3qYrtUwZZlPVzAe-D-3" target="-sE3qYrtUwZZlPVzAe-D-1" edge="1">
          <mxGeometry relative="1" as="geometry" />
        </mxCell>
        <mxCell id="-sE3qYrtUwZZlPVzAe-D-3" value="Sensors" style="rounded=0;whiteSpace=wrap;html=1;fillColor=#f9f7ed;strokeColor=#36393d;" parent="1" vertex="1">
          <mxGeometry x="290" y="210" width="90" height="40" as="geometry" />
        </mxCell>
        <mxCell id="-sE3qYrtUwZZlPVzAe-D-20" style="edgeStyle=orthogonalEdgeStyle;rounded=0;orthogonalLoop=1;jettySize=auto;html=1;exitX=0.5;exitY=1;exitDx=0;exitDy=0;" parent="1" source="-sE3qYrtUwZZlPVzAe-D-5" edge="1">
          <mxGeometry relative="1" as="geometry">
            <mxPoint x="580" y="290" as="targetPoint" />
          </mxGeometry>
        </mxCell>
        <mxCell id="-sE3qYrtUwZZlPVzAe-D-5" value="Indicators" style="whiteSpace=wrap;html=1;fillColor=#f9f7ed;strokeColor=#36393d;" parent="1" vertex="1">
          <mxGeometry x="540" y="210" width="80" height="40" as="geometry" />
        </mxCell>
        <mxCell id="-sE3qYrtUwZZlPVzAe-D-11" value="Actuator" style="whiteSpace=wrap;html=1;fillColor=#f9f7ed;strokeColor=#36393d;" parent="1" vertex="1">
          <mxGeometry x="420" y="110" width="80" height="40" as="geometry" />
        </mxCell>
        <mxCell id="-sE3qYrtUwZZlPVzAe-D-13" value="IoT platform" style="whiteSpace=wrap;html=1;aspect=fixed;fillColor=#f9f7ed;strokeColor=#36393d;" parent="1" vertex="1">
          <mxGeometry x="430" y="320" width="60" height="60" as="geometry" />
        </mxCell>
        <mxCell id="-sE3qYrtUwZZlPVzAe-D-14" value="" style="endArrow=classic;startArrow=classic;html=1;rounded=0;exitX=0.5;exitY=0;exitDx=0;exitDy=0;entryX=0.5;entryY=1;entryDx=0;entryDy=0;" parent="1" source="-sE3qYrtUwZZlPVzAe-D-13" target="-sE3qYrtUwZZlPVzAe-D-1" edge="1">
          <mxGeometry width="50" height="50" relative="1" as="geometry">
            <mxPoint x="430" y="330" as="sourcePoint" />
            <mxPoint x="480" y="280" as="targetPoint" />
          </mxGeometry>
        </mxCell>
        <mxCell id="-sE3qYrtUwZZlPVzAe-D-16" value="Driver" style="shape=umlActor;verticalLabelPosition=bottom;verticalAlign=top;html=1;outlineConnect=0;strokeWidth=2;" parent="1" vertex="1">
          <mxGeometry x="565" y="310" width="30" height="60" as="geometry" />
        </mxCell>
        <mxCell id="-sE3qYrtUwZZlPVzAe-D-21" value="" style="endArrow=classic;startArrow=classic;html=1;rounded=0;exitX=1;exitY=0.5;exitDx=0;exitDy=0;" parent="1" source="-sE3qYrtUwZZlPVzAe-D-13" edge="1">
          <mxGeometry width="50" height="50" relative="1" as="geometry">
            <mxPoint x="430" y="500" as="sourcePoint" />
            <mxPoint x="560" y="350" as="targetPoint" />
          </mxGeometry>
        </mxCell>
        <mxCell id="-sE3qYrtUwZZlPVzAe-D-23" value="" style="shape=image;verticalLabelPosition=bottom;verticalAlign=top;imageAspect=0;aspect=fixed;image=data:image/png,iVBORw0KGgoAAAANSUhEUgAAAgAAAAIACAYAAAD0eNT6AAAABHNCSVQICAgIfAhkiAAAAAlwSFlzAAAOxAAADsQBlSsOGwAAABl0RVh0U29mdHdhcmUAd3d3Lmlua3NjYXBlLm9yZ5vuPBoAACAASURBVHic7d15vBxVmfDxX3YgkIQlLGELSwIGQRHwVRQEYRAFFcWgKLivjL64MCozzoiOzqjvjLso6jjgrvgqiLih4o6DC7ITkDUQwLAlJITs88fTbS6X3Hu765xauvv3/Xyez2Uy3qqn6nadOl11znlAkiRJkiRJkiRJkiRJkiRJkiRJkiRJkiRJkiRJkiRJkiRJkiRJkiRJkiRJkiRJkiRJkiRJkiRJkiRJkiRJkiRJkiRJkiRJkiRJkiRJkiRJkiRJkiRJkiRJkiRJkiRJkiRJkiRJkiRJkiRJkiRJkiRJkiRJkiRJkiRJkiRJkiRJkiRJkiRJkiRJkiRJkiRJkiRJkiRJkiRJkiRJkiRJkiRJkiRJkiRJkiRJkiRJkiRJkiRJkiRJkiRJkiRJkiRJkiRJkiRJkiRJkiRJkiRJkiRJkiRJkiRJkiRJkiRJkiRJkiRJkiRJkiRJkiRJkiRJkiRJkiRJkiRJkiRJkiRJkiRJkiRJkiRJkiRJkiRJkiRJkiRJkiRJkiRJkiRJkiRJkiRJkiRJkiRJkiRJkiRJkiRJkiRJkiRJkiRJkiRJkiRJkiRJkiRJkiRJkiRJkiRJkiRJkiRJkiRJkiRJkiRJkiRJkiRJkiRJkiRJkiRJkiRJkiRJkiRJkiRJkiRJkiRJkiRJkiRJkiRJkiRJkiRJkiRJkiRJkiRJkiRJkiRJkiRJkiRJkiRJkiRJkiRJkiRJkiRJkiRJkiRJkiRJkiRJkiRJkiRJkiRJkiRJkiRJkiRJkiRJkiRJkiRJkiRJkqTeM67uBKQRbA5sD2wLzGz99wxgGjAB2BTYpPXf02rKsZesBx4A1gJLgTXAg8AqYBlwN3AHsAi4q/W/l9TH7ACoLpOA2cAcYG7r5xxgD+Jmv1ltmWk10QlYSHQKFgJXA1e0fq6oLzVJudgBUBU2A/YHDgQOAg4gbvST6kxKhawF/kJ0Bq4ArgT+RHQSJPUQOwAqw67AEcDBxE1/H2BirRmpbDcCFwM/b/1cVGs2ksZkB0A5bAkcDhzZijn1pqMGWMCGDsGPgftrzUbSo9gBUFGPAV4APBt4AjEYT9qYVcBPgW8B5wP31puOJLADoO7sAxxL3PSfUnMu6k1rgd8B5wLfIAYbSpIaaDbwHuBaYmqYYeSKNcAPgefjGBFJaoTJxLf8bxKNdN03CqP/YxHwAWAXJEmVm0s0wndT/w3BGMxYC1xEdEB9RSlJJTsM+AGwjvpvAIbRjuuAl+PrAUnKajzxLeu31N/QG8ZocQtwKjAFSVJhk4FXEd+u6m7YDaObuBl4DfEZliR1aApwCnAb9TfkhpEStwCvw1cDkjSqycBLiaVa6264DSNnXAccjaRCHGXbv6YQj/rfCexccy5FLSOKzNxOTBN7AHi49e+ribK2a2n2MrMvB55V8HfPBr6fLZMopzx+yM/pRAdxB2AnYEdgFr33rv1c4DTi6ZakDvkIrf/02o1/MVFV7nLgGuJm377pL60xr1wOpngH4HLi5la17YiOwK7AY4H9gH2JGg9NXPJ5PnAMMYX1/xGdREkaGL3wjv8G4MvA24FnEN88+91HKH6+3lxDvqPZlCjl/ArgTKLDVvdnanjcBDy3rBMgSU3S5Hf8dxKrCb6WWFJ4EPVTB2BjtiW+gX8M+APNWUviAnrjCZgkda2p3/hvJG74lgQO/d4BGG4n4O+JUsB1LyO9hLhGxpd6xJJUkSZ/419PvIfVBoPWARhqa+KzegFREriuz+RviEqWktSTmvqNf3j4/vWRBrkDMNRM4I3AVdTzuVxJVLXstRkOkgZY07/xD411xDthbWAH4NEOAM4CHqL6z+gNwNPLP0RJKq5XvvEPb1z1SHYARrYtcDqxsl/VHdXPEOsgSFJj9NI3/uFxdv7T0fPsAIxtPDGTYAHVfl7vJK41SapVL9/42/G67Gel99kB6Fy7I1B1oSqnDEqqRVMe9V9LrKKWso39Mp+bfmAHoHsTgJOotiPglEFJlWnKN/72vP2JRM31lAa0icvE1s0OQHETic/mYqq7HpwyKKk0Tbzxt309YXs/zHN6+o4dgHRbESsNVrWw0CpiPQunDErKosk3/raU1xDvTjs9fcsOQD77A7+mumvFKYOSkrTf8S+k3hv/tcCLGfkx/Y6J2z+q8Bnqb3YA8hoHvIzqXgu0pwzOqOLgJPWHXvjGP9QLE/axFudUj8QOQDm2JBYTqqr4kFMGJY1pc2IwXd3f+Du98bd9NGFff+789AwcOwDlehrVrh/glEFJj7I1cAZwD71142+7NGGfZ3a5r0FiB6B8mxLXXlUFh5YQnXxnvUgDbj/iUeRy6r3xj/WOfzSbEsVSiu7bR6MjswNQnScAf6S6a+43wLxKjkxSY0wiViz7OfXe9FNv/G2HJOawZ8K++50dgGpNBN5GdR1yqwxKA+LxRIN+N/Xf+Ns3iByPId+RkMPdGfbfz+wA1GM34EdUdy1eS3SkJfWRXYC3EgPd6r7hD48ryVN+9/yEHM7LsP9+ZgegXifjlEFJXdiVGOTza6qbZlQ0rgV2SDjWccBfE/b/9oR9DwI7APVzyqCkEW0CHEkUw7mC+m/q3UbKk4A5ift+asH9Dgo7AM1xFNWuy3EescCWpAaZQty43gl8n/pH8NfZCXhZwj5XEjMINDI7AM2yGdHRX00116VVBqUaTQD2Bk4EPgT8CniY+m/YTekEnJWwv991ua9BZAegmeqYMmiVQakkU4gL7HnEe+nPAZcAy6j/xtzkTkDKK48Pd7GfQWUHoLkmAqfhlEGp8SYT882PAF4F/CvwReIb/UJiPfq6b75F4sYScu+0EzA9cd/zO9jHoLMD0HxOGZRqNgnYnXg3P5+Ym34WcBFxk6yqFniVN/72kr0vIv87yWuB7cc450cn7sMBTmOzA9A75pM2I6abWEd8gdm6kiOTajYZ2IP++wbfbVxBjEcYPijoZPJ3cq4EZo7yNzkjYdu3jLJdbWAHoLdsQ7RLVbUHi4DjKzkyqWTbAocz2Df4keLXwLHEvPuRnEQ5nYCRXgf8OGG7Xx3lOLSBHYDe5JRBaQzTiWlkXyUWv6j7Jtu0WAt8Dzi0i3P6EvJ3Aq4DZg/bzwRiilLRbb6pi2MaZHYAepdTBqWN2B/4CvAQ9d9kmxgPEA3/nILn98Xk7wTcAew7ZB+PS9zeAQWPbdDYAeh9ThmUgLnAd2n+8rh1xZXAG4DNi57gIU4kfydgCfDC1vZfn7CdZcTgRY3NDkB/cMqgBtZEYsBYSs34fo17gU8CBxU9uaMoY3bAeqJgybkJv/+zEo61X9kB6C9OGdRA2Yl4JFX3jbZJ8TBRQe94yu+hv5Dq3kF2Gu8v9Yj7ix2A/mSVQfW9fYHbqP+G04RYAVxAVPmannJSC3gBsCoh99zxrHIPt6/YAehfVhlU3zqAGMxW982mzrgTOBs4gTzv9VPMpxlPAtbh4iXdsAPQ/44CbqK6a9ApgyrV3sA91H+zqTpWEO+330GMkh9tzn4dmtAJuLb0o+wvdgAGg1MG1RemAVdT/824ilhKLDV8BnAksEn66Svd8dT7OuDz5R9iX7EDMFgeB1xKddejUwZV2Ma+4Z5LvHPuN38F/gxcNuTn9cRF1GuOB75G1E+o2iLgGuIbyAOtn6sTtrcCWECMrL4/ObvOzAX+DphFLIhUpiOAAwv+7k+BP2TMRdWYSAwS7LY0d1GriFeV9xPTFFe1/n0J8cpuVevfH2j9fIj48rO09d8PVZSnGmZ4B+CFwNfrSCSTlcDNxI39euCGVlxHvM/vJ88jOgH9Mk94JXAm8G7gwZL2sS/xjfyIkrYv9aL1bOgcLCOmNg+NxRv5t3asqSFfZTK0A7AZcdNs8uCSlcCtRCGaW4b99y1sWI54UBxODAiaVnciGV1JVClclHm7xxKd26mZtysNsgeI8WL3AHcTK47eNezn3a0YpLa5JwztAPwT8L66EmnxBt+9/YHvM3bp317ye6Is9Kqx/ocdejzxrnSzTNuT1J3VwO3EtPJbW3HbkLiVeB2oCrU7AJsQf4Cy31l5gy/H7kQnYK+6E8nozcDHMm3rV0SHQlJz3Qn8ZVjc2Pq5pMa8+la7A/AyYhBJDuuAq4hvcTfhDb4qWwCfJqoJ9oObgD0ybKddyEVS71pMdASuIaYiX936eWudSfW6dkGXHDeNtcQgro8QA/FUrQeBk4h1DD5B7z/u3h3Yk7joUxyVIRdJ9ZrZiicP+/cHiUHeVxEdgquAy8k/hqgvjSNWdbuLtOpui4HnApfkSErJ5gFfAP5P3YkkOpKYCpfiU8SCKZIGx93EVO/LgD+1frZXa1TLROBQ0m7+S4HDiEczaoZrgIOBVwL/DmxTbzqFrW3INiT1lu2I2URHD/m3JcQaMH8C/ocYGHx79ak1x0TiRpHiFLz5N9E6YtW+bxPV+15D+Yve5HZjhm34OkoSRBG3p7Wi7Xbgt634HdE5SFnYrKeMAy6keHW3PxODrHys0ny7A/8AvILeWDzoSmC/DNuZS6w0KEljWUEMGv4tcDExg2h5rRmVbAHF16F+Yw35Ks0OwIeIZUPrqifQSZyc8ZjPa8DxGIbRe7ES+CWxQulTqWf59dKMI5Zz3Krg7++Dj/971SbAMcTMgWfSrKcCFwLPIV5j5LArMS11ZqbtSRpMy4gOwU9bcQXRUehJ44gezuSCvz+N8tZtV3W2JGoLHEEM6JxVYy4/JsoeL8283QOA71LvsUnqLwuBC4DzgZ+Tb/XSSowjrfeysWqC6n1ziYEyBwBzWv/3TiXvcxHwb8BnKG/k/nbAe4iFr3qh9LOk3rEU+CHRGfgB1VU3LcwOgDo1lRhIuHXrv6cCM4gVCItOI11LzNddQJS9zfXIfyxTgUOITs3WFe1TqsI0YrbPDKJ93rL1c0br36e1YnormvTqr5+sJl4VnA+cS6y10zh2ACRpcG3Chs5AO7bcyL9tQzxBa6/Itw19NiCuRGuBi4CvAN+hQbMK7ABIkorYkiggN5MoI79D6+f2xNO17YGdsQT3UMuIWUlfBn5CzQuV2QGQJJVpC2AXYDYxI2eX1s927MBg3kvuAr4G/Dex7knl7ABIkuo0hegU7MmGQcdzWrELvbeCaRE/Bz5JPB2o7KmAHQBJUlNNIQYftzsFjwH2JQqe9eOrhduIsu6fB+4pe2d2ACRJvWgW0RHYh5iyPK8Vm9aZVCYriXVLPkzUKChNyjKJkiQ1xSSihsgrgDOBS4mbad1LCqfExUTV3lLYAZAk9avJwEHAG4AvEMv3rqH+G3u3cRF5CqT9TeorgA+O8f9fTSz08kei/nJVC71IkjSSqcATiRVPDwWeRG+8OlgDfAI4g0zLpVfVe7kJODFHwpIkZTQZeApwOrGM71Lq/8Y/WtzcyjdZ1YmfiYMHJUnNNZF4bXAaUfVvFfXf9IfHGqJM8fiUA60j8TNSEpYkqULTgOOJ6XmLqP/mPzS+A2xe9MDqSHgVMa9TkqReMg54AvAu4BJi4Z66OwF/Jmo1dK2uhD9eJFlJkhpkG+B1xGp+dXYGriNqL3SlrmSv7zZRSZIabCfgrcDvqee+eiNRW6FjdXUAVpE4eEGSpIbaFXgHcA3V3luvJCo1dqSuDsDDOBtAktT/ngB8CniAau6vPyVmMoyprg7AdR2dNkmS+sNU4JXEwnhl32P/o5OE6uoAfKTDEyZJUr95IvA1yl1j4Pixkqjj5r+SKPEoSdIg25lYVr+M1wOLge1H23kdHYDTC5wkSZL61VbAB4AV5L3fnjfaTqu++f8nDv6TJGlj9gZ+Rd777rNH2llVN/6rgeeknBVJkgbABOB9RAXdHPffG4Apw3eSWg74nR38b/4K/Am4PGE/kiQNmhcAX2YjN+8C3gx8bOg/pHYAfJSfx2ZEbYRtgelEYYeprVgNLCMGiCwnylTeANxVS6aS1L3tgTlEUZ2pwAyinZtEtGvLiXbufuBeYqXY5bVkWr52LYHHE8sIj+Uw4OgM+10E7EGswfO3ROwAVGsWcDhRy3luK7pevxlYQlwkC4inKxcTBSHW5klTkro2gbixHQY8jnifPZf4YtOt29jQxv0P8DPgjixZ1mc+8H6iM1SHvwfOHPoPKe8VNLbJwHOBzxIf5jLHWdxHlIZ8E7BjFQcnaeDtSLQ53yHaoDLbuOuATwPPI89j8aqMAz5JdWPuRoprGPbF3Q5AfuOAQ4DPEI+z6vhDrwV+DJxMPHKTpFymAicRbcwa6mnj7iM6AweXfKw5vIf6b/7tOGxoYnYA8pkCvJbyv+l3Gw8SF8pu5R26pAEwm3iE/CD1t2tD43rgFGCT0o68uL2JsVx1n6N2nDM0OTsA6aYRVZ8WUf8fd7RYTfzx9y7nNEjqU3sDZ1PusrU5YhHwNmKAYVOcSf3nZWjcz5DXJ3YAihsPvA64h/r/qN3EWmJqSVd1oyUNnB2ALxFtRt3tVjdxD/BGYlBi3W6i/vMxPI5pJ5eykUF2IHAJ9f8hU2IZ8eSio7KRkgbGeOJ1ZlXla8uKy4AnZz433ZhAfWMkRouPtxNM2cgg2gw4i3wrNDUhLiM6NJJ0ALF4W93tUq5YSwzI3iLnSepQUzsAV7YTTNnIoHk8cC31//HKiJXAqbi2gzSoxgH/l2gL6m6PyojriTa8arcUyLXsWAdsTeJGBsU44ub4MPX/4cqObwNb5jltknrEDOLar7v9KTtWAK/PdM469elMueeOI0jcwCCYBHyB+v9YVcbNwD45Tp6kxptHMweqlRm51tfvxDya+RrgLSRuoN9tAfyI+v9QdcS99MYCG5KKezL1LVZWd/yE6sYFvL+iY+omPkfiBvrZDsTguLr/SHXGcuDY1BMpqZGeRVzjdbczdcYfiCJsZRtPDB6v+3iHxg9I3EC/mkmsmVz3H6gJsRo4Me10SmqYE2j+oj5VxfVUVzvlxcQr1rqPeT1wpdUAH20GUXVq/4r3+xDxQbyZDaV/lxNjEDZv5bUdsSLXdhXnthp4NvE6RFJvOwq4gChUVqW7iWI+dxNt3DKibWmXPp9BLFc+l5huXaUrgUNbeZVtPPBEYur1dkQbX9R0ig9qvBvSehD9ZirwG6rpfS0gRoeeAOxKd52pGcSH9d3AL6hmdsKDxIdWUu86iGrW8X+YaJveTbRVM7rIcRzRJp5AtJELKsh3PfBLYNMu8myCmRQ/3iUk/PL6Cg6uSuOA8yj3A7YQ+HdiVGhO04FXEx/gMhcoWgzslTl3SdXYi7iGy2of1hFt0KuJNimneUTbubDE/NcT94AmLB/cqSkUP9bVJPxyv3UA/pHyPlR/BJ5PPPopW9lFO67G8sJSr5lKXLtltAmrgP+mmi8H44m29I8lHct6onRvL0m6h9sBiHdiZczTvAp4ZoXHMdRsovJfGU8Ezq7sKCTlcDb524F1re3OruoghnkW5XRq1gJHVngcqewAJNiJ/NX8lgFvJ21wRy6HEgNccl8kL6/wGCQV93LyX/9XAIdUeAwjmUS0tcvIe3x30TvVUu0AJLiAvB+cS4HdKz2CsU0CPkTepwHLcTyA1HRzyXtzXAd8kGZ8uRlqd6LtzdmW/4TemOmWdA9PKfyweQUHV6YXkffC+CjVT63pxjHkfdpxUbXpS+rSReS73hcTj92bajLRBuf8onNypUdQTFIHIKXe8+zyj600WxGPeXJ8SNYQtbN7wW7EegO5LpAXVpu+pA7l/IJzMzCn2vQLexkxwj3Hcd9Fd1MY61D4+MYBtwE7F9zxwcAlKZnX6Czy3LQfJlbKOy/DtqqyPbEMZI7SmIuAxwBLM2yrU9OBpxKf29zTjaSclhBT137d+u+qbEEsujMrw7YuJwYz35lhW1U5DvgasEmGbX0KeGOG7ZRlfcov/5biPYg3p+y4RnuSp4e4ivpG+afakhjIk6OX/MGKct6JGHXcr/XKjf6NlcSsnJ2oxgcz5X0l8bS0Fx1NnunQa4B9K869GynHxlcTfrmXvvUO9SXSPxTr6P2R8LPIsy71MmJFqjIdDPw1Q66GUWcsJp5elWlr8qz2txDYpeRcy3YiMa0v9Vx8verEu5ByXPxzwi8vpbpyirnkqs18etWJl2Rv4tFk6vl4X4k5zgHuy5CjYTQh7idG55flvRlyXEK0Df3gdNLPx1qaez5SjoujEzfQ5HcjG/Nl0j8MF9Ib00M69ULSz8kDlPc+/scZ8jOMJsXFlGMa0cFIze9FJeVXh3FEm516Ts6pOvEOpRwTW5P2iGQBMLH0Q8xjG9IL5yxsbafffIb0C6SMpyKPy5CXYTQxyqg4+vYMeZ1VQl5124b0OgKriSJFTZNyTAD8LnEjby/3+LI5jfSL4zmVZ12NzUgfD3AD+Z+M5Hh8ZxhNjH8iv2sTc1pI76/vMpJnkv43++fKsx5byvEA8K7EjTxEjKxvsnGkl5U8v/Ksq/V80i+QgzPn9LkMORlGE+O/yOtJGXI6PnNOTXM+aefn+upTHlPh42lXpzu39Q9FbQp8h2YvmHAoaQNvVgKnZsqlqb5NvG9PkXvlrCoqKEp1yP3qNPXa+zHw/3Mk0mCnEm15UXOIjlZfaDeuC4iFKlI8lugE5Fh4oQypj+7PBm5JT6Pxzkj8/ROIGtW53JZxW1KT3JJxW1NIH7h3RoY8mu4WonRxipdmyKNxXkKex1q/JVaaa5rrKH5Mq2lOgZ9xxEjfMv2EtM9AzlKaT07MxTCaGjlflx2RmMvPMuayMVvQnKd5u5G2QNDt1ac8qpS/+99MBG5M3Fg7FgKHl3OshexJ2vF8rfqUH2E6MU7jz2xYw+Ah4pHdS8h/YR1F2vl6f8ZcxpG2WqVhNDEuJe+A2fcl5nN0xlwg2qQXE23U8tY+1hBt2Luofwnvr5B2vppUCTXlOB7hNYkbGx7nEr2tup1K2nEcVX3Kf/N0xl4B73fAjhn3OZ60KTO560McCKxIyMcwmhQrgIPIK6WTfDswIWMus4g2YLR9Libvk8Ju/d0IeXUab6g+5RGlHMcjTCTf+vDtWEMUnjmBmGpWh/YgxyJxB3kvjm7Mp/NHVbcA22bc9wc63O/GYjX5X1Mcx4ZvEobRq/EQMdsmpy1Ie6Sds5bHTOCmDve7mvoWHJpAdHyKnrNzq095RCmfx0c5nLz1lIfGCuCHxDfyMpfCHO6GhJw/UmGeQ82n+4JF38+4/9QFeMookrQf8a6yjM+mYZQdPyOuq9yekZhXjqqgbd2uuLeG+joBH+4wx43F3TXkO5LCf/uR3kF9BnhduTkDsfDMRcSgsx8SBSxym0YsU1v0fduxxIe6SvOJIk1FpgkdQvqMDojzdSewXcHfPw34zwx5bMxc4vHhLHpnFUoNpjVEyeyfErOtyvBWil9r9xJPDtdlyOMpFGt71gInUX3BnWOA7yX8/kzgnky5pFife4NTiQUPquwdl/V04JCEnMp4lD2WF5D2OO/jGXP5RkIen82Yh6SRpSzj/c2MeXw8IY81RCegSqmvTsqu6tiplPvuiPYjT0nJovEX4BPAs0gbO3BKQg6XJuy3iNSb/3ryfPtvSzl3v8iYh6SRXUzx6zRnMbdfJeSxnno6ASnL4L+q4lxHUvicjzZ97ArgZeR5NFTEHsSH80LiMVXRpwM7JORwdcLvdms+Md1wUuJ2tsyQS1vK8TdpmozUz1KutZxtXOrUvgnEgmtVjgmwjRvDGyhvUGDR6ObpwGcT9vPO7k5VYS+g+wF/I8XPM+a1fWIum2bMRdKjTSHtGp2VMZdcA3SrHBiYUj3xGxXlOJaUc92Rt9C8TkA7xho7cF7CtnNP19mY40l/7D80/i1zfg8k5FJ0AKGkzmxD8etzaeZc3p+Qy/Co6nXAcQk5/qCC/MYyjuL5d/V0/6XkvVGVFTcR9aznE4M8Ut7xHNLNCSog5zf/9cRo2n0z5/iXhHz2yJyLpEfajbS2Mqd9iDYoV3tWxZOApyTkl3O8VVHTKJ7/Q93u7EjGXpWuSbECeDjh9/fv9gR1IffNfz35y4sC/CkhnzLPn6To8Be9Pi8vIZ/PJ+SzsSi7E7BfQm5lnL9u7Uzx/AtNYdyJ9NGevRJ7FjlBHSjj5v9Hyllp8RcJOR1aQj6SNjiY4tfnb0rIZ1Ni9lTOtq3MTkCTnqAU8USK539zkSIytwOHAW8GlqXl3nhlzIB4DjHaP+cCNpcTq4F1/UinAynnoK4llKVBkXKNrc2WxQYriMJCl2Xc5gTgy8DzMm6zLeUcNKF92y/hd+8oWkVuLfAxYB5wDuV8kJpgi8zbewxRhSr3zf9IyluRKuUc9HsHUapbyjWWu31ru49ok3J3Ar5E3HNySjkHZaxc260DE373ttQysguBlxPrW38JWJm4vabZPPP2Pph5m2Xf/MEOgNRkKddY7vZtqDI6AVOBD2XcHqSt9Fp3B2AC8US5qL/kSqRtO2Lu/GXU//4+Rxyb8dzMIu9Uyj8TU4DKtjghx50ryE8aZLMofn3eW0F+M8g7JmAdMQ4tl2cl5PKjjHkUkVoE6rgyk5sDvI0o9JMyEr/OeEvG83FixryquvlvmZhnWY8YJYXNSLtGt6ogx61Im000PF6cMbdTE/L4VsY8ujWO9I7VzqmvAEZzA1Gh6kjiZnUcUbTi1hL3mVvOpR5TliQe6grKf+zflnL891D/IzKp3z1EWmnavXMlMorcrwN2zLQdSGvj7siWRfdOAQ5K+P0bgIVldgCGWgacTywrPJtYMOI0okRmk8cNPCbjtnKM0L8COILqSlCmNA43ZstC0mhS3uVW0QGA6AQ8Hfh9hm3lHFuU0saXVd55LMcBH03cxvdzJJLD5sBzgU8Dt1D/Y/+h8RCx1nYOhyXmcjnVPPYf6r8S8v1KxblKg+ocil+nX6g41xyvAw7PlMtkYHlCHkdkyqNT04D/IM9qi4dDvEdomnnAM1txCPFHqtNh5CltO4l4ZDSzwO9W/c2/7WbiiU0RKkuNkAAACatJREFUPwK+nS8VSSM4jmgvi7iV4td4UVsRY8OKrBR6DzHwcXWGPA4lrW3fmVgXpwzbAY8nCrLtStwXn0OeAms3EmP01mfYVqnaTwc+Q31PB96b8XjeWmD/dXzzB9i9QK6GYfRe1FGzo+iTgLdlzOE9BfbfjqWU8wX6SUTnKGdNheFRVZXb7OaxYWbBSqq5OK7NmP8E4t1Lp/uu6+YP8I4OczQMo7ejrhtCt1MEf0LeRdSu6WLfw6OMd+hvI5Y9LvNvfR8wvYTcK1fl04GU0ZbDbQF8t4N9/ohqpuiM5KoR8jIMo7/iGuozgyirO1aOF5C2aM9wB3awz9HiHzLmAvDaxHw6jX/JnHdjlPl04JOZcx1PFLf4A49eHOgyovRyVTM0NuYA8p4/wzCaHTm/5HRrPHAyj15Abh3RRp5I/vbw46SdrwMy5rIjaYMRO42bidUU+17upwMPAluXlOtM4r3Pk4mBH03wVepvkAzDqC6+RjNsS7SFT6LYgOlObEW8wy96ru4jb4fkAwm5dBNHZ8y5p8wDLiLt5OUcDNhkcyn/PZRhGM2KNcS1PwhSBv+tJ74g5VTF69ZPZM6556Ss+bweuJ9YGrffpcwpNgyjd+Mc+t+WRFuecp6KTrkcyYrEfMaK31L/dPraTSSWzEw5kWdWnnW1nky5008Mw2hurCXagH52Jmnn6E7yzkQYT6xpUNbf9CrKe5XSc1IHfqyl3sEyZZpA3oIdhmH0XlxG3htckxxI+uvND5eQ162JOY0UVxMLCallHukleS8j3/LATeK8f8Mw1tPDC8WMYgp5vuA8roTcUpZcHyl+REyx1DDfI/3k5p4WWLeDgVXU3/AYhlF/rCLahH7ySdLPyw9Kyu1A0r+YDv3bnUH/PsVJdjh5TvT8qhMvyTbAbdTf6BiG0Zy4jfpWIc1tPnnOyVNLzPHTGfL7NVE/QGO4hPSTvZze7yVvRowQrbuxMQyjeXEJ0Ub0soPJs8jOxSXnORk4v2BuvwaOKTm/vvJU8lwg9wL7VJx7LhPJ8zrEMIz+jQuJSqa9aB7RRuc4D1WU/h0PnMbY0xTXEiskvh/YO2WHTSwHXJVvA8/LsJ07iRWWrsiwrapMAb4CHJ9hWyuAL2XYjqS8TiLPN/jvAC8GHs6wrarsC/yQKB2c6nyi5HJVNifWGngCsWrhKmAZMVtgAVEk7r4K8+lLc4kPdI7e4f1EbeleMJ14nJXrG8I/Vpu+pA69k3zX+cX0ThW5Q0lf7Kcdy4Fdq01fVXkX+S6QFcArqk2/a3sBV5LvmK/GFaakpppMXKO5rvcriDakyV5J3pX1Tq82fVVpEvkXvzmHZlZceglR1CjXca6h9wdBSv3uYPLW9niQaEuaZnPgi+Rty/2CMwAeT/7ywTcAz6jyIEaxI/BN8h7feuBfqzwISYW9l/zX/zeItqUJjiba3JzH9xAxjkAD4BTyXyDrgXOB2dUdxiNMAd5GWtnLkeJ39O7IYGnQTCTP1OfhsRR4K/WtjDob+NYo+aXEq6s7DDXB2ZTzQVpFPJpKmq7RhanAqcDCko7nLmDnio5FUh47AHdQTptwN7GUeFVrBuwGfIx8g7iHx9crOg41yFRiekUZH6j1xHu4C4EXAZuWkP8TiWJH95R4DCspdzUsSeV5Cvlfdw6Ne4g2qIyCaZsSbeeF5B3TMDwuI8YTaADtCNxCeR+udjxAvJd/PTEdsYgtibmpHyPmhpad8zrg5IK5SmqGk8m37vxosYBom55LtFVF7EW0kd8EllSQ840MWPW8QV4IaCR7EUsrVrkO9v3EBXMd8SF8cEhMIXqk04lFLfZqxS7EylFVeSvwkQr3J6kcb6GcsrYjWUfUFljQikXEDX0Z8URiC6KNmwbsQbwu3YviHYci/ko8IflLhftUQx1ErLRUdo+zV+KMpLMpqWnOoP52pSnxAHBA0tlU35lHeYNmein+JfVESmqkt1N/+1J33Ansn3oi1Z/mEusv1/0hrSPWEO/fJPWvUyh3UF2T43piRoE0oh2A31D/h7XKWEIsriGp/z2TagbZNSkuBbbNcfLU/yYDn6X+D20VsYDeLXEsqZjHEt+I625/qohPAZvkOW0aJK+knJX1mhJfxDmw0qDagijtXXc7VFYsAU7IdrY0kHYDfkH9H+accQ/NLPAhqXonUe6CYnXEb4A9c54kDa7xwJvoj6mCX8V3YZIeaVvgK9TfPqXGYuLJrWveKLttgE/Tm6Nofw8cnv+USOojhxFtRd3tVbexFjgL2Cr7GZGGeSzxTboXOgLXACdij1hSZ8YRbcY11N9+jRWrgXOorvia9Dd7Ap8DVlD/hTA8LgGeR7XLB0vqH+OJNqSM0sKp8TDxjX/30o5e6tB04LVETYE6L4oHiIviCeUerqQBMw/4APGOvc427g9E+fOZ5R6uVMxjgdOJzkAVrwjuItYseCZRSEiSyjKFaGvOIpbVLbt9W02M6H83MKeC4+trvgeu1tbA04AntuIAogJWUauJhXsuJzoYvwSuJS4USarSOOAxwCGteBxR1W9SwjYXE1VSLwV+RrRxy9LSVJsdgHqNJ5Yant2KXYkOwXQ2lAFeRyxgsYa4GO4kihTdSlwYqyvOWZI6NYnoBMwmypnPIh7XTyTaufFE+7acKH++jHiKuYBYmfC+yjOWJEmSJEmSJEmSJEmSJEmSJEmSJEmSJEmSJEmSJEmSJEmSJEmSJEmSJEmSJEmSJEmSJEmSJEmSJEmSJEmSJEmSJEmSJEmSJEmSJEmSJEmSJEmSJEmSJEmSJEmSJEmSJEmSJEmSJEmSJEmSJEmSJEmSJEmSJEmSJEmSJEmSJEmSJEmSJEmSJEmSJEmSJEmSJEmSJEmSJEmSJEmSJEmSJEmSJEmSJEmSJEmSJEmSJEmSJEmSJEmSJEmSJEmSJEmSJEmSJEmSJEmSJEmSJEmSJEmSJEmSJEmSJEmSJEmSJEmSJEmSJEmSJEmSJEmSJEmSJEmSJEmSJEmSJEmSJEmSJEmSJEmSJEmSJEmSJEmSJEmSJEmSJEmSJEmSJEmSJEmSJEmSJEmSJEmSJEmSJEmSJEmSJEmSJEmSJEmSJEmSJEmSJEmSJEmSJEmSJEmSJEmSJEmSJEmSJEmSJEmSJEmSJEmSJEmSJEmSJEmSJEmSJEmSJEmSJEmSJEmSJEmSJEmSJEmSJEmSJEmSJEmSJEmSJEmSJEmSJEmSJEmSJEmSJEmSJEmSJEmSJEmSJEmSJEmSJEmSJEmSJEmSJEmSJEmSJEmSJEmSJEmSJEmSJEmSJEmSJEmSJEmSJEmSJEmSJEmN9r+2Wt/8x4BGxQAAAABJRU5ErkJggg==" parent="1" vertex="1">
          <mxGeometry x="190" y="195" width="70" height="70" as="geometry" />
        </mxCell>
        <mxCell id="67eYPiXTh_iBlm8Q6Snp-5" value="" style="endArrow=classic;html=1;rounded=0;entryX=0.5;entryY=1;entryDx=0;entryDy=0;" parent="1" target="-sE3qYrtUwZZlPVzAe-D-23" edge="1">
          <mxGeometry width="50" height="50" relative="1" as="geometry">
            <mxPoint x="580" y="400" as="sourcePoint" />
            <mxPoint x="500" y="390" as="targetPoint" />
            <Array as="points">
              <mxPoint x="580" y="420" />
              <mxPoint x="225" y="420" />
            </Array>
          </mxGeometry>
        </mxCell>
        <mxCell id="67eYPiXTh_iBlm8Q6Snp-7" value="" style="endArrow=classic;html=1;rounded=0;entryX=0;entryY=0.5;entryDx=0;entryDy=0;" parent="1" target="-sE3qYrtUwZZlPVzAe-D-3" edge="1">
          <mxGeometry width="50" height="50" relative="1" as="geometry">
            <mxPoint x="270" y="230" as="sourcePoint" />
            <mxPoint x="280" y="279" as="targetPoint" />
          </mxGeometry>
        </mxCell>
        <mxCell id="J8z1492lwSMg4EI9UMlo-2" value="" style="shape=image;imageAspect=0;aspect=fixed;verticalLabelPosition=bottom;verticalAlign=top;image=data:image/png,iVBORw0KGgoAAAANSUhEUgAAAgAAAAIACAYAAAD0eNT6AAAABHNCSVQICAgIfAhkiAAAAAlwSFlzAAAOxAAADsQBlSsOGwAAABl0RVh0U29mdHdhcmUAd3d3Lmlua3NjYXBlLm9yZ5vuPBoAABwRSURBVHic7d170G5XXR/w77kkIdeThCSEACFBEkouCEElRWSCUZSLlVpEQq20VdE2HbmkaP+wM0x1hHa8ApUqJkxAxUIVuUWsQwLEJCBpIoRIEpxyDKJALuRKc5Kcc/rHfs9wJpxznud919q3Z30+M3uSyZu9929fnrW+z977WTsBAAAAAAAAAAAAAAAAAAAAAAAAAAAAAAAAAAAAAAAAAB5p09gFAL3aXTi/NgJW1OaxCwAAhicAAECDBAAAaJAAAAANEgAAoEECAAA0SAAAgAYJAADQIAEAABokAABAgwQAAGiQAAAADRIAAKBBAgAANEgAAIAGCQAA0CABAAAaJAAAQIMEAABokAAAAA0SAACgQQIAADRIAACABgkAANAgAQAAGiQAAECDBAAAaJAAAAANEgAAoEECAAA0SAAAgAYJAADQIAEAABokAABAgwQAAGiQAAAADRIAAKBBAgAANEgAAIAGCQAA0CABAAAaJAAAQIMEAABokAAAAA0SAACgQQIAADRIAAAAAAAAAAAAAAAAAAAAAAAAAAAAAAAAAAAAAAAAAAAAAIAkW8YuoDEnJNmd5KGxCwGYmKOSHJzkwbELgdpOSHJDkk8kOWLkWgCm5Kgk1yS5au3fYWXs6fx3r01CAEBnT+e/p30UAlgZj+z8hQCAziM7fyGAlbG/zl8IAFq3v85fCGD2FnX+QgDQqkWdvxDAbC3b+QsBQGuW7fyFAGZnvZ2/EAC0Yr2dvxDAbGy08xcCgFW30c5fCGDySjt/IQBYVaWdvxDAZNXq/IUAYNXU6vyFACbnhCQ3pt7JvWf6aJLDBtwOgNpqd/5CQEWbxy5gBexIck8Py/3eJB+JKwHAPB2V5M+TnNvDsncm2dXDcmHdtqWflOt2ADBHfX3z1yYySUIAgM6fRgkBQMt0/jRNCABapPOHCAFAW7R5sBcfCKAF2jrYBx8MYJVp4+AAfECAVaRtgyX4oACrRJsG6+ADA6wCbRlsgA8OMGfasBWyaewCGrQt3Rj/fYyPfWWSFya5r4dlM22bkpyU5NQkp6z987FJHp3k+LV/HpXu/EuSQ/LNl03dn+TBtX+/O927Le5IcluS25P8Y5LtSb649s9/SNdg0xZtF1QgRVPiyHQvi3pNkouTfDrJN9LP+bSv6Rtr6/y9JK9O8ry1mlhd2iyoyAeKZT02ySuSvDXJ9UkeznCd/bLTw2u1vWWt1hN72ROMQVsFPfDBYl+2Jnlukjem61R3ZfwOfr3TriTXJfmVJN+ztk3MjzYKeuQDRpJsTvKcJL+V5CsZvwOvPd2R5J1JfijJQZX2Gf3SNsEAfNDa9bQkb07y1YzfSQ81fSVd0Dm7wv6jH9okGJAPXDsOT/KTST6Z8TvjsadrkvzbtX3CNGiLYAQ+eKvtMUnekO5y+Ngd79Smu9NdFXj8RncuVWiDYEQ+gKvnjCSXJtmR8TvaqU87krwjyVM3tKcpoe2BCfBBXA2nJvmdTPNne1OfdiZ5T5LT173X2QhtDkzItvR3j/jtA25Hi56Q5JIkD2X8jnTu00PpBhxya6Bf70s/x+/yfHPESWAd+kjlN6cbMpb6DkvyC0nuzfgd56pN9yd5U3yT7MtpSf4+dY+Zb/5QqGYI0Pn354Ikt2b8jnLVp+1JfnS5Q8I61QwBOn+opEYI0Pn346Qkf5rxO8bWpg8nOXmJ48P61AgBOn+orCQE6Pzr25TkVenenDd2Z9jqdH+6Wy5bFhwr1qckBOj8oScbCQE6//pOTvKxjN8Bmrrp6iRPOtABY902EgJ0/jOzaewCWLf1vJP7lnSvav2HXitqywVJ3pbuOEzRbUluSnevfM90W7rBh/ZMO5M8mO4bdNKNwndwum/Sj95rOj7JKWvTqUmesvbfpujrSX423U8HqeO0JFckedwS/++VSV6Y5L5eKwKWuhLgm39dh6d7mc3Y33b3nr6S7udbr0/y/AzzCt7Hrq3r59fWPbV3GLwjfnZW0zJXAnzzh4EdKATo/Ot6cpLPZvzO7Z4kf5Lu2YPTet3i9Tk9yc+kCwRTeCbi+rglUNOBQoDOH0ayrxCg86/rRekuL4/VmX0tyf9Icn7m8Rrdg5N8X7oREG/LePvtziQv6HlbW7KvEKDzh5HtHQJ0/nW9Pt398qE7rweS/GG6S+1be9/K/mxN8gNJ3p1um4bejzuTXNT7VrZj7xCg84eJ2Jbk99Pdn6Xc1nTfuofusG5J8tp0D+CtmuOSvC7JFzL8fv3v8VPBWp6SLpx6zgJYOUcmuSzDdlBXJnlJks0DbN/YNif550muyrD7+EPxjRWA/Tgm/b2AaV/T5Um+e5Atm6bvybDjKVyd5OghNgyA+Tg+3dPjQ3RE16Qbn6Evp6T7TfaFSX41yf9M19HekG5MiDvT/V57d481rMf5GS54XZfpjmUAwMBOSvI36b/z+VKSV6TuAFwnJvmRJL+W7sGsu9ZZ01RsSvKvUv+NdPuaboznZQCad3z67/wfTPLLqfPg1MHpvjH/arqOrLS2qTk8yRvT7bO+Q8BxA20TABOzLcm16bejuT7JOYV1bkn3k8CL0w3lW7O+qTo7yafS77H563TPfQDQkCPT733nHenGESj5+dnj0r3tbnuPdU7ZlnTbvyP9bf9V6a46ANCALUnen/46lc+n7Fv/c9IN+TvEIERzcHb6HYr5ssx7wCUAltTnID+XZOP3+l+Q9b/uuYUAkHTf0i9Nf/vhrcNtCgBj+Pn004E8kOTVG6zpvAw/MM7cAsAer0p/twReN+B2ADCgF6efy+pfSXLuBuo5Md0rhnf1UNOqBoAkeXb6eQ3xzniBEMDKeXL6eavfjekG3lmPzem+yd7dQz0tBIAkOTX9/HzzziTfNuB2ANCjw9PPQ2RXZP1Dy56b4UYcXOUAkHQ/4ft46u+T65McOuB2ANCTd6Z+J/HhrK+T2JrkDUke7qGWVgNA0h2DPl7edPGQGwFAfS9N/c7hA0kOWUcNp6f/AYdaDQBJNzrie1N/37x8yI0AoJ4npv59//+V9f1m/MU91CAAfKutSf44dffNnUmeMORGAFBuc+rfH/5wum+by9iUbvz/MZ/wbykAJN2x+bPU3T9XpDuXAJiJn0v9jmDZe/5bkvxe5fULAMs5NN1bEWvuowsH3QIYSM3XksJUnJzkc+nG+6/h80m+O92l/EUOS/KeJC+qtO6NujfJzUluSVf/LeleR3xfkvvTbcv96d66t2qOTXJ1kqdUWt69Sc5Mt/8AmLAPpN63v9vSjSGwjGOSXFlx3euZ7kvyF+lenvPMuGx9aroBmmrt3w8PWz4A63VB6jX6O7L8CH+PS3fVYchO/+50P1c7L15msy/PTt1hg186bPkALOvQJH+Xeg3+zyy53mMzXOe/K8lH0gUdg9UsdmHq7ftbs/EXPQHQozekXmN/yZLrPDTDXPbfmeSD6S7vsz41B4L6xYFrB2CBx6e7D16jkf+bLPdN76AkH6q0zv1ND6cLI6evf5ew5vAkN6XO8bg/3UOmAEzEJanTwO9I8owl1rep4jr3N12b5Ls2sjP4Ft+R7hcPNY7L2weuHYD9OD3JQ6nTuL9+yXX+UqX17Wu6PclPx5P8tf2n1Dk+D8YbAwEm4Q9Sp2H/q3SD+CzykvQ3wt8Hkxy3sd3AAltS750Mlw5cOwCPcEa6B+RqfKs7e4n1nZ7u53e1O/4Hk1wUg3P17empc7Xo4dQbaAiADbg0dTrgX15iXQcl+VSl9e093ZpupEGG8V9T57h5ZTDASE5KnYFevpTuSfFF3lRhXY+crk1ywkZ3ABtyRJIvp/zYPZDksQPXDkDqdcgXLLGuc1PnVsPe00dT730FrM8rU+cYLnPlCICKDk/3vvbSBvzqLL7vviXJdRXWtff0viSPKtkBFNmc5NMpP453ZLmrRwBU8lOp0xE/b4l1vbrSuvZM781yvzagX89PneP5rweuG6BpNR7G++gS6zkxyV0V1rVnujzJIQXbTV0fS/kxvWroogFa9bTU6Yyfs8S63l1pXbuTfCbJ0QXbTX3npc6xPXPgugGa9OaUN9hXLrGe8yqsZ8+0PZ72n6prUn58f33wqgEasyXJV1PeYP/wEuv6RIX17E438Izf+U/XS1N+jP8xnusA6NX3p7yxviWLx9l/QYX17JkuKt1oerUlyRdSfpzPG7hugKa8PeUN9WuXWE+Ny8K7043tb3jf6fuPKT/Wvz141QCN2JrktpQ10g8kefSC9TyncB17ptvjxT5zcXzKR5X8atwGAOjFc1PeKf/hEut5X4X17E43VgHz8Z6UH/NnD141QAN+JeUN9PMXrOOJqTPk7zVZ/JwB01LjuY9fGrxqgAb8dcoa59vS3UY4kP9SuI7d6V4V+4zyzWVgB6W7bVNy7D89eNUAK+7EJLtS1ji/bcE6tib5+8J17E5ySfnmMpLSh0x3JnnM4FUDrLBXpLxjPn/BOn6gwjoeTnJ6+eYykhrvB3jZ4FXDBrhHyVyUDqRzbxaP/vdjhetIuhf93FJhOYzjY0nuK1yGQZ8AKiq9//8nC5Z/ULpXu5asY1e69xQwbx9I2Xlw7fAlA6ymo9JdWi9plH96wTrOL1z+7iQfqbCtjO/fp/w20JGDVw3r5BYAc/DMlA+wcsWCv7+wcPlJcmmFZTC+ywvn35LknBqFQJ8EAObg6YXzfzXJ3y74f15QuI57kry/cBlMw83pfjJa4ttrFAJ9EgCYg7ML579qwd8fk+Sphet4b5JvFC6DadidbiCnEqXnLPROAGAOShvTTy74e42ntn+/wjKYjqsL5xcAmDwBgKnbnOTMwmV8ZsHfn1O4/Huz+CoD8/LZwvnPirdAMnECAFN3UpJDC5exKAB8Z+HyP5HkocJlMC2lAeDwGBGQiRMAmLpTCue/Ld1DgPuzKeWXa0ufGmd6vpxuXIgSp9YoBPoiADB1pY3o5xf8/ZQk2wrXIQCsptIRHU+pUQT0RQBg6k4pnH/7gr+XPv1/b8ovFzNN2wvndwWASRMAmLqTCuffvuDvTypc/s3phgBm9XyxcP7Scxd6JQAwdY8unP/WBX8/pXD5NxfOz3RtL5z/uBpFQF8EAKautBE90AOASXJy4fIFgNX1tcL5S8Mr9EoAYOpKG9HbF/z9hMLl31Q4P9O16NxZRABg0gQApu6YwvnvXPD30kb6y4XzM12lPwM8tkoV0BMBgKk7pHD+uxb8vTQA3Fs4P9O16NxZ5FFVqoCeCABMXWkA2LHg74cVLv+ewvmZrkXnziIHV6kCeiIAMHWljeiDPS/fFYDVVRoASsMr9EoAYOqmHgDuK5yf6RIAWGneVsXU7S6c3zlOCecfK8sVAABokAAAAA0SAACgQQIAADRIAACABgkAANAgAQAAGiQAAECDBAAAaJAAAAANEgAAoEECAAA0SAAAgAYJAADQIAEAABokAABAgwQAAGiQAAAADRIAAKBBAgAANEgAAIAGCQAA0CABAAAaJAAAQIMEAABokAAAAA0SAACgQQIAADRIAACABgkAANAgAQAAGiQAAECDBAAAaJAAAAANEgAAoEECAAA0SAAAgAYJAADQIAEAABokAABAgwQAAGiQAAAADRIAAKBBAgAANEgAAIAGCQAA0CABAAAaJAAAQIMEAABokAAAAA0SAACgQQIAADRIAACABgkAANAgAQAAGrS1wjJ2V1jGmDaNXQAAo2i6/3IFAAAaJAAAQIMEAABokAAAAA0SAACgQQIAADRIAACABgkAMKyzk/xWks8luS/d75BLph1JvpDkd5M8s0J9ZyX5jSQ3JLm3Qn2LpvvW9sVvrq0bmJG+G4i+J6ZtVY7vIUl+O8nO9Hcu70pycZLDNlDfo5L8Ts/1LZoeTvLWJAdvoP6+rMr5x76N3f/M/vwaewfMfgdyQKtwfA9JcnmGO6c/nq5DX9bRST45YH2Lpo9mOiFgFc4/9m/sc33259fYO2D2O5ADWoXj+7YMf16/dcnajk7y6RHqWzS9Zcn6+7YK5x/7N/Z5Pvvza+wdMPsdyAHN/fienXEuqz+8tu4DmWrnv6f+MxfUP4S5n38c2Njn+ajnl4cAoV8/lXE+Z1uS/OcD/H1bkj9P8h3DlLNuW5L85NhFAAc2dgKS0Ffb3I/vjRnv3N6ZfV8FmPI3/72nG5bcx32a+/nHgY19jo96frkCAP06ecR1b863XgWY+jf/vT1x7AIAGM/cv4GN/Q1hV5KnrdWyLcmnJlBTS8cPJssVAFhtm5L8YrrO/38n+a5xywGmYtPYBcACpd+ixj7Hp/AtcFeSm5KcMXYhGzD34zd2/bBfTk6mbu4N8BQCwJzN/fiNXT/sl1sAANAgAQAAGiQAAECDBAAAaJAAANO2aa/pshHruDLJkY+oZ5kJADZk7gOx1Kz/mel+0jf0YDxXJjliAts/hrnXDzBbc2+Aa9f/oQrLHKrz72P7hzb3+gFma+4NcO36z8lwVwH+Mt1l/ylt/9DmXj/AbM29Ae6j/g9UWO4QnX9f2z+kudcPMFtzb4D7qP8Z6fcqwFWp0/mnQi1jm3v9ALM19wa4r/r/tMKy++78U6Gesc29foDZmnsD3Ff9T0/9qwBXJzmqxkbvxfEDYEPm3gD3Wf/7Kiy/z84/Feoa29zrB5ituTfAfdZ/VpKdFdZxbZJjKmzrvjh+AGzI3Bvgvuv/48Ll/5/01/mnsLYWjh8A+zH3Brjv+s9O8tAGl/2pJNvKN/GAHD8ANmTuDfAQ9b9xA8u9LsmxpRu3BMcPgA2ZewM8RP2HZH1DBF+T5OjiLVuO4wfAhsy9AR6q/oOSvDkHvh2wc+3/OaRwm9bD8QNgQ+beAA9d/1lJfjPJzUnuTHJ/uqf8fyPJaQXbsVGOH0yU93UzdaWN6Njn+NzrLzX37Z97/bBfm8cuAAAYngAAAA0SAACgQQIAADRIAACABgkAANAgAQAAGiQAAECDBAAAaJAAAAANEgAAoEECAAA0SAAAgAYJAADQIAEAABokAABAgwQAAGiQAAAADRIAAKBBAgAANEgAAIAGCQAA0CABAAAaJAAAQIMEAABokAAAAA0SAACgQQIAADRIAACABgkAANAgAQAAGiQAAECDBAAAaJAAAAANEgAAoEECAAA0SAAAgAYJAADQIAEAABq0dewCIMnxSZ6X5NwkT01y6tp/O6LCsndXWMaY5l5/qblv/44k9yW5Lcn/TfL5JJ9M8rG1/waj2TR2ATTrmCQvT/ITSZ4V5yJt2Z3kmiTvSvJHSe4atxyA/p2Y5L8luTddI2gytT7dk+RNSU4IwAramuTVSe7O+A2uyTTF6b4kvxC3ZhmIy64M4UnpLnN+59iFwAx8Kt3tse0j18GK8ysA+vaiJNdF5w/Lela6z8wPjl0Iq23L2AWw0n48ybuTHDZ2ITAzh6a7CvDlJNePXAsrSgCgL69McmmcY7BRm5P8s3Q/H/zsyLWwgjwDQB9enOR98TAT1PBQkh9O8mdjF8JqEQCo7Ynp7l8eO3YhsELuSnJOki+OXQirw0OA1LQ1yXuj84fajk73PI1balTjZKKm1yT5N2MXASvq8UluT/JXYxfCanALgFpOTHJLkiPHLgRW2N1JTov3CFCBWwDUclF0/tC3bemutEExVwCo4ZgkfxcBAIZwT5KT010NgA1zBYAaXh6dPwzlqCQvG7sIgKR7rWmtF6J8Nt1Lg85McviQGwE9ODzdufzqJDek3ufkyiE3AmBfjk+yK+UN2gNJ/l1clWJ1bUlyYZIdKf+87Iyf2wIje1nqdP7PG7pwGMn3pk4I+BdDF85q8W2LUudWWMZrklxRYTkwB5en+9VMqRqfPYANuyzl9/wFUVqzJcnnUvbZ+eDgVbNSNLyUOq1w/ovTPUMALdmZ7twvUfrZAyhye8q+xZwxfMkwCWel7LPzteFLBvim0oeZjhi+ZJiEI1P+8CxsmJEAKbW7cH7nIC3z+WE0ngEAgAYJAADQIAEAABokAABAgwQAAGiQAAAADRIAAKBBAgAANEgAAIAGCQAA0CABAAAaJAAAQIMEAABokAAAAA0SAACgQQIApR4snP/IKlXA/BxVOP+OKlXQLAGAUvcUzv+EKlXA/JxcOH/pZ4/GCQCU+nrh/N9fpQqYn9Jz/44qVQBs0GVJdhdMNyTZMnjVMK4tSW5M2Wfng4NXzUpxBYBSNxXOf1aSn61RCMzIhUnOKFxG6WcPoMiPpuxbzO50DzOdP3ThMJLvS/fwbOnn5keGLhxgb8cn2ZU6IeA/xO0AVteWJD+XOp3/ziTHDls+wLe6KuUN2p7pc0lem+7WwBFDbgT04Ih05/LrUn7Pf+/p40NuBKtp69gFsBLeleTZlZZ1ZpJfr7QsWFXvGrsA5m/T2AWwEo5OcmsM6gNDuDvdGALGAaCIXwFQw11J3jZ2EdCIt0TnTwWuAFDLCUm+kPLhTYH9+3qS05PcPnYhzJ8nrqnl/iT/L8kPjl0IrLCLknxi7CJYDa4AUNOWJH+Z5NyxC4EVdHWS56b7CSAUEwCo7QlJrk/y6LELgRXy9STnJNk+ch2sEA8BUtuXkvx4kofGLgRWxINJfiw6fyrzDAB9+Nt0jdVL4ioTlNiV5JVJ3j92IaweAYC+fDZdEPihOM9gIx5O8qok7xy7EFaTb2f07QVJ/iDJMWMXAjNyZ5KXJ/mLsQthdQkADOGUJH+U5Fkj1wFzcHWSC9KNrgm98RAgQ9ie7l0Br0xyx7ilwGTdleQ16X7qp/Ond+7NMpTdST6T5B3p7m1+e5JDRq0IpuHuJL+W5F8muSLdZwV65xYAY9mW5GVJfiLd1QFXo2jJrnSv0X5nkvfE2P6MQABgCo5Ncl6Sf5rknyR5cpLj0r1d0FUC5mxHus79jnS/irkpyTVJPpbuQT8YjQAA/Sq9nDv3z2jr2w+T5bIrADRIAACABgkAANAgAQAAGiQAAECDBAAAaJAAAAANEgAAoEECAAA0SAAAgAYJAADQIAEAABokAABAgwQAAGiQAAAADRIAAKBBAgAANEgAAIAGCQAA0CABAAAaJAAAQIMEAABokAAAAA0SAACgQQIAADRIAACABgkAANAgAQAAGiQAAECDBAAAaJAAAAANEgAAoEECAAA0SAAAgAYJAADQIAEAABokAABAgwQAAGiQAAAADRIAAKBBAgAANEgAAIAGCQAA0CABAAAaJAAAQIMEAABokAAAAA0SAACgQQIAADRIAACABgkAANAgAQAAGiQAAECDBAAAaJAAAAANEgAAoEECAAA0SAAAgAYJAADQIAEAABokAABAgwQAAGiQAAAADRIAAKBBAgAANEgAAIAGCQAA0CABAAAaJAAAQIMEAABokAAAAA3aOnYBsOI2jV0AwL64AgAADRIAAKBBAgAANEgAAIAGCQAA0CABAAAaJAAAQIMEAABokAAAAA0SAACgQQIAADRIAACABgkAANAgAQAAGiQAAECDBAAAaJAAAAANEgAAoEECAAA0SAAAgAYJAADQIAEAABokAABAgwQAAGiQAAAADRIAAKBBAgAANEgAAIAGCQAA0CABAAAaJAAAAAAAAAAAAAAAAAAAAAAAAAAAAAAAAAAAAAAAAAAAAABAkv8PwAewy5+6/uQAAAAASUVORK5CYII=;" parent="1" vertex="1">
          <mxGeometry x="595" y="172" width="32" height="32" as="geometry" />
        </mxCell>
        <mxCell id="J8z1492lwSMg4EI9UMlo-3" value="" style="shape=image;imageAspect=0;aspect=fixed;verticalLabelPosition=bottom;verticalAlign=top;image=data:image/png,iVBORw0KGgoAAAANSUhEUgAAAgAAAAIACAYAAAD0eNT6AAAABHNCSVQICAgIfAhkiAAAAAlwSFlzAAAN1wAADdcBQiibeAAAABl0RVh0U29mdHdhcmUAd3d3Lmlua3NjYXBlLm9yZ5vuPBoAACAASURBVHic7d17sGV1eebx79t9oGmbS/fIeAG5qeANEUGCig7jFQkFYo1jYSwyDqJhBFOZyYRRMWFIQlSMsVLjDS/REWMIo6WAGUWETBKJojS0iIQBVFoFo8Hp5tJybd75Y62G7uZ0n8v6rb3X3r/vp2pXKX3Wu5+zT/d+n7Mva0dmIkmS6rJk3AEkSdLoWQAkSaqQBUCSpApZACRJqpAFQJKkClkAJEmqkAVAkqQKWQAkSaqQBUCSpApZACRJqpAFQJKkClkAJEmqkAVAkqQKWQAkSaqQBUCSpApZACRJqpAFQJKkClkAJEmqkAVAkqQKWQAkSaqQBUCSpApZACRJqpAFQJKkClkAJEmqkAVAkqQKWQAkSaqQBUCSpApZACRJqpAFQJKkClkAJEmqkAVAkqQKWQAkSaqQBUCSpApZACRJqpAFQJKkClkAJEmqkAVAkqQKWQAkSaqQBUCSpApZACRJqpAFQJKkClkAJEmqkAVAkqQKWQAkSaqQBUCSpApZACRJqpAFQJKkClkAJEmqkAVAkqQKWQAkSaqQBUCSpApZACRJqpAFQJKkClkAJEmqkAVAkqQKWQAkSaqQBUCSpApZACRJqpAFQJKkClkAJEmqkAVAkqQKWQAkSaqQBUCSpApZACRJqpAFQJKkClkAJEmqkAVAkqQKWQAkSaqQBUCSpApZACRJqpAFQJKkClkAJEmqkAVAkqQKWQAkSaqQBUCSpApZACRJqpAFQJKkClkAJEmqkAVAkqQKWQAkSaqQBUCSpApZACRJqpAFQJKkClkAJEmqkAVAkqQKWQAkSaqQBUCSpApZACRJqpAFQJKkClkAJEmqkAVAkqQKWQAkSarQTNcBEbEK2BWI7nEkSdIcErgzM9d1GRKZOf8vjtgbeDVwLPBU4InATl0CSJKkRbkX+BlwM3AxcGFm/ni+B8+rAETEK4GzgOcvMqQkSerft4AzM/Nrc33hdgtARBwMvB94ablskiSpZ5cDv5uZa7b1BdssABFxIvBxYFk/2SRJUo/uA96cmefN9oePehdANN4LfAaXvyRJk2oZ8JmIeG9EPOqF+rO9DfCPgNN7jyVJkkbhdJrdvoUtngKIiBOAvxphKEmSNBqvz8zzN/2fhwtARDwduBpYPqZgkiSpP/cAh2TmDbDlUwDvweUvSdK0Wk6z64H2EYCIOAL4xvgySZKkEXlRZl6x6RGAd401iiRJGpV3QXP+/l2B24EdxhpHkiSNwgPA7kuAX8flL0lSLXYAfn0JcPS4k0iSpJE6egmw77hTSJKkkdp3CbDHuFNIkqSR2iOAu4EVHQfdCcz9ucKTYQUw03HGr2heZNHFcmDHjjPupfkwiC6WATt1nHE/zQkoutgBeEzHGQ8CGzrOWArs3HFG0vyb6WLTC3i7uqPAjN0KzLgLeKjAHKkGJf79bwjKLO5Vmbm+wJyxi4ivAkd1HLPF6RYXmeOjwG91zPGOzHzP3F+23RxvB97dMce5mXlKxxwlTlN9SWa+qmOOg4FrOuZYm5n7dsyxEljXMQeZ+agPCFlElvV0LwH7ZeYtXbNINSj173+2DwOSJElTzgIgSVKFLACSJFXIAiBJUoUsAJIkVcgCIElShSwAkiRVyAIgSVKFLACSJFXIAiBJUoUsAJIkVcgCIElShSwAkiRVyAIgSVKFLACSJFVoYgpARHT+3HJJkvo0SbtqZtwBticijgZeBrwAOCQi1gLfbC+fy8y7x5lPklS3iNgZ+A2aPfUCYJ+IuJpmT12WmV8ZZ77tGWQBiIgnAx8BXrnVHz2tvbwReFdEnJqZF484niRJRMSxwIeAvbb6oxe2l9+NiK8B/ykzfzjqfHMZ3FMAEfEG4Doevfy3thdwUUR8pv9UkiQ9ot09F/Ho5b+1VwLXtbttUAZVACLiSTS/+S9fwGEnRsRJPUWSJGkL7c45cQGHLAc+0u64wRhUAaB5KGWXRRz3pxHxhNJhJEnaXLtr/nQRh+5Cs+MGYzAFICJeCBy3yMNXAWcUjCNJ0mzOoNk5i3FcRBxeMkwXgykAwMs7Hn9MkRSSJG1b113zwiIpChhSATiy4/H7RcTjiiSRJGkr7Y7Zr+MYHwGYxYqBzLjfGc6YgBkPDGQGDOc2kfpWYsc8q8CMIoZUAH5VYMaDBWZcV2DGtQVmDCXHNH0vJXLcRPdl1fl7ycwNwI86jilxe0D372ddZt5WJInUrxI75gcFZhQxpALQ9c7sXzLzJwVyXN3x+HWZefMAciRwVYEcV7Wzuuj6vdDepusGkOMB4Hsdx3yna45W1++n8+3R6vr9lMoh9ardMf/Sccw1JbKUMKQC8Ncdj/96kRTdl+a3i6Rolsx9HY6/MTPXdw3Rzrixw4j76L4wN+l625YoRNB94V1ZJEX3HKWKSNfvp1QOaRS67prBFN4hFYDLgLWLPDaB95YIkZm3AJ9a5OEPAX9YKMd9wJ90GHFmiRwFZv1J+72U8Ic0t/FifKr92ZbwPmCxn0Pxt8DfFcrxMWCxD53fDJxXKMeXWXy5+n/AnxfKIY3Ce1n8o6JXAv+7YJbOssBlZWbS9ULz9ogHFnH955a4/s1y7EpTRhaa4/2Fc8zwyEPwC7l8oWSONssXFpHjKmCmcI73LyLHWmDXwjlOWUSOu4H9Cuc4ehE5NgJHFM5xIM2jPQvNckLpv6tevPR9Ac5dxN/1e4FnFLr+lYu4/tkuRYYUKQDtN3YaCysBlwI79PADPhJYv4AcVwDLe8jxDODWBeS4AXhcDzke186eb45bS/1l3yrH8va2nm+O9cCRpXO0WT63gBz3ASf2lOPdC8jxEPCOnnK8leZFUvPN8pE+cnjx0vcF2KHdPfP9u/4AcErB65/OAtB+c8+heb53e9e5EXgPsGOPP+S9aJ7vmeuO/R3A0h5zrAI+O4879j+jhxKyWY7l7XU8NEeWzwKresyxtL3N5/qN8+vAXn3laLO8EbhjjhzXAAf1nONo5i6KP6SnMrRZjl8D/mmOHL8A/l2fObx46fsC7NjuoI1z/H3/Zul//xQqANH+j65WZYEXnG0uIpbQfMbykTR3Ks+iucO/BbgY+HRm3lDyOreRI9oc/xY4tM1xF80LOVYDf5mZpd5ONVeWo2nOQnUoTUl6gGa5XA18PjP/cUQ5Xgi8FjgEeC5NG/4uze3xNzmiz7+OiAOBN9DcHofQnGv7+22O/wN8Ltt/LT3n2Bt4U5vhEOAJNI+WrAb+EfhkNu8e6DvHKuAtwGFtjn1p3nK0muaFdudm5mJfu7CQHDu1OQ6n+dnsT1NOVreXj2XmL/rOIY1CRDyd5heBY2n+zS2jeYvtt2le8/PXmbnY1y5t6zpX0v1dUQy2AGwtInbMzLGfLCQiZjKzxHtBu+ZYCjw0igU3R44AlmTmxnHmaLMM5WezwygWvjmk4RnFripVAGYKZBmJISx/gCEsGIAhLFyAtoAMJctQfjaDWHbmkEZvKLtqPob0NkBJkjQiFgBJkipkAZAkqUIWAEmSKmQBkCSpQhYASZIqZAGQJKlCFgBJkipkAZAkqUIWAEmSKmQBkCSpQhYASZIqZAGQJKlCFgBJkipkAZAkqUIz4w7Qh4hYAbwUeAqwJ7DHZpdlY4wmSRqu+4DbNrvcCvwAuDwzN4wzWB+mpgBExO7AccDxwCuAncabSJI0gQ6Y5b/dGxGXAl8CLsrM20ecqRcBZIE5qzJzfYE5CxYRzwTOBo4Flo4jgySpGhuBi4EzMvP6cQSIiJXAuq5zJvY1ABGxZ0R8AriW5rd+l78kqW9LaXbOtRHxiYjYc9yBFmviCkBELI2Is4CbgDfh4pckjd5Smh10U0ScFRETt4sm6imA9mGP84Gj+r4uSZIW4BLghBHuwnqeAoiIpwFX4vKXJA3PUcCV7a6aCBNRACLiJTTLf7ZXZ0qSNAQH0JSAl4w7yHwMvgC0beqLwG7jziJJ0hx2A744CY8EDLoAtM9zXITLX5I0OXYDLmp32GANtgC0r6g8Hx/2lyRNngOA84f87oDBFgDgD/AFf5KkyXUUzS4bpEG+DbA9scJNwPJSMyVJGoN7gP0z89ZSA6f9bYBn4fKXJE2+5TQ7bXAG9whAe27/a/EMf5Kk6bAROKjUZwdM8yMAZ+PylyRNj6U0u21QBvUIQPuRvv+MBUCSNF02Ak8o8VHCpR4BmOk6oLDjKL/81wJXAN8BVgN3FZ4vSZoOuwCHAocBRwD7FJy9lGbH/UXBmZ0MrQAcX3DW/TQvvDgnMx8sOFeSNL3+ASAiZoDTgTOBHQvNPp4BFYDBPAUQESuA24GdCuT5J+B1mXldgVmSpEpFxIHABcAzCoy7F9g9Mzd0zDR1LwJ8KWWW//24/CVJBbS75HU0u6WrnWh23SAMqQA8pdCcs1z+kqRS2p1S6r38pXZdZ0MqAHsWmLEWOKfAHEmSNncOzY7pqsSuK2JIBWCPAjOu8AV/kqTS2t1yRYFRJXZdEdNWAL5TYIYkSbMpsWMsALMocaOsLjBDkqTZlNgxFoBZLCsww5P8SJL6UmLHlNh1RQypAEiSpBGxAEiSVCELgCRJFbIASJJUIQuAJEkVsgBIklQhC4AkSRWaGXeAwj4UEdt7n+ZDwE3AGuAa4LuZWeLjkOcUEbsBhwEHA88FHjuK65WkCfBLmvvkNcB3MvOOUVxpRATwHJr75IOB/dn+L8a7FLjakeyc+QjKhFmVmes7BYm4BdinQJaF+HvgpMz8QZ9XEhGvBz4I/Ks+r0eSpsA64Lcz87N9XklE7Ad8Cjiyz+uZxdrM3LfLgIhYSXM7dVL7UwD/Brg2Ik7tY3hE7BYRFwCfw+UvSfOxCjgvIr4UEav6uIKIOBm4ltEv/0GpvQAAPAb4YEQc1cPsDwP/voe5kjTtXg18tPTQiHg58HFg59KzJ40F4BEfj4hdSw2LiNcCv1FqniRV6HUR8bpSwyJiF+CTpeZNOgvAI/YCziwxKCKWAx8pMUuSKveh9j61hP8O7F1o1sSzAGzp5YXmHATsXmiWJNVsd5r71BJK3cdPBQvAlp5ZqGkeXGCGJKnR+T61vW9/ZoEsU2NIBWAI742coUzTtABIUjkl7lMPYhjnvhnCrgOGVQB6fS/+ApR420kvb12RpEpN0/3yUHbdoArAVeMOIElSzwaz64ZUAFaPO4AkST0bzK4bUgH4CrB23CEkSerJWppdNwiDKQCZeTdw8rhzSJLUk5PbXTcIgykAAJn5dXo49aMkSWP20XbHDcagCkDrrcDbgA3jDiJJUkcbaHbaW8cdZGuDKwDZ+CDwbODzwM/HHEmSpIX6Oc0Oe3ZmfjAzB/P+/02GcFKEWWXmj2g/SS8inkRzIoi5Pr3pPcA+PUcblU8Cg3q4SJIW4eXAm8YdopC1wNvn+Jq7gTWZ+dMR5OlksAVgc+0NOeeNGRFvZ3oKwFWZef64Q0hSFxGxkukpAOun6X55cE8BSJKk/lkAJEmqkAVAkqQKWQAkSaqQBUCSpApZACRJqpAFQJKkClkAJEmqkAVAkqQKWQAkSaqQBUCSpApZACRJqpAFQJKkClkAJEmqkAVAkqQKzYw7gIYnIpYABwDPAZ4K3AxcDdycmTnObFuLiBXAwcAhwCpgDbA6M28dazBJGjgLgB4WEQG8BXgvsNssX/LLiPi9zPzUaJM9WkSsBN4PvJFZHsmKiO8BJ2XmVSOOJkkTwacABEBEPBm4DPgosy9/gMcCfxERX46IJ44s3FYi4njgeuAktv13+NnANyPi7IjYcWThJGlCWABERDwb+BbwknkecgxwaUQs6y/V7CLid4AvAvMpIDPAO4Fzeg0lSRPIAlC5dvlfBvzrBR76LOCs8om2rV3+H1jEoW+LiBeVziNJk8wCULEOy3+T/xoRzysYaZs6LH9o/p5/yqcCJOkRFoBKFVj+AEuB15RJtG0dl/8mT6V5V4MkCQtAlQot/00OKTBjmwot/016zSpJk8QCUJnCyx96XKqFlz9YACTpYRaAivSw/AEeLDjrYT0sf+gpqyRNIgtAJXpa/gDfLTyvr+UPPWSVpEllAajAZif5Kb38oTn1bjE9Ln8onFWSJpkFYMpFxA7A+fSz/B8E/lepYT0v/+uxAEjSwywA0+8M4LCeZr8vM68pMajn5b8R+I+ZeX9P8yVp4lgAplj7qX4n9zT+BgqdCbDn5Q9NUfl2j/MlaeJYAKbbkcCePcz9KXBsZt7XddAIlv/ngd/vcb4kTSQLwHR7Wg8zfwq8JDNv7jpoRMv/9Znp2/8kaSsWgOm2S+F5Ln9JmhIWgOnW+SH6zbj8JWmKWACm298VmuPyl6QpYwGYbtcCv+g4w+UvSVPIAjDFMjPp9lY9l78kTSkLwPQ7l8WdA9/lL0lTzAIw5TJzI3AMcN0CDvs+Ln9JmmoWgApk5q3Ai2nO25/b+dKNwLuBQ1z+kjTdZsYdQKORmeuB10XE04G3Ac8FDgDuB1a3lwsn5Nz+4PKXpE4sAJXJzBuAU/u8Dpe/JA2fTwGoKJe/JE0GC4CKcflL0uSwAKgIl78kTRYLgDpz+UvS5LEAqBOXvyRNJguAFs3lL0mTywKgRXH5S9JkswBowVz+kjT5LABaEJe/JE0HC4DmzeUvSdPDAqB5iYhX4fKXpKlhAdCcImJX4GM9XoXLX5JGzAKg+TgH2Kun2S5/SRoDC4C2KyICeH1P413+kjQmFgDN5QBg1x7muvwlaYwsAJrLoT3MdPlL0phZADSXZYXnufwlaQAsAJrL6oKzXP6SNBAWAM3leuCeAnNc/pI0IBYAbVe7sL/acYzLX5IGxgKg+TgNWL/IY13+kjRAFgDNKTNvA357EYe6/CVpoCwAmpfMPA84BbhrHl/+APAHuPwlabAsAJq3zDwXOBC4ZDtfdg1wWGb+kctfkoZrZtwBNFky88fAqyLiscDzaE4UtIzm7YKrM/PWceaTJM2PBUCLkpm/pHkkYHuPBkiSBsqnACRJqpAFQJKkClkAJEmqkAVAkqQKWQAkSaqQBUCSpApZACRJqpAFQJKkClkAJEmqkAVAkqQKWQAkSaqQBUCSpApZACRJqpAFQJKkClkAJEmq0My4A8xHRDwJOBjYeY4vXTmCOKPyvIg4YdwhJKmj5407QEEr53G/fDewJjN/OopAXQy2AETEfsA5wIuBx485zji8qb1IkoZhH+Cv5vOFEfFz4B+A0zPzR72mWqTBPQUQjdOA7wGvpc7lL0mabI+n2WHfi4jTIiLGHWhrgysAwIeB/wGsGHcQSZI6WkGz0z487iBbG1QBiIiXA6eMO4ckSYWd0u64wRhMAYiInYFPjDuHJEk9+US76wZhMAUAOJrmBRaSJE2jfWh23SAMqQAcOu4AkiT1bDC7bkgFYJreKypJ0mwGs+uGVACeMu4ArXUDmSFJakzT/fJQdt2gCsAQ3iP5IHBtgTlrCsyQJDVK3KdeS3MfP25D2HXAsArAEFyfmfcUmGMBkKRyOt+ntvft1xfIMjUsAFv6eqE51wK3F5olSTW7nTKPzEK5+/ipYAF4xE+As0oMapvmqSVmSVLlTi30yCw09/E/KTRr4lkAHvHmzLyz1LDMvAC4oNQ8SarQBe19aRHtffybS82bdBYA+BVwWmZe0sPsU4ALe5grSdPuQno4NXx7X38azX1/1WovAH8PHJSZH+pjeGauy8zjgRMZzltQJGnI1gEnZubxmdnL/WZ7n38QzQ6oVgBZYM6qzFzfKUjELXQ/FfBq4O7t/PlG4CbgqvZr12Rmie9/ThGxG3A4zVmgDgV2H8X1StIEuJ3mPnk1cGVm3jGKK20/ovdgHrlfPgBYup1DVtD9RD63ZOZ+XQZExEoK/FI5bQXguZnpW/AkScVFxMHANR3HrM3MfTvmKFIAan8KQJKkKlkAJEmqkAVAkqQKWQAkSaqQBUCSpApZACRJqpAFQJKkCg2pANxXYMYuBWZIkjSbEjumxK4rYkgF4LYCMw4tMEOSpNmU2DEldl0R01YADiswQ5Kk2ZTYMRaAWZS4UY6IiJkCcyRJeli7W44oMMoCMItbC8zYBzi9wBxJkjZ3Ot0/rwbK7LoihlQAflBozpkRcWChWZKkyrU75cxC40rtus6GVAAuB+4tMGdH4AJLgCSpq3aXXECzW7q6l2bXDcJgCkBmbgAuLTTuGcDqiHinrwmQJC1URMxExDuB1TQ7pYRL2103CENbjl8Cji00a0fgbOAtEXEF8B2aH+RdheZLkqbLLjRv9TuM5gV/JZ7z39yXCs/rJIAsMGdVZq7vHCZid+CfgaXdI0mSNBgbgSdk5u1dB0XESmBd1zmDeQoAoL1hLh53DkmSCru4xPIvaVAFoHUGTVOSJGkabKTZbYMyuAKQmdcDnx53DkmSCvl0u9sGZVCvAdgkIvYEbgKWl5opSdIY3APsn5nFTgA0la8B2KS9od437hySJHX0vpLLv6RBPgIAEBFLgb8Bjio5V5KkEbkEOCYzi76ubaofAQBob7ATgBvHnUWSpAW6ETih9PIvabAFAKB9VOE44I5xZ5EkaZ7uAI4r/ch4aYMuAACZ+X+B12AJkCQN3x3Aa9rdNWiDLwAAmfm3wOH4dIAkabhuBA5vd9bgTUQBgIcfCTic5kUVkiQNySU0y3/wv/lvMjEFAB5+TcAxwB/SvLdSkqRxuodmJx0z9Of8tzZRBQCadwdk5pnA/sAn8bTBkqTR20izg/bPzDOH/Gr/bZm4ArBJZt6amScDB9F8xOLE3fiSpImzkWbnHJSZJw/1JD/zMdgTAS1U+1HCxwHHA68AdhpnHknS1LgXuJRm8V807k/1K3UioKkpAJuLiBXAS4GnAHsCe2x2WTbGaJKk4boPuG2zy63AD4DLM3PDOINtzgIgSVKFpv5UwJIkqT8WAEmSKmQBkCSpQhYASZIqZAGQJKlCFgBJkipkAZAkqUIWAEmSKmQBkCSpQhYASZIqZAGQJKlCFgBJkipkAZAkqUIWAEmSKmQBkCSpQhYASZIqNDPuANsSEQG8FngR8BzgmcBtwJr28j8zc934EkqSahcRq4D/ABzcXvYArge+C3wD+Hxm5vgSblsAJYKtysz1BeYAEBEHAh8FjtjOl/0C+C+Z+ZelrleSpPmKiDcAfwY8bjtfdgVwSmZeV/B6VwKdfwEe3FMAEfFbwDVsf/lDc4N/NiIujIjBfR+SpOkUEUsi4kLgs2x/+UOzy65pd9ugDGpxRsSTgQ+wsKcmjgPe2k8iSZIe5a00u2e+ZoAPtDtuMAb1FEBEfA14xSIOvRt4Vmb+uGsGSZK2JSL2Br4P7LyIwy/NzFcWyDBdTwFExItZ3PKH5gfxewXjSJI0m//G4pY/wCsi4kUlw3QxmAIAvLjj8YcXSSFJ0rZ13VUvKJKigCEVgK43ykERsUORJJIkbSUidgWe1XHMr5XIUsKQCsDjOx6/DNi7RBBJkmaxO9335tNLBClhSAXgRx2PfwDwRYCSpL78BNjYccaNJYKUMKQC8MOOx1+fmQ8USSJJ0lbaHfOTjmOuLpGlhCEVgC90PH51kRSSJG1b11317SIpChjaeQC+DByziEPvAJ6dmV2bmSRJ2xQRj6N5yvoxizj8q5l5dIEM03UegNYZwIZFHPc2l78kqW+Z+Qvg3Ys4dD1wcuE4nQyqAGTmd4GjgDsXcNifZ+Z5PUWSJGkLmfnHwNkLOOQu4Dcz89aeIi3KoAoAQGZeAbwUmOuTk24Hjs/M3+k/lSRJj8jMdwH/mbkfir8SeG5mXtx/qoUZ1GsAthYRrwBOBZ4C7ArsQPP5yl8FLsrM20tfpyRJ8xURK4DfBN5Ac56AXWg+n+ZrNLvqksx8sPB1FnkNwKALgCRJ2tK0vghQkiSNgAVAkqQKWQAkSaqQBUCSpApZACRJqpAFQJKkClkAJEmqkAVAkqQKWQAkSaqQBUCSpApZACRJqpAFQJKkClkAJEmqkAVAkqQKWQAkSaqQBUCSpAoFcDewouOcO4HsHkeSJM0hgF07ztgwA/wMeGrHQV2DSJKk0fnZEuC2caeQJEkjddsS4JZxp5AkSSN1yxLgK+NOIUmSRuorm15IcDuww5jDSJKk/j0A7L4kM+8ELht3GkmSNBKXZeadkZlExBHAN8adSJIk9e5FmXnFEoDMvAK4cMyBJElSvy5sdz6R2Zy/JyKeDlwNLB9jMEmS1I97gEMy8wbY7FTA7X84aVypJElSr07atPxhq88CyMzzgbNHHkmSJPXp7HbHP2y2DwP6feCc0eSRJEk9O4dmt2/h4dcAPOoPIk4EPg4s6zeXJEnqwX3AmzPzvNn+cJsfB9we8Hzg8p6CSZKkflwOPH9byx+2UwAAMnNNZr4MOAr4VuFwkiSprG8BR2XmyzJzzfa+cJtPAcz6xRF7A68GjqX5COEnAjt1CCpJkhbnXuBnwM3AxTTv8f/xfA9eUAGYdUDEKprPE4hOgyRJ0nwkcGdmrusypHMBkCRJk2e7rwGQJEnTyQIgSVKFLACSJFXIAiBJUoUsAJIkVcgCIElShSwAkiRVyAIgSVKFLACSJFXIAiBJUoUsAJIkVcgCIElShSwAkiRVyAIgSVKFLACSJFXIAiBJUoUsAJIkVcgCIElShSwAkiRVyAIgSVKFLACSJFXIAiBJUoUsAJIkVcgCIElShSwAkiRVyAIgSVKFLACSJFXIAiBJUoUsAJIkVcgCIElShSwAkiRVyAIgSVKFLACSJFXIAiBJUoUsAJIkVcgCIElShSwAkiRVyAIgSVKFLACSJFXIAiBJUoUsAJIkVcgCIElShSwAkiRVyAIgSVKFLACSJFXIAiBJUoUsAJIkVcgCIElShSwAkiRVyAIgSVKFLACSJFXIAiBJUoUsAJIkVcgCIElShSwAkiRVyAIgSVKFLACSJFXIAiBJUoUsAJIkVcgCIElShSwAkiRVyAIgSVKFLACSJFXIAiBJUoUsAJIkVcgCIElSM00YugAAAJZJREFUhSwAkiRVyAIgSVKFLACSJFXIAiBJUoUsAJIkVcgCIElShSwAkiRVyAIgSVKFLACSJFXIAiBJUoUsAJIkVcgCIElShSwAkiRVyAIgSVKFLACSJFXIAiBJUoUsAJIkVcgCIElShSwAkiRVyAIgSVKFLACSJFXIAiBJUoUsAJIkVcgCIElShSwAkiRVyAIgSVKF/j+Al4kLR28TWAAAAABJRU5ErkJggg==;" parent="1" vertex="1">
          <mxGeometry x="540" y="163" width="50" height="50" as="geometry" />
        </mxCell>
        <mxCell id="6f0N8QEFV3jsu9IEoGaZ-2" value="" style="shape=image;imageAspect=0;aspect=fixed;verticalLabelPosition=bottom;verticalAlign=top;image=https://cdn2.iconfinder.com/data/icons/autonomous-car-1/512/autonomous_0019-512.png;" parent="1" vertex="1">
          <mxGeometry x="330" y="163" width="50" height="50" as="geometry" />
        </mxCell>
        <mxCell id="6f0N8QEFV3jsu9IEoGaZ-3" value="" style="shape=image;imageAspect=0;aspect=fixed;verticalLabelPosition=bottom;verticalAlign=top;image=data:image/png,iVBORw0KGgoAAAANSUhEUgAAAgAAAAIACAYAAAD0eNT6AAAABHNCSVQICAgIfAhkiAAAAAlwSFlzAAAOxAAADsQBlSsOGwAAABl0RVh0U29mdHdhcmUAd3d3Lmlua3NjYXBlLm9yZ5vuPBoAACAASURBVHic7d13vCVFnf//1zAzwCA5B0WSAiKKIgaMYMCErmkNiAkXXReza17XNa9Zf2ZdI6iYvgYUEQF1wUQURJAoIjCIwAwZJtzfH597d4ZhwjlV1af6nHo9H496uLrTpz7d997u9+murgL1zdrA84HvA5cCtwJTPWi3ARcCxwAvAtbr6gAsZwPgJcCxwEXAog73r09tPvAb4D3ADrkHcQCzgEcCRwBnATd0uG/DtKXEsTgJeCOwZVcHQJJq2x84n/on3kHaP4And3MYAHgWsKAH+1m7LQE+SgTDLuwCnNKD/RykXQe8hggskjQxXsD4fcNdCry1g2Px3z3Yt7613wDr5xzUlXg4sLAH+zZs+xqwVuFjIUlV7EfcYq99Yk1pS4GnFzwWz+/BPvW1fZty337vAvy9B/uU2t5T6DhIUjVzGZ/b/qtqC4EtChyLLYGberA/fW4vSD24K/hxD/Ylpy0G9ix0LCSpioOpfzIt0d5e4Fi8rQf70fd2bvLRXWZ34s5N7X3JbV8vcCykZvkcrb6n1i6gkCcV+IyDC3zGpNt1uuU4iMkYSPcEYJ3aRUjjygBQ331rF1DIruT9Pq0D7Fiolkm3W+b2uxepor4NgZ1rFyGNKwNAfZPybvN6wGYZ298ZmF2olkm3feb2dylSRT9sU7sAaVwZAOrr6v3uUVsCXJux/dWlCmnAPzK3v6ZIFf0wKX8/0sgZAFTKFcTI7FQLiBnotGZ/q7y9pAlgAFApx/fkMybd9cDJmZ/hcZZkAFAxnyvwGZ8p8BmT7ivALZmf8T1iEiBJDTMAqITfEAu25Pop8KcCnzOplgAfKfA5twCfKvA5ksaYAUAlfLHQ50wBXy70WZPoF8SqiCV8qdDnSBpTBoDxNpuY0KVEW5RRx4kZ267ouIxtr6Xc8eiqfS1j/0rcZZnxV+C8jO0PoNwxOTqjDkmJDACCeJVqbuK2U8TFpJSci9IGxaroTs6Kfn8pVcS08zO23bBYFZKqMAAI4E4Z2y4kFvAp5QZinvoUc0gPMqOyXsa284tVERZmbDuvWBWSqjAACGIp4lQbEBfeUtYl/fdyCXmPMkYhp75NilURcsLIzcWqkFSFAUAAN5L+atlsYLuCteyRsW3JOxFdyZnxMHcK4BXlHOsbi1UhqQoDgGbkXJgOKFYFPCxj23GY4S5nGt/HFKsiQlvOQjqXlSpEUh0GAM34c8a2zyxWBbwwY9sLi1XRnZxBjg+l3OI3zyf973+Kcq8jSqrEAKAZp2dsuz/w6AI1PAvYM2P7PxSooWunZWw7B3hHgRo2BV6Vsf2FuG6DNPYMAJpxaub2Hwc2yth+G+DDmTX8JnP7UfgjeYMuXwjsl7H9LOATwBYZnzEOx1mSem8JcUs1pZUMcJsRI9RTa5kCjiVtedaNgFMy+74V2Dih7xqOJm9frwHukdj3OzP7ngJekNj3qvwko5bHFa5FkkamLwEAYpW43IvDb4C7DNHnrsT8/7n9/jhpj+t4Cfn7ew1w4BB9rgv8T4F+byMeIZRkAJDUpD4FgJdm1LLixeltrP4b+TbAfxOvH5bo87nZez86WxF3LHL3eSnwDVY/bmId4CDg4gL9TQE/yt77OzIASBXMql2AWEL6hXw26bPmrcydgEspN+HMrcBviTnsryMGju0I3A94CFF/CX8n3pG/tdDnzQLuTbwmN4+Y6vh3BT8f4KvAwQU/70/ACcTP7wZgc+I9/0dT9tHI44hVG0v6CekX8sfjWgKSxlSf7gAAvC+jnlrtbYX2fQ7wMuCSlfRxHfBRYqxECfdZSR99b2fRzZcG7wBIalLfAsAWxC382hebQdt8yiwCtBHwswH6+ytxd6CE7wzQX5/aEwvt94oMAJKa1LcAAPCKjJpG3V5cYH9nA8cM0ecVwJ0L9HtXYvri2sdwkPazAvu7KgYASU3qYwCYQ/5reaNoP6fMLelDE/r+boF+Ad6U0Peo2/XADoX2d2UMAJKa1McAALALsVxs7YvPqtrMwL8SLkjofylwtwJ9r8Vgjx5qthcU2M/VMQBIFTgToFblAuL2+lTtQlZiMTFt8F8LfNbupC2KM4syz8SXEm8D9HVxnU8BX65dhKTyDABanW8T4wH6ZIqYr+D4Qp+XsyJezrbLu5JYT+HKQp9Xyg+BV9YuQlI3DABak08Ab61dxLSlwL8RM9qVkrN+Qcn3688DngAsKPiZOY4G/pm42yJpAhkANIh3A4cQawXUcisxo92nK9bQtVOB+wPnV67jy8CTKTvxkaSeMQBoUF8kBlxdUaHvC4B9gW9W6HvUzidmSTyuQt+3AocRKw7WDHuSRsAAoGEcR8w7/+0R9bcU+AywN3DaiPrsg78TU/i+Erh5RH2eDDwA+OSI+pOk5vX1NcA1eRRxUe7q1bNfErfDu3ZQRo2Hj6C+uxC35HN+T1bX/kYMqqz5u+RrgJKaNK4BgOn+nwQcS3xbz70YLQJ+AOw3wn3oewCYsTvx7fz6jHqXb2cRAyrXHeE+rIoBQFKTxjkALG9n4HXEN/ebGXwfbiRGnB8GbDvyqscnAMzYEHgm8HXitcFBa10CnAG8h7jV3ycGAKmCObUL0MS4EPjgdJtLLEW7B7ANcWG/0/S/u4m47XwZ8S30XOLipMFcBxw53SAeEexFrCuwJbDV9P++mAgIlxIDC88glgmWJMAAoG4sIi44Z9QupAGXTjdJGkqfbiFLkqQRMQBIktQgA4AkSQ0yAEiS1CADgCRJDTIASJLUIAOAJEkNMgBIktQgA4AkSQ0yAEiS1CADgCRJDZpVu4AJtxPwVGBvYDtgvZX8m70zPv/UjG0VNgV2TNz2GuDigrW0ahdgo8RtLwAWrvC/LSIWQjoHOAr4NbFyoKTlGAC6sQXwAeBgvMsi1fYb4BXAKbULkfrEAFDe7sCPSf9WKam8W4AXAd+oXYjUFwaAsjYDfgfsXLsQSXewGHgscFztQqQ+8PZ0WR/Fi7/UV3OAr7DysThSc2bXLmCC3A34LN5VkfpsQ+AK4OTahUi1eQegnKfh8ZTGwTNqFyD1gRescvapXYCkgdy/dgFSHxgAytmqdgGSBjIP2Lh2EVJtBoBy1qldgKSB+feq5hkAJElqkAFAkqQGGQAkSWqQAUCSpAYZACRJatCc2gUIiFUDz6ldhDRmfkYs5ywpgQGgH84FTq1dhDRmFtUuQBpnPgKQJKlBBgBJkhpkAJAkqUEGAEmSGmQAkCSpQQYASZIaZACQJKlBBgBJkhpkAJAkqUEGAEmSGmQAkCSpQQYASZIaZACQJKlBBgBJkhpkAJAkqUEGAEmSGmQAkCSpQQYASZIaZACQJKlBBgBJkhpkAJAkqUEGAEmSGmQAkCSpQQYASZIaZACQJKlBBgBJkhpkAChnSaVtJUkamgGgnKsytp1frApJkgZgACjn1MTtLscAIEkaMQNAOd8CliZsdyQwVbgWSZI0Ql8mLuaDtmuBLWsUKk2A+Qz397Z826pCvZIm2AbAHxjsBLQIeFydMqWJYACQ1CubAEex+pPPFcD+tQqUJoQBQFIvHQB8E7iMeM3vOuAk4HXA+hXrkiaFAUCSpAYZAKQMvgUgSVKDDACSJDXIACBJUoPm1C5AqmxzYAfimfBm021dYKOV/NtbiSmfryKeP18MXIoTOUkaQwYAtWJD4AHAXsC9gD2Bncl/I+Mm4M/AecA5wJnEXBAXYzCQ1GOzahcgdeROwCOBxwAPBfYAZo+w/+tYFgb+AJwB/BG4eYQ1TLr5pI/m3xq4smAt0tgxAGiSbAY8FXgG8DBgnbrl3MFi4FzgdOC06f88A1hYs6gxZgCQMhgANO7mAAcCLya+7Y/bY60p4CKWBYKZ5sVpzQwAUgYDgMbVpsDLgZcA21SupQuXcftAcDrwl5oF9ZABQMpgANC42QL4N+BVrHyk/iRbSIwjOHW5di4x1XSLDACS1IDtgY8BN5I+/esktluBs4GvAq8EHkK8xtgCpwKWMngHQH23HvBmYhGlvg3q66vbiDsFM4MMTyfeSLi+ZlEd8A6AlMEAoD57IvBxYMfahUyIK7j944NTpv+3cWUAkDIYANRH2wHvBQ6uXUgDrgX+xO2DwTnA0ppFDcgAIGUwAKhvDiG+9a9Xu5CGXUc8OphppxPjDBbVLGolDABSBgOA+mJ94DPAQbUL0UotJqY7nrlLcDYRDK6uWJMBQMpgAFAf7A58C7hn7UI0tBXHFZxNTGw0CgYAKYMBQLW9mLjlP692ISpmPrd/A+F04ELKL45kAJAyGABUyyzg3cCbahdCzC3wZ2Kmveum//sNwALiorUBsbjQnYCNiYvHbsSkRBrM9cSiSMsHg7OJVxZTGQCkDAaA7jwYeCGxEt1WxAXlT8B3gS8TE7i0ag7xvP+QCn1fA/xyup1NXPgvTfysTYG7A/cAHgTsD+xUoMZWLGLZWIKZUPAHIoQNwgAgqVfWB77J6mch+wtxwWjRPOD7jG6mvKXAr4DXAvcB1up4/+5KBL8jiaV/a88UOG5tKXAB8G1iAqjHs+q1HpwJUFJvrAf8nsFOQLcAj6hSZT0bERfjUVxIzgfeRt1JhDYixjj8iriw1b64jnObDxxNzA/xz8DdgL9nfJ4BQFJRn2O4k9BVxG3kFsxjNBf/o4GH07/HWzsDn8S7An1pBgBJxexKvCs97InofTWKHbE5wA/o7mS+BPgecL9R7VCGbYAPEoPial8EW24GAEnFvI20E9El9O/bakmzgP+huxP5L4F7jWxvytkc+DQRXmpfDFts91jzj0iSBnMU6SejrSvUOyrvpZsT+NXAoYx/eLov8FvqXxBbbNcAJxLLTD8P2IPuB4lKmkC/I/1EdO8K9Y7Cv9DNiftzwCYj3I+uzQYOI+Yf6OJ4LerocyexLSTuKn0UeAHxtzl3lT85SSKWVk096exdod6u7QncRNmT83XAs0a5EyO2G3Am5S9qbyW+3T6P+LZ7LPCPDvqZ1HYbMV/BV4FXAo+incG7kgZgAFhmfWJJ2ZIn4VOBXUa5E5WsS1ykSx67RcTEVCvaFjgQeDvwI+Dywv1Oert8+ri9ffo4TvKjPEmrYQBY5gjKnmi/BKwz0j2o78WUvXV/CYM9NtkWeALwFuA7LJvD3zZY+xsRCt4JPJW681BIGhEDQCj93P9jjP9Av1RPpOy4gB+Rdiw3BB5C3P7+LDFw7paCdU16W8iywYaHTh/L1gKteqjVE2sXTiH9Qn4/4hb3uNuBeFa6XoHPmgJeB3y4wGetzlbAPsTz912Juf03IGbx24CYw2ABcSG+kVjq9lxiDYEziUcdXdqXuHCXeub8QmItilzrEOM87gPsNf2f9yIWTNKa3QL8ETiNZesgnEmMm5E0ZrwDAD+kzDempcSFqgtziPnlP06cgHOn6L0cOJwYMb5RRzXvQd60t8u3q4DNOqpzNhGkng38NzHY8KpCdbfQFhMLhh0B/Dsx2LCrn5WkgloPAE+m3InwtR3UtydxNyFnAZk1tZuJhaAeT/n3ye9HudkDP1+4tjXZlriYvZIYSX82ro0wTJsZbPg+ls1X4N1bqUdaDgDziFvjJU527y1c24OJk+eoLzgXEM975xTcl/0p8+x9KfUXolp+XMFXib8fxxUM3hZw+0mM9gbWHuonIKmYlgPAeyhzUvsS5b7Z3BM4rlBdOe1CYjR4Kc+hTJg5k7hl3yfzgPsDLwE+Q0yuVXouiUluNxGzSn6GCJ/3nz6mkjrWagDYAbiV/JPXyZQZGb0e8V52iZpKtuOI5+MlfKBQTQcVqqdLs4lb3gcRiygdR0zhW/vnOS5tETHW5WvAa4i7SJM0i6bUC60GgE+Rf5JaAOxUoJZ9KPcooot2E/F+f645xO3f3HrOo+wjilGamcToDTiuIKUtP4nRM3BcgZSlxQCwNWVu0T67QC2H0r9v/atq3yH/jYG7UGY63+dn1tEnG3H7cQVnk7ZEd6vtWu64OFLfHhNJvdRiAPgg+Sedz2TWMId4r732yXPYdibxLTbHUwrUcSGTvdjNnYAHAf9KLCJ1Mg42HKbdAPwa+CQxydfeOImRdAetBYDNyH8t7Qpg44wa1gG+m1lDzfYXYvKhHD8oUMc4jAUoaQ7xWujzgI8AJxDffmv/PoxLuw34A/AV4FXAw+luDgxpLLQWAN5B/onkuRn9rwf8qkANtdvfiVutqXYgf7rg/83of5LsBDyNmMf/KOAy6v9+jFO7kHi89RZiPYncO1zS2GgpAMwlf0KdE0gfdDQb+F5m/31qlxEX8lRvLlDDPTP6n2RbAgcQgw2PJKaAXkL935lxaVcCPyVC1QHESqHSxGkpADydvJPCEtIvOLOIW4+1T2yl259In/Z1bfJX7ftEYt8t2oCYYOow4H+IdTzGZQBq7XYTEd6figMMNUFaCgDHkHcS+HZG36/O7LvP7SekTyH84sy+F+K3sxxziUWRXkiMov8VcUxr/071uf2FCFGTPAhVjWglAGxJ3qtVS4mV41Lsw+R/03pD4rFZG/hrZt8lXsfUMrOAXYj37N8DHE0MfK39O9a3dj7w2MRjLPVCKwHgX8n7Yz8qsd8N6HaSnwuBLxDzCTycGBC2BTFr2o7EYjzPIWbhO5nungMvAh6YeIxentn3NxP71XC2AR5HjN34NrFuhJMYwRdxOWmNqVYCQO78+g9J7PdDmf2urF1PLAt834R6tgNeD1zcQV1nkDZD3zzylg1eiO9417Ih8DBiEqMvEb8Dt1H/ojzqdiawc+axlEauhQCwIXknpT8n9rsn8c241EnmFuKWbIm11ucCL6D8K2OvSqzno5n9eiu2P+YSr4g+jxhXcCxwNfUv0l23+cR4CmlstBAAcmeee3Nivydk9rt8Owm4e2Idq7Mh8OmCdS4kHkEM676Z/ebOzKhurUVMHvVM4H3EgNycuz59bdcQwV8aCy0EgM+Qvo9LgO0T+nxYRp8rtg/S/eI3zyCmTy1R77sTa/hjRp8XJvapurYDngj8BzE7Zp8XxRq0/Y1Y80LqvRYCwNmk7+NxiX3+NKPPmbaEGCA3Kg+gzEI9C0ibKvmNmf1uldCn+mdDli2O9FlioZ9xWwfhd8QbLlKvTXoA2IS8ke+vTOhzr4z+lm+jvPjPuC9l3gN/U0Lfu2X2+aSEPjUe1iVepz2UeGT1G/Knku66vb+TIyEVNOkB4HHk/RGnPM/7WGafU8Rre7U8hvzXBc8jbcrknEGJ703oT+NrNrA7y15z7dtgw8WMxzlSDZv0APAm0vfvSoa/iM0lf3DTiXT/zH9N/ov8E+CDEvr9WkZ/JyT0p8mzPfBk4D+B7xMz99UKAb/udlelPJMeAL5B+v4dmdDfgRn9TQE3A3dL6Le0OcTSqTn78smEfl+Y0d/ChP7Uhk2BRwKvA44gxgXlzAw6THviCPZPSjLpASBnZPnLEvr7VEZ/U8C7EvrsSu6bDBcl9LlTZp8pryCqTesRA19fSgw2/D0RwEsHgF+NaoekYU1yAJhFrOKVun8PT+jz3Iz+riMGLfbJz8k7+e04ZH+zyHsd8QFJeymFOcSaH28g5vovFQKcG0C9NMkBYGvy/miHfa1s28z+PpK0l7e3IzGI70DibYTcpUsPIG+fDkno8/SM/p6V0N+w7k4MLn0CsTx0ymDHQa1NjH5/MrA/8d58lzYDHgr8E7F0cNdz3O9M/I49Ebg36atKdmE2sYZIibcNHKCqXprkAPBA0vft2oT+/imjvyniBJhiFvBcVv6440rgHcSiRClmExObpO7T5xL6/GZGf6mzNq7JHOJW8QUr6fNSYn2FeQX725JY72HBCn0tBX5LhI+S9iFW/VvxufjNwNcpOy5lLWIa6j9xx2M5nxi816clnvcif36Mc0detTSASQ4ATyZ9336b0F/ORDbnJfQH8Q3tewN+/q6Jffx/Q+zHiu2XCf29PaO/lMCxJpsCxw/Q92nAnQv090AGW37305R5W+S1rHlA3I3EbJG51gd+tIa+pohwsEuB/kq5P/mLHHV990Ya2iQHgENI37eUJWa/nNFfylz2s4g3FQbt4zLiMcWwctZSmJ/Q3wsy+vtWQn+rM5fBLv7LX7g2yuhvV+Lu06D9fSyjL4AXDdHXYuDxGX2tBfxwiP4upl+DOt9O+u/lFPD0kVcsrcEkB4DXk75vKd8kT8zo70UJ/T0/oZ8jEvrZJmO/poipXYfx1Iy+fpywf6uT8jv04Yz+Un6H9k/sazuGHyR7GTF6PsWhQ/Y1BXwxsa8ubMgdH8kM0/5z9CVPpj4NFFF/5TxHvD5hm5wR/CnPCN+YsM2zGH5k/hXEGwqphl0XIOXYzyg5aG0O8d74sF5G2loIDycG3g3r9QnbQNz6H3bcwrbEMr8pUn5fn0d/bp1fB/wgY/th/+60CgYADSJnMY4bErbJCRx/G/Lf352YO39Ya5E2McmlCdvMGPYOQE4AKDl47EGk3YJehxjZPqwDE7aBuAOQst+payekbLcnaRfA2ZQf8JjjhIxtty5WReMMABpETgBIuQiljrRP6S9nVPbdE7YZ5UU5p6/U29Mrk3OMU7ZN+blAjFPYYcht5pD+jTSlzlH/vnblrxnb9unNhrFmANAgcn5PFidsk/PO/ZIh//06GX2tm7DNooz+5g7571OO/YySayjkBMiUYzzK/uaS/veRsm+j/n3tyq0Z29Ze32NiGAA0iNsytk35Nn9jRn/DPrse9pHB8lJu5w97G395w36jz/mmlPMzWNFlGdumHOOc/ob9fbiZWDkvRcq+jfr3tSs5t/FTHitqJQwAGkROAEi5COXcut5yyH9/Gukn8J8nbJPzOtawxyXnUUrJAPAr0n+Hjk/Y5rjEvs4i7XXL1P6OTdjm96QPJE35fe1KzlTTKZOLaSUMABrEzRnbplyEckbKD/ucczFpr0j9geEnOdqAeBUw1bDHpS8BYCFp80EcS8wjP6wfEG9cDOuzCdtA2twTtwFfStjuVmKejGGdTITdPliLmFws1cWlCmmdAUCDuCZj25Q7AJdk9JcyDfB7ibXOB7UIeDkxneww7k36fPc3ENOoDiPncUPp26xvYbj6bwRek9hXyrankj774QkMH3DeR/qF7J0M9yjgNuL3dSqxv9KeQt6AxNTZPqXOTPJEQM8gfd9Sbju+O6O/ExP6g1iM5vIBPn8RMcNeircNuA8ra6cm9Pe6jP6+ktDfmjyYCJNr6vsm0l+tW95biJC2pv7OJX/q4fWIIDDIsf0a+V++7kOsT7Gmvm4FDsrsq6SNibEIqb+XU7gioHpokgPAfqTvW8rAo4Mz+lvE8OMAZmwHfJdVXzTOBB6W+NkAv1tD7atr30jo7/MZ/b0rob9B3A04ZjX9/ga4b8H+/gm4aBV9LQa+QNpkQyszl/h2vqpV7/4BHEa5VQ+3Jx53rOpYngbsW6ivEtZjuOmgV9auxjvXxfg6hQaRc0t+O+IxwDC3lP+Q0d8c4Nmkze1+GfA0Yh75A4lFVOYR+/9z4u7CsLf9Z+xKLISSKuWYpC5aBN09Zz2fmNzn3sR8+DsRP7OLiWDwe+JEX8r3gZ8Qk/w8gpiB7zrgz8TFM+d99BUtAv4D+ChxB2MvYgGkq4hgczRlH638lXiWvjsxKdUuxGuClxDjJ35N+u9raTsRITbnbwDgKPqzT9L/meQ7AHNZ8ypnq2vDfqObRZw0U/s7n7y5BLrwCfK++aScOAe5Rbyqtl9Cf9KK7gZ8iAg+Ob//My11lkepU5McACAGyaXu33MS+vt2Rn9TxFz9fbEt8SZF6r4sYPhAs2lGf1MMPyOetBnwKODfga8DF1Dmoj/TLqF/wX6s+QhAgzobuGvitvsSJ4Rh/Jy8ZT/fR6yXXvJ1tlTvJ28WthMYfobDnGe/i+jXpDHqn7sSAxH3Wu4/t++4z08w/N+BNBKTfgfgfaTv358S+tucGMGc840hZznZUg5gsJHoq2v/nNDvhzP6yxmDockyG7gH8SbBB4hgfjVlv9kP0i6n7PoUUlGTHgCeTfr+LSVtApz/l9HnTL8pK/aVsi15z+GniNv/KXcPzsjoM3VCHI23ecA+wKHAp4mJrlb1RsOo2yEd7reUbdIDwM7k/QGnjAN4SmafMxfQvRL6zrUBeb8TM+3zCX1vTt5dhxck9Knxsgkx0PM1xLwEZxGPfmpf6FfWTqDcq5NSJyY9AMBgE+Wsqn01ob/ZxIj+3BPIFcREP6OyAfnvO08Rzzv3SOj/oMx+d0voU/21KTF6/j+A77HqeRH62K4mfeyRNDItBIDvkL6P1zP8Sn0AL87oc/l2DfDwhP6HtS1lvvlPEcc7xU8y+rwav21NigcR8wHkvMJbsy2m7iM8aWAtBICXkvcH/dyEPtcmJjwpcUJZBLyR7mYSewz5z/xn2lJidPWwtibvVu73E/pU/7yFuINU+yKe015a/KhIHWkhAOxA3h/0zxL7fU5mvyu2k8mfkWx52xDPUXNH+y/fUufif01mvy9K7Ff98SrqX7xz2lLg1cWPitShFgIAxCt9qfu5mPRFV0o8U1/xJHMUMT1s6i3vuwEfJxavKVnbtcBWiTXljP5fDGyR2K/6YWfyX5+t2W4Bnl/8qEgdayUAvIu8P/APJfa7O3Fy6OKkczHwQWJu+s1WU8M84rnqm4l51rs6Cb4s6QjBozP7/VViv+qPT1P/Ip7aLgEeUP6QSN1rJQDci7w/8huI19RSzKxp3nW7ilh+9xfExCenEFMhl7zFv6p2FOl3JH6R2fdrE/tVf/yN+hfyYdtS4HPAhh0cD2kkWgkAkPcYYIpYMjXVdzP77nO7lPRw9NDMvpfg/P8lbAA8hAirHwMOBz5CzOa4fsd9r0/93+Fh28+B+3VxMKRRaikAvI68P/prgY0S+94YODez/z62m4nHC6l+mtn/TzL6btVWwGOJN0uOBM5j9SPvryaCQVevWW6ymr771G4kBs3u081hkEavQrvQOQAAGWRJREFUpQCwBXXn6b8z8byw9omsVFsMPC3jeDy2QA1Pyuh/0s0i1rN/OjEG5sfAZaQf66/Rzauos4j5Nmr/Pq/YlhJ3DT8LPAPn9NcEaikAQKzul3NSWESMJ0i1B3UWJemiHZZxHNYlf7bEv+IyqzPmEr+Xzwc+SoyrWED5n/k7Oqr/Bx3UOky7DTgd+BLwCuLRlM/2NfFaCwD3Jn9Q3Ink3Q69J+M56GmmLSZ/spO3F6jjPzJrGFdrE0HyecTz+hMp/0rn6i6UO3ewT48bUf1TxN2GU4hpvl9JjH2Y18E+Sb3XWgAA+BH5J5HciWd2JJ691ryQp7RbiNuhOXYhxg7k1HEj6XMOjJMtiNckXw98gxhHUnumvHd3tK/f66DWK4FjiGXBnwncne5m1JTGTosB4EHkn1gWEheyHFtRfqKgLtulwL6Z+7w28LsCtbw/s44+2pFYSfIdREi9lPo/85W133W0/xsQdzNS67qIeNvmrcRc/Nt1VKc0MVoMAADHkX8iPBVYJ7OOWcAb6P/CJ8dS5hv3hwvUcj3prx32wRziMdDBxARTxxNvmNT+GQ/aLi1/SP7POsS39dXdIVoEnEncwn81MSvmxh3WJE2sVgPA/pQ5GX6yUD0PB84pVFPJtoAY7FfiFbAnU2ZSoq5uQXdhPeCBxJiJzwK/J//xR+12YdEjtHJbAP9CjHH4GhEcDyVewVt3BP1LTWg1AAAcTZkT4nMK1TOXGJTUl1eifkT6Gggr2oVY2ji3pgXEOvF9tCnwKGK+iSOAs+n/nZ2U5twL0oRoOQCUGIw2Rcwt8KiCdW1JjJLv4jWuNbWlxIW/5KqDWxPfGkvU94qCdeXYnrij8XZiKeJJmt9hTc3lbqUJ0XIAgDKvo00Ro9JzZsRbmc2n6/tLoRpX1xYCXwT2LLwPGwKnFarxFEb/3v9sYjKdA4mfxY+IkeW1L8K12mU4IY40MVoPACUmpJlpVxJL7Za2FjFG4AvkzeS2Yrse+CHxCKOL96DXpdxbDovpfu71ecQz5kOJ1el+SwS72hfdvrRFwGOSj66k3mk9AECZKWln2uXEZENd2o1YevfLxEVqkGfrNwN/AL5NvCa1LzEavSsbUvYVx48Xrm8TYD/gNcRo8rOIC1zti2xf2w3ElMKSJogBIHyFcifLBcQ39lHanLhVvfd034+a/r93Jd6HHuXkJ1sT06qWOp4Xkjct652JW/j/QUw2c1HB2ia93UQMaMyd80JSDxkAwp3IXy54+XYzMalLa3ah3IC/KWKA5aADEtci7o48C/hv4GfAVQVrmfS2hHgV9RvEzIOPxuf90kQzACxzT8o+811KvMfc5a32PjmQ8gsdvXYVfc3ljvPh9+X1yXFotxGvKS4/H/76qzjWkiaUAeD2Xkz5k+0vgG1HuA+jNocYIV96jvqfEBMQbUhcoA5l2cV+3CfTGWVbOH3MPjZ9DB+Ck+lIwgCwModT/iR8JTHYcNLsRAxE7OLC9QvicUKJ2QNbaZcBPwbeBTxt+udTYhZHSRPIAHBH6wG/oZsT9DeZjLsB6xCD6ka1DK3t9m0JsZrkkcAbgQNoY3VESQUZAFZuM8oOCly+XUcsYjKuYwMew3guZTwJ7Q3ELfwN1vhTkqQ1MACs2l2Av9LdyfwcYkW4cQkC+xLP5WtfBFtufsuXVIwBYPXuAfyDbk/qFxMjsfs6MOshxBS4tS9+NgOApIIMAGv2QEazXvtlxFroe4xmt1ZrS2LhnVOpf9Eb97YUuICYhfHNxKj81M8yAEgqxgAwmHsR0/yO6qJxCnFXYIcR7NuMTYBnEt/2byuwDy2224jFj75IBKiHcsdZDOdnfL4BQM0bl2emmhxnAg8GjqGbBX9WtPd0+yjxiOD46fZL4k5BCRsSz/X3J+bFvw+jX21vnF1HrK9wBjH18RnE5Dq31SxKmnS+11rOKaR/k78fcYu4JVsS71l3vTLd6iwA/jzdziWWC76OWLDlBuJxBcRI8fWJaY43Il4/3HW5tt0oix5zVxAX+JmL/eksm/J4WPNJ/ya/NTGnhNQs7wColr8T35i/ATyhUg0bAw+YbiprKXFhn7nIz1z059csStIyBgDVdD0x7/0rgA8Q89Jr/CwCzifuYp1K3L4/nVjPQFJPGQBU2xQxt/pviNn9dqxbjtbgemIcx9nEBE+nEo+/bqlZlKThGQDUF78H9gG+Qr1HArq9a1l2kZ9p5xC39yWNOQOA+uRq4pHAvwDvBTatW04zlhK38JcfmHcGMU5D0oQyAKhvpoDPAd8B/hM4DFirakWTZcXn9acSF/sbahYlafQMAOqra4gJfL4FfIqYQEjDWcDtX7k7g7iFv6hmUZL6wQCgvjuJmF/hxcRyrXetW05vzWfZ7fvTiVn0LqpakaReMwBoHCwGPgP8D/Bs4E3AblUrqusKbn8L/2y82EsakgFA42QR8FXgCOAZxIIwe1atqFtLgPO44zf7a1e3kSQNwgCgcbSEmDPgm8TjgUOBg4ipesfVYuJiv/w3+9OBG2sWJUlaM1cDrGtj4AXA0fR/Bb4biLENnwAOIRYPWrv4EZl8rgYoZfAOgCbFAuDL020T4DHAY4EDgG2qVRUXqTOJEfh/IL7Vn0fcxZCkagwAmkTXAkdON4BdiCWI9wX2Avag/OOCW4hVBc9i2QX/TFxxTlJPGQDUggum21em//tawE7TbUdgB2J52M2m2zrEXYQV3QxcRXyrvwq4mHiv/s/AJThFrqQxYgBQi5ayLBRIUpOcYlWSpAYZACRJapABQJKkBhkAJElqkAFAkqQGGQAkSWqQAUCSpAYZACRJapABQJKkBhkAJElqkAFAkqQGGQAkSWqQAUCSpAYZACRJapABQJKkBhkAJElqkAFAkqQGGQAkSWqQAUCSpAYZACRJapABQJKkBhkAJElqkAFAkqQGGQAkSWqQAUCSpAYZACRJapABQJKkBhkAJElqkAFAkqQGGQAkSWqQAUCSpAYZACRJapABQJKkBhkAJElqkAFAkqQGGQAkSWqQAUCSpAYZACRJapABQJKkBhkAJElqkAFAkqQGGQAkSWqQAUCSpAYZACRJapABQJKkBhkAJElqkAFAkqQGGQAkSWqQAUCSpAYZACRJapABQJKkBhkAJElq0JzaBai4OcAGtYuQVuIW4ObaRUgKBoDJsDnwKuCpwK54Z0f9dSVwNPAR4MzKtUhSEacAU4lt74x+nwQsyOjbZqvRlgDvIy+szs/of6uMfqWJ4DfF8fZU4P8BG9UuRBrSWsAbgE/XLkRqlQFgfG0HfAV/hhpvhwLPrF2E1CIvHuPrjcD6tYuQCngXMKt2EVJrDADjaS3g6bWLkArZBbhv7SKk1hgAxtPW002aFHvVLkBqjQFgPG1euwCpsC1qFyC1xgAwnvy5adLMrl2A1BovJJIkNcgAIElSgwwAkiQ1yAAgSVKDDACSJDXI1QDbswS4rnYRmkjzgHVrFyFpMAaA9pwF3Kd2EZpI7wLeUrsISYPxEYAkSQ0yAEiS1CADgCRJDTIASJLUIAOAJEkNMgBIktQgA4AkSQ0yAEiS1CADgCRJDTIASJLUIAOAJEkNci0ApdoYeASwPbEIjMbPYuBK4CTg4sq1SBoxA4CGtQ2x6MvBwNzKtaic/wX+Hfhd7UIkjYaPADSMvYFTgRfhxX/SPBQ4EXhJ7UIkjYYBQIPaHvgxcQdAk2kO8Cngn2oXIql7BoDxtDRj26nE7T4EbJXRr8bDWsBngQ1qFyKpWwaA8XR1xrZ/T9hme+BpGX1qvGwJPKt2EZK6ZQAYT/NJDwFnJ2zzWGBWYn8aT4+rXYCkbhkAxtMS4PuJ2343YZsdE/vS+PJnLk04A8D4eg9w65DbHAP8uoNaNHm84yNNOAPA+LoIeOkQ/34+8OLEvv6auJ3G1yW1C5DULQPAePsycAhrvhNwNvGe998S+/lp4nYaX/7MpQlnABh/XwR2Az4HXLXC/+904BXAfYELMvq4GPhBxvYaL1cBR9QuQlK3nAp4MvyFmMHtpcS7+hsAVwA3FOzjNcRdhE0Lfqb6Z4oIjdfVLkRSt7wDMFmmiGf951P24g8x5uBJwD8Kf676YynwOuCbtQuR1D0DgIZxEnA/4FvkzUao/jkNeBTw4dqFSBoNHwFoWJcAzwS2Ji4YOwJ3qlqRUt1GPCo6ETirci2SRswAoFTzgcNrFyFJSuMjAEmSGmQAkCSpQQYASZIaZACQJKlBBgBJkhpkAJAkqUEGAEmSGmQAkCSpQQYASZIaZACQJKlBBgBJkhrkWgBKsSlwEPBoYAdcDGhc3Uas6XASsa7DuXXLkTRKBgAN6xDgA8AmtQtREbsBjwDeCHwOeDVwa82CJI2GjwA0jLcDX8CL/ySaDfwr8DNgncq1SBoBA4AG9WTgbbWLUOceBny4dhGSuucjgMmxH/BU4J7EM/krgROBrwOXZn72bOK2/6zMz9F4eAnwCeCc2oVI6o53AMbfXYFfAscDhxHPc/cBngi8DzgPeCdxEU+1L3C3rCo1TmYTgzwlTTADwHjbHfg9cdt2VdYF3gp8m/QQ8KDE7TS+Hly7AEndMgCMr3nAD4AtB/z3TyH9Gf7WidtpfG1TuwBJ3TIAjK/DGP62/OuB7RL6mpuwjcabP3NpwhkAxtcLE7ZZF3hW6UIkSePHADCeNiWe/6d4aMlCJEnjyQAwnnKeyftsV5JkABhTa1faVpI0IQwAkiQ1yAAgSVKDnApYXXs78LXaRTTqLsAvahchqZ8MAOra1cBFtYuQJN2ejwAkSWqQAUCSpAYZACRJapABQJKkBhkAJElqkAFAkqQGGQAkSWqQAUCSpAYZACRJapABQJKkBjkVsLq2K/Co2kU0apvaBUjqLwOAunbYdJMk9YiPACRJapABQJKkBhkAJElqkAFAkqQGGQAkSWqQAUCSpAYZADSIW2sXoJHzZy5NOAOABnF57QI0cpfVLkBStwwAGsQvaxegkTuhdgGSumUA0CBOm25qwy3A4bWLkNQtA4AGMQW8ClhcuxCNxPuBv9YuQlK3DAAa1P8CLwOW1C5EnfoW8F+1i5DUPQOAhvF54AnAhbULUXHXA28EngUsrVyLpBFwNUAN6xjgHsDjgUcDdwXWqVqRUi0BrgROAr4H/KNuOZJGyQCgFLcB359ukqQx5CMASZIaZACQJKlBBgBJkhpkAJAkqUEGAEmSGmQAkCSpQQYASZIaZACQJKlBBgBJkhpkAJAkqUEGAEmSGuRaAO3ZgVjyVSrtnrULkDQ4A0B7NgaeUbsISVJdPgKQJKlBBgBJkhpkAJAkqUEGAEmSGmQAkCSpQQYASX0wVbsAqTUGgPF0be0CpML8nZZGzAAwnq4AbqpdhFTQBbULkFpjABhPtwHH1C5CKmQh8KvaRUitMQCMr/fic1NNhg8Bt9YuQmqNAWB8nQx8oHYRUiZ/j6VKDADj7U3Ax2oXISX6NXAgcEvtQqQWGQDG21LgVcBjgd/iIwGNh0uJ39v9gCsr1yI1y9UAJ8Mx0207YknWDeuWI63ULcBfgD9iWJWqMwBMlsummyRJq+UjAEmSGmQAkCSpQQYASZIaZACQJKlBBgBJkhpkAJAkqUEGAEmSGmQAkCSpQQYASZIaZACQJKlBBgBJkhpkAJAkqUEGAEmSGmQAkCSpQQYASZIaZACQJKlBBgBJkhpkAJAkqUEGAEmSGmQAkCSpQQYASZIaZACQJKlBBgBJkhpkAJAkqUFzahcgAHavXYA0hubWLkAaZwaAfvha7QIkSW3xEYAkSQ0yAEiS1CADgCRJDTIASJLUIAOAJEkNMgCUc2vtAiQNzL9XNc8AUM4VtQuQNJAbgQW1i5BqMwCUc3LtAiQN5Pe1C5D6wABQzveApbWLkLRG36ldgNQHs2sXMEGuAXYG7l27EEmr9DfgEGBx7UKk2mbVLmDCbAb8jggCkvplMXAAcHztQqQ+8BFAWVcDTwQurl2IpNu5BTgYL/7S//ERQHn/AI4ANgfuhSFLqu3XwNOBY2sXIvWJjwC6tSPwFGBv4C7Aeiv5N3tnfP6pGdsqbEr8nFJcg3d7StgF2Chx2wuAhSv8b4uA+cA5wFFEAJCk3lkCTCU27y7kew7px/+ICvVOop+Q/jN4XIV6pYngBUSSpAYZACRJapABQJKkBhkAJElqkAFAkqQGGQAkSWqQAUCSpAYZACRJapABQJKkBhkAJElqkAFAkqQGzaldgCbS2sCewB7AtsDWwLzp/99NwOXT7SzgT8Q67UqzM3AfYDtgG2CT6f99MfB34DLgfOB04LoaBUrqJwOASrk7sfLhgcD9gbkDbncL8L/Aj4HvAn/rpLrJsTHwRODJwCNZdsFfkyngbGLhnR/gCnmSVN04rwY4G3gacALp+7B8Wwz8CHjUCPdhXFYD3BP4HHBjRr3Lt7OBl7PszkxNrgYoqUnjGgAOAM5cRV0l2onAviPYj74HgLsChwNLM+pcXbsc+DcizNViAJDUpHELAFsQt+q7uvAv35YCnwc26nB/+hoA1gJeTYyZGMWxPhW4b4f7szoGAElNGqcA8Ghgfka9qe1C4H4d7VMfA8BWwPEZdaW2W4BXArM62q9VMQBIFdR+hqzxcQgxUG+rCn3vBJwEPLtC36O2B/BbYL8Kfa8DfBT4CoMP4pQ0pgwAGsRbgS9Q96KwNvEs/GUVa+ja/YixDztUruNg4IfAupXrkNQhA4DW5OXAO2sXMW0t4BPAiwt+5oKMba8tVgXcE/gp8ZpfHzwWOBLvBEhSZ/o8BuCZdDf6PKctptyrgrtm1PHqQjVsTYzGr31cV9Y+XWgfV8cxAJKa1NcAcDdi5rjaF6BVtX8Qr8iVcF5C/0unj1GutYDjEvofZXtRgf1cHQOApCb1MQDMBU7LqGtU7XjKjFg/JKHv7xToF+AtCX2Put1ADMTsigFAUpP6GABelVHTqNuhBfZ3NsNdhC4H7lyg3x0Z3Xv+ue24Avu7KgYASU3qWwDYkhjcVvuCM2i7EtigwH5vCBw9QH+XAPcq0B/A9wbor0/tSYX2e0UGAElN6lsAeH9GPbXafxba99nEHYWLVtLHQuDDwKaF+tp7JX30vf2RbiYJMgBIFYx6xi/d0RLSL+SzicFopawPXEq5V9FuJladOwm4nrjdvQOxfO1+lJt//ipge2Imu1LuRSy1ux7wF+Bk4LaCn/814LmFPmuKWFb5BGI1xRuAzYDdiTUbBl0xcBCPJ+6UlPQT0i/kXdQjSSPRpzsA/5pRy/LtamJw2+rm8N8SeA8REkr0+bzsvR+drYBbyd/npcDXiTkEVmVtYgbFCwv0NwUclb33d+QdAElN6lMA+EVGLTPt1ww3QO5uxNK0uf2O07fAl5K/v9cATxyiz3WIhZVy+72NuLtQkgFAUpP6EgA2JybYybk4HEN84xzWhsQt9twLU19m0VuTn5J/8b9HYt//ldn3FPDCxL5XxQAgqUl9CQAHZdQxRXyL3zCj/62ByzJrGOYbcS3zyLv9vxh4RGYNh2f0P0WMXyjJACBV4FoAmpG7FvzLiZkDU80nf2rdfTO3H4U9SbtLMuOLxKOaHK8gZlJMNQ7HWdIaGAA04z4Z2/6cmJUv17eAMzO2L/V+fpf2yth2MWVeebyGeKUx1U7EGyOSxpgBQDPunrHtkcWqgC9lbNvldLWl7Jqx7a+AKwrV8VXyXiEdh2MtaTUMAJqRM7L72GJVxEUuVYnpebuWc5x/VqyKGG9xYcb243CsJa2GAUAAdwLWTdx2CXExKeVPGduuV6yK7myese2lxaoIZ2dsOw7HWtJqGAAEeYPSrieeTZdyC+m3pmcTKxn2WU59VxerItyUse28YlVIqsIAIIipY1NtRNlvg+uT/nu5GFhUsJYu3Jix7Z2KVRFyXtu8uVgVkqowAAjiopk6z/0sYh7+UnIGI15frIru5ISt3YpVEXKOdc4rn5J6YE7tApRlSe0Cpj0UOLfQZz0qY9tNiMlhJtUjifUTSrgreQHgmEJ1SKrEOwAqodTUsLOAFxT6rEn0cMq9fld6Ol9JY8YAoBIeBDy4wOc8jljCVis3G3hNgc+ZAxxa4HMkjTEDgEp5SYHPeGmBz5h0zyP9lc0ZjwW2KVCLpDFmAFAp+xf4jP0KfMak2wDYJ/MznlSiEEnjzQCgUrYhb1Dppji//KDukrl9ybc2JI0pA0B9qa/f9c1axCj8VDnbtiZnOmGYrGM9KX8/0sgZAOq7snYBhdxI3hKzf6M/rzX23SWZ25eeUrimy2sXII0rA0B9p9cuoJA/k/cO/q3ARYVqmXTnVN6+L64jb0EjqWkGgPq+W7uAQg7vyWdMut8B52d+xuFMxoRJR+EjAEljbC5wHnFCHte2kFgTINeWxKOE2vvT5/as5KN7e0f1YF9y2mJgj0LHQpKqeQTxTab2STWlLQWeVvBYPK8H+9TXdiQxW2IJdyHGn9Tep9T2rkLHQZKqez7jFwKWAm/u4Fi8twf71rd2EuVfk3wYsKAH+zZs+wo+vpQ0YR7B+DwOuAo4sJOjEP4ZuLYH+1m7LQE+TDwq6sLOwO97sJ+DtIXAqyl3F0SSemUucDDwPeJ1r1upf+KdIr7tXwkcSyzYM6+j/V/e+sC/AMcDf+9w3/rWrgdOI25z3zX7KK7ZLGIWxiOAi+nX79wVwK+A1wNbdHUApBb9/2B9SJiv/vlbAAAAAElFTkSuQmCC;" parent="1" vertex="1">
          <mxGeometry x="380" y="80" width="50" height="50" as="geometry" />
        </mxCell>
      </root>
    </mxGraphModel>
  </diagram>
  <diagram id="4_08kzqetQwqtgUrJhK_" name="Page-12">
    <mxGraphModel dx="1050" dy="603" grid="1" gridSize="10" guides="1" tooltips="1" connect="1" arrows="1" fold="1" page="1" pageScale="1" pageWidth="827" pageHeight="1169" math="0" shadow="0">
      <root>
        <mxCell id="0" />
        <mxCell id="1" parent="0" />
        <mxCell id="MPenH0wzA3uyjcSt8WoO-11" value="" style="rounded=0;whiteSpace=wrap;html=1;dashed=1;dashPattern=1 4;" parent="1" vertex="1">
          <mxGeometry x="295" y="377" width="250" height="170" as="geometry" />
        </mxCell>
        <mxCell id="MPenH0wzA3uyjcSt8WoO-7" value="" style="rounded=0;whiteSpace=wrap;html=1;dashed=1;" parent="1" vertex="1">
          <mxGeometry x="325" y="462" width="190" height="70" as="geometry" />
        </mxCell>
        <mxCell id="ilDtcDLTDB497GsIEKL_-2" style="edgeStyle=orthogonalEdgeStyle;rounded=0;orthogonalLoop=1;jettySize=auto;html=1;exitX=0.5;exitY=0;exitDx=0;exitDy=0;entryX=0.5;entryY=1;entryDx=0;entryDy=0;" parent="1" source="hgErERMHe2ODs0d_khxY-1" target="ilDtcDLTDB497GsIEKL_-1" edge="1">
          <mxGeometry relative="1" as="geometry" />
        </mxCell>
        <mxCell id="hgErERMHe2ODs0d_khxY-1" value="&lt;b&gt;Controller&lt;/b&gt;&lt;br&gt;Arduino Mega&lt;br&gt;ATmega2560" style="whiteSpace=wrap;html=1;aspect=fixed;fillColor=#f5f5f5;fontColor=#333333;strokeColor=#666666;" parent="1" vertex="1">
          <mxGeometry x="370" y="122" width="100" height="100" as="geometry" />
        </mxCell>
        <mxCell id="vQ4qS1-PHSxQRk6bls2R-1" value="&lt;b&gt;Ultrasonic&lt;br&gt;&lt;/b&gt;sensors" style="rounded=0;whiteSpace=wrap;html=1;fillColor=#ffff88;strokeColor=#36393d;" parent="1" vertex="1">
          <mxGeometry x="220" y="142" width="100" height="55" as="geometry" />
        </mxCell>
        <mxCell id="vQ4qS1-PHSxQRk6bls2R-13" value="" style="endArrow=classic;html=1;rounded=0;exitX=1;exitY=0;exitDx=0;exitDy=0;" parent="1" edge="1">
          <mxGeometry width="50" height="50" relative="1" as="geometry">
            <mxPoint x="320" y="174.66000000000003" as="sourcePoint" />
            <mxPoint x="370" y="174.66000000000003" as="targetPoint" />
          </mxGeometry>
        </mxCell>
        <mxCell id="vQ4qS1-PHSxQRk6bls2R-14" value="" style="endArrow=classic;html=1;rounded=0;exitX=1;exitY=0;exitDx=0;exitDy=0;" parent="1" edge="1">
          <mxGeometry width="50" height="50" relative="1" as="geometry">
            <mxPoint x="320" y="162" as="sourcePoint" />
            <mxPoint x="370" y="162" as="targetPoint" />
          </mxGeometry>
        </mxCell>
        <mxCell id="XtdjVvmbYlc2cTSpsIYU-1" value="&lt;b&gt;LCD &lt;/b&gt;16x2" style="whiteSpace=wrap;html=1;fillColor=#cce5ff;strokeColor=#36393d;" parent="1" vertex="1">
          <mxGeometry x="620" y="133" width="80" height="30" as="geometry" />
        </mxCell>
        <mxCell id="XtdjVvmbYlc2cTSpsIYU-2" value="red&amp;nbsp;&lt;b&gt;LED&lt;/b&gt;" style="whiteSpace=wrap;html=1;fillColor=#cce5ff;strokeColor=#36393d;" parent="1" vertex="1">
          <mxGeometry x="520" y="172" width="80" height="20" as="geometry" />
        </mxCell>
        <mxCell id="XtdjVvmbYlc2cTSpsIYU-4" style="edgeStyle=orthogonalEdgeStyle;rounded=0;orthogonalLoop=1;jettySize=auto;html=1;exitX=1;exitY=0.5;exitDx=0;exitDy=0;entryX=0;entryY=0.5;entryDx=0;entryDy=0;" parent="1" source="XtdjVvmbYlc2cTSpsIYU-3" target="XtdjVvmbYlc2cTSpsIYU-1" edge="1">
          <mxGeometry relative="1" as="geometry" />
        </mxCell>
        <mxCell id="XtdjVvmbYlc2cTSpsIYU-3" value="&lt;b&gt;I2C &lt;/b&gt;module" style="whiteSpace=wrap;html=1;fillColor=#cce5ff;strokeColor=#36393d;" parent="1" vertex="1">
          <mxGeometry x="520" y="133" width="80" height="30" as="geometry" />
        </mxCell>
        <mxCell id="XtdjVvmbYlc2cTSpsIYU-5" value="" style="endArrow=classic;html=1;rounded=0;entryX=0;entryY=0.5;entryDx=0;entryDy=0;exitX=1;exitY=0.25;exitDx=0;exitDy=0;" parent="1" source="hgErERMHe2ODs0d_khxY-1" target="XtdjVvmbYlc2cTSpsIYU-3" edge="1">
          <mxGeometry width="50" height="50" relative="1" as="geometry">
            <mxPoint x="390" y="252" as="sourcePoint" />
            <mxPoint x="440" y="202" as="targetPoint" />
          </mxGeometry>
        </mxCell>
        <mxCell id="XtdjVvmbYlc2cTSpsIYU-6" value="I2C" style="text;html=1;strokeColor=none;fillColor=none;align=center;verticalAlign=middle;whiteSpace=wrap;rounded=0;" parent="1" vertex="1">
          <mxGeometry x="461" y="130" width="60" height="17" as="geometry" />
        </mxCell>
        <mxCell id="XtdjVvmbYlc2cTSpsIYU-7" value="green&amp;nbsp;&lt;b&gt;LED&lt;/b&gt;" style="whiteSpace=wrap;html=1;fillColor=#cce5ff;strokeColor=#36393d;" parent="1" vertex="1">
          <mxGeometry x="521" y="202" width="80" height="20" as="geometry" />
        </mxCell>
        <mxCell id="XtdjVvmbYlc2cTSpsIYU-9" value="" style="endArrow=classic;html=1;rounded=0;entryX=0;entryY=0.5;entryDx=0;entryDy=0;exitX=1;exitY=0.25;exitDx=0;exitDy=0;" parent="1" edge="1">
          <mxGeometry width="50" height="50" relative="1" as="geometry">
            <mxPoint x="471" y="181.49999999999977" as="sourcePoint" />
            <mxPoint x="521" y="182.5" as="targetPoint" />
          </mxGeometry>
        </mxCell>
        <mxCell id="XtdjVvmbYlc2cTSpsIYU-10" value="" style="endArrow=classic;html=1;rounded=0;entryX=0;entryY=0.5;entryDx=0;entryDy=0;exitX=1;exitY=0.25;exitDx=0;exitDy=0;" parent="1" edge="1">
          <mxGeometry width="50" height="50" relative="1" as="geometry">
            <mxPoint x="470" y="211.49999999999977" as="sourcePoint" />
            <mxPoint x="520" y="212.5" as="targetPoint" />
          </mxGeometry>
        </mxCell>
        <mxCell id="XtdjVvmbYlc2cTSpsIYU-11" value="x4" style="text;html=1;strokeColor=none;fillColor=none;align=center;verticalAlign=middle;whiteSpace=wrap;rounded=0;" parent="1" vertex="1">
          <mxGeometry x="461" y="166.5" width="60" height="17" as="geometry" />
        </mxCell>
        <mxCell id="XtdjVvmbYlc2cTSpsIYU-12" value="x4" style="text;html=1;strokeColor=none;fillColor=none;align=center;verticalAlign=middle;whiteSpace=wrap;rounded=0;" parent="1" vertex="1">
          <mxGeometry x="461" y="195" width="60" height="17" as="geometry" />
        </mxCell>
        <mxCell id="XtdjVvmbYlc2cTSpsIYU-13" value="" style="endArrow=classic;html=1;rounded=0;exitX=1;exitY=0;exitDx=0;exitDy=0;" parent="1" edge="1">
          <mxGeometry width="50" height="50" relative="1" as="geometry">
            <mxPoint x="320" y="149.9999999999999" as="sourcePoint" />
            <mxPoint x="370" y="149.9999999999999" as="targetPoint" />
          </mxGeometry>
        </mxCell>
        <mxCell id="XtdjVvmbYlc2cTSpsIYU-14" value="" style="endArrow=classic;html=1;rounded=0;exitX=1;exitY=0;exitDx=0;exitDy=0;" parent="1" edge="1">
          <mxGeometry width="50" height="50" relative="1" as="geometry">
            <mxPoint x="320" y="187.9999999999999" as="sourcePoint" />
            <mxPoint x="370" y="187.9999999999999" as="targetPoint" />
          </mxGeometry>
        </mxCell>
        <mxCell id="ilDtcDLTDB497GsIEKL_-1" value="&lt;b&gt;Servo &lt;/b&gt;motor" style="whiteSpace=wrap;html=1;fillColor=#cce5ff;strokeColor=#36393d;" parent="1" vertex="1">
          <mxGeometry x="380" y="72" width="80" height="20" as="geometry" />
        </mxCell>
        <mxCell id="ilDtcDLTDB497GsIEKL_-3" value="&lt;b&gt;NodeMcu 12E&lt;/b&gt;&lt;br&gt;ESP8266" style="whiteSpace=wrap;html=1;aspect=fixed;fillColor=#f5f5f5;fontColor=#333333;strokeColor=#666666;" parent="1" vertex="1">
          <mxGeometry x="385" y="262" width="70" height="70" as="geometry" />
        </mxCell>
        <mxCell id="ilDtcDLTDB497GsIEKL_-4" value="" style="endArrow=classic;startArrow=classic;html=1;rounded=0;entryX=0.5;entryY=1;entryDx=0;entryDy=0;exitX=0.5;exitY=0;exitDx=0;exitDy=0;" parent="1" source="ilDtcDLTDB497GsIEKL_-3" target="hgErERMHe2ODs0d_khxY-1" edge="1">
          <mxGeometry width="50" height="50" relative="1" as="geometry">
            <mxPoint x="390" y="192" as="sourcePoint" />
            <mxPoint x="440" y="142" as="targetPoint" />
          </mxGeometry>
        </mxCell>
        <mxCell id="ilDtcDLTDB497GsIEKL_-5" value="Serial" style="text;html=1;strokeColor=none;fillColor=none;align=center;verticalAlign=middle;whiteSpace=wrap;rounded=0;" parent="1" vertex="1">
          <mxGeometry x="373" y="231" width="60" height="17" as="geometry" />
        </mxCell>
        <mxCell id="3n88hT3NLKY6hIFG9py0-1" value="&amp;nbsp;Cloud&lt;br&gt;Storage" style="ellipse;shape=cloud;whiteSpace=wrap;html=1;fillColor=#f9f7ed;strokeColor=#36393d;" parent="1" vertex="1">
          <mxGeometry x="377" y="377" width="86" height="50" as="geometry" />
        </mxCell>
        <mxCell id="MPenH0wzA3uyjcSt8WoO-1" value="" style="endArrow=classic;startArrow=classic;html=1;rounded=0;entryX=0.5;entryY=1;entryDx=0;entryDy=0;" parent="1" source="3n88hT3NLKY6hIFG9py0-1" target="ilDtcDLTDB497GsIEKL_-3" edge="1">
          <mxGeometry width="50" height="50" relative="1" as="geometry">
            <mxPoint x="390" y="422" as="sourcePoint" />
            <mxPoint x="440" y="372" as="targetPoint" />
          </mxGeometry>
        </mxCell>
        <mxCell id="MPenH0wzA3uyjcSt8WoO-2" value="WiFi" style="text;html=1;strokeColor=none;fillColor=none;align=center;verticalAlign=middle;whiteSpace=wrap;rounded=0;" parent="1" vertex="1">
          <mxGeometry x="376" y="344" width="60" height="17" as="geometry" />
        </mxCell>
        <mxCell id="MPenH0wzA3uyjcSt8WoO-5" value="app" style="whiteSpace=wrap;html=1;fillColor=#f9f7ed;strokeColor=#36393d;" parent="1" vertex="1">
          <mxGeometry x="425" y="492" width="80" height="30" as="geometry" />
        </mxCell>
        <mxCell id="MPenH0wzA3uyjcSt8WoO-6" value="website" style="whiteSpace=wrap;html=1;fillColor=#f9f7ed;strokeColor=#36393d;" parent="1" vertex="1">
          <mxGeometry x="332" y="492" width="80" height="30" as="geometry" />
        </mxCell>
        <mxCell id="MPenH0wzA3uyjcSt8WoO-8" value="User Interface" style="text;html=1;strokeColor=none;fillColor=none;align=center;verticalAlign=middle;whiteSpace=wrap;rounded=0;" parent="1" vertex="1">
          <mxGeometry x="365" y="462" width="110" height="30" as="geometry" />
        </mxCell>
        <mxCell id="MPenH0wzA3uyjcSt8WoO-9" value="" style="endArrow=classic;startArrow=classic;html=1;rounded=0;entryX=0.5;entryY=1;entryDx=0;entryDy=0;exitX=0.5;exitY=0;exitDx=0;exitDy=0;" parent="1" source="MPenH0wzA3uyjcSt8WoO-8" edge="1">
          <mxGeometry width="50" height="50" relative="1" as="geometry">
            <mxPoint x="420" y="452" as="sourcePoint" />
            <mxPoint x="419.66" y="427" as="targetPoint" />
          </mxGeometry>
        </mxCell>
        <mxCell id="MPenH0wzA3uyjcSt8WoO-12" value="&lt;b&gt;Blynk IoT&lt;/b&gt;&lt;br&gt;Platform" style="text;html=1;strokeColor=none;fillColor=none;align=center;verticalAlign=middle;whiteSpace=wrap;rounded=0;dashed=1;dashPattern=1 4;" parent="1" vertex="1">
          <mxGeometry x="305" y="387" width="60" height="30" as="geometry" />
        </mxCell>
      </root>
    </mxGraphModel>
  </diagram>
</mxfile>
